<?xml version="1.0" encoding="UTF-8" standalone="no"?>
<!-- Created with Inkscape (http://www.inkscape.org/) -->

<svg
   version="1.1"
   id="svg1"
   width="559"
   height="420"
   viewBox="0 0 559 419.99998"
   sodipodi:docname="pcr_line_A.svg"
   inkscape:version="1.4 (86a8ad7, 2024-10-11)"
   xmlns:inkscape="http://www.inkscape.org/namespaces/inkscape"
   xmlns:sodipodi="http://sodipodi.sourceforge.net/DTD/sodipodi-0.dtd"
   xmlns="http://www.w3.org/2000/svg"
   xmlns:svg="http://www.w3.org/2000/svg">
  <defs
     id="defs1">
    <clipPath
       clipPathUnits="userSpaceOnUse"
       id="clipPath2">
      <path
         d="M 0,0 H 700.00001 V 525 H 0 Z"
         transform="translate(2.89375e-6)"
         id="path2" />
    </clipPath>
  </defs>
  <sodipodi:namedview
     id="namedview1"
     pagecolor="#ffffff"
     bordercolor="#000000"
     borderopacity="0.25"
     inkscape:showpageshadow="2"
     inkscape:pageopacity="0.0"
     inkscape:pagecheckerboard="0"
     inkscape:deskcolor="#d1d1d1"
     inkscape:zoom="0.48687068"
     inkscape:cx="289.60463"
     inkscape:cy="596.66769"
     inkscape:window-width="1920"
     inkscape:window-height="991"
     inkscape:window-x="1033"
     inkscape:window-y="2151"
     inkscape:window-maximized="1"
     inkscape:current-layer="g1">
    <inkscape:page
       x="0"
       y="0"
       inkscape:label="1"
       id="page1"
       width="559"
       height="419.99997"
       margin="0"
       bleed="0" />
  </sodipodi:namedview>
  <g
     id="g1"
     inkscape:groupmode="layer"
     inkscape:label="1">
    <path
       id="path1"
       d="M 0,0 H 700 V 525 H 0 Z"
       style="fill:#ffffff;fill-opacity:1;fill-rule:nonzero;stroke:none"
       transform="matrix(0.8,0,0,0.8,1.830093,2.0911521)"
       clip-path="url(#clipPath2)" />
    <path
       id="path3"
       d="M 1.830093,2.0911521 H 561.83009 V 422.09115 H 1.830093 Z"
       style="fill:#ffffff;fill-opacity:1;fill-rule:nonzero;stroke:none;stroke-width:0.8" />
    <path
       id="path4"
       d="M 74.630093,371.69115 H 509.03009 V 33.291152 H 74.630093 Z"
       style="fill:#ffffff;fill-opacity:1;fill-rule:nonzero;stroke:none;stroke-width:0.8" />
    <path
       id="path5"
       d="M 74.630093,371.69115 V 33.291152"
       style="fill:none;stroke:#262626;stroke-width:0.666666;stroke-linecap:butt;stroke-linejoin:round;stroke-miterlimit:10;stroke-dasharray:none;stroke-opacity:0.14902" />
    <path
       id="path6"
       d="M 183.23009,371.69115 V 33.291152"
       style="fill:none;stroke:#262626;stroke-width:0.666666;stroke-linecap:butt;stroke-linejoin:round;stroke-miterlimit:10;stroke-dasharray:none;stroke-opacity:0.14902" />
    <path
       id="path7"
       d="M 291.83009,371.69115 V 33.291152"
       style="fill:none;stroke:#262626;stroke-width:0.666666;stroke-linecap:butt;stroke-linejoin:round;stroke-miterlimit:10;stroke-dasharray:none;stroke-opacity:0.14902" />
    <path
       id="path8"
       d="M 400.43009,371.69115 V 33.291152"
       style="fill:none;stroke:#262626;stroke-width:0.666666;stroke-linecap:butt;stroke-linejoin:round;stroke-miterlimit:10;stroke-dasharray:none;stroke-opacity:0.14902" />
    <path
       id="path9"
       d="M 509.03009,371.69115 V 33.291152"
       style="fill:none;stroke:#262626;stroke-width:0.666666;stroke-linecap:butt;stroke-linejoin:round;stroke-miterlimit:10;stroke-dasharray:none;stroke-opacity:0.14902" />
    <path
       id="path10"
       d="M 509.03009,345.66039 H 74.630093"
       style="fill:none;stroke:#262626;stroke-width:0.666666;stroke-linecap:butt;stroke-linejoin:round;stroke-miterlimit:10;stroke-dasharray:none;stroke-opacity:0.14902" />
    <path
       id="path11"
       d="M 509.03009,293.59884 H 74.630093"
       style="fill:none;stroke:#262626;stroke-width:0.666666;stroke-linecap:butt;stroke-linejoin:round;stroke-miterlimit:10;stroke-dasharray:none;stroke-opacity:0.14902" />
    <path
       id="path12"
       d="M 509.03009,241.5373 H 74.630093"
       style="fill:none;stroke:#262626;stroke-width:0.666666;stroke-linecap:butt;stroke-linejoin:round;stroke-miterlimit:10;stroke-dasharray:none;stroke-opacity:0.14902" />
    <path
       id="path13"
       d="M 509.03009,189.47577 H 74.630093"
       style="fill:none;stroke:#262626;stroke-width:0.666666;stroke-linecap:butt;stroke-linejoin:round;stroke-miterlimit:10;stroke-dasharray:none;stroke-opacity:0.14902" />
    <path
       id="path14"
       d="M 509.03009,137.41422 H 74.630093"
       style="fill:none;stroke:#262626;stroke-width:0.666666;stroke-linecap:butt;stroke-linejoin:round;stroke-miterlimit:10;stroke-dasharray:none;stroke-opacity:0.14902" />
    <path
       id="path15"
       d="M 509.03009,85.352688 H 74.630093"
       style="fill:none;stroke:#262626;stroke-width:0.666666;stroke-linecap:butt;stroke-linejoin:round;stroke-miterlimit:10;stroke-dasharray:none;stroke-opacity:0.14902" />
    <path
       id="path16"
       d="M 509.03009,33.291152 H 74.630093"
       style="fill:none;stroke:#262626;stroke-width:0.666666;stroke-linecap:butt;stroke-linejoin:round;stroke-miterlimit:10;stroke-dasharray:none;stroke-opacity:0.14902" />
    <path
       id="path17"
       d="M 74.630093,371.69115 H 509.03009"
       style="fill:none;stroke:#262626;stroke-width:0.666666;stroke-linecap:square;stroke-linejoin:round;stroke-miterlimit:10;stroke-dasharray:none;stroke-opacity:1" />
    <path
       id="path18"
       d="M 74.630093,33.291152 H 509.03009"
       style="fill:none;stroke:#262626;stroke-width:0.666666;stroke-linecap:square;stroke-linejoin:round;stroke-miterlimit:10;stroke-dasharray:none;stroke-opacity:1" />
    <path
       id="path19"
       d="m 74.630093,371.69115 v -4.34406"
       style="fill:none;stroke:#262626;stroke-width:0.666666;stroke-linecap:square;stroke-linejoin:round;stroke-miterlimit:10;stroke-dasharray:none;stroke-opacity:1" />
    <path
       id="path20"
       d="m 183.23009,371.69115 v -4.34406"
       style="fill:none;stroke:#262626;stroke-width:0.666666;stroke-linecap:square;stroke-linejoin:round;stroke-miterlimit:10;stroke-dasharray:none;stroke-opacity:1" />
    <path
       id="path21"
       d="m 291.83009,371.69115 v -4.34406"
       style="fill:none;stroke:#262626;stroke-width:0.666666;stroke-linecap:square;stroke-linejoin:round;stroke-miterlimit:10;stroke-dasharray:none;stroke-opacity:1" />
    <path
       id="path22"
       d="m 400.43009,371.69115 v -4.34406"
       style="fill:none;stroke:#262626;stroke-width:0.666666;stroke-linecap:square;stroke-linejoin:round;stroke-miterlimit:10;stroke-dasharray:none;stroke-opacity:1" />
    <path
       id="path23"
       d="m 509.03009,371.69115 v -4.34406"
       style="fill:none;stroke:#262626;stroke-width:0.666666;stroke-linecap:square;stroke-linejoin:round;stroke-miterlimit:10;stroke-dasharray:none;stroke-opacity:1" />
    <path
       id="path24"
       d="m 74.630093,33.291152 v 4.344077"
       style="fill:none;stroke:#262626;stroke-width:0.666666;stroke-linecap:square;stroke-linejoin:round;stroke-miterlimit:10;stroke-dasharray:none;stroke-opacity:1" />
    <path
       id="path25"
       d="m 183.23009,33.291152 v 4.344077"
       style="fill:none;stroke:#262626;stroke-width:0.666666;stroke-linecap:square;stroke-linejoin:round;stroke-miterlimit:10;stroke-dasharray:none;stroke-opacity:1" />
    <path
       id="path26"
       d="m 291.83009,33.291152 v 4.344077"
       style="fill:none;stroke:#262626;stroke-width:0.666666;stroke-linecap:square;stroke-linejoin:round;stroke-miterlimit:10;stroke-dasharray:none;stroke-opacity:1" />
    <path
       id="path27"
       d="m 400.43009,33.291152 v 4.344077"
       style="fill:none;stroke:#262626;stroke-width:0.666666;stroke-linecap:square;stroke-linejoin:round;stroke-miterlimit:10;stroke-dasharray:none;stroke-opacity:1" />
    <path
       id="path28"
       d="m 509.03009,33.291152 v 4.344077"
       style="fill:none;stroke:#262626;stroke-width:0.666666;stroke-linecap:square;stroke-linejoin:round;stroke-miterlimit:10;stroke-dasharray:none;stroke-opacity:1" />
    <path
       id="path29"
       d="m 70.147689,389.30005 c 0,-1.45703 0.148438,-2.63281 0.453125,-3.53125 0.300782,-0.89453 0.75,-1.58203 1.34375,-2.0625 0.59375,-0.48828 1.34375,-0.73437 2.25,-0.73437 0.664063,0 1.25,0.13671 1.75,0.40625 0.5,0.26171 0.910157,0.64843 1.234375,1.15625 0.332032,0.5 0.593751,1.11718 0.781251,1.84375 0.1875,0.71875 0.281249,1.69531 0.281249,2.92187 0,1.46094 -0.152344,2.63672 -0.453124,3.53125 -0.304688,0.89844 -0.750001,1.58984 -1.343751,2.07813 -0.59375,0.49218 -1.34375,0.73437 -2.25,0.73437 -1.199218,0 -2.136718,-0.42969 -2.8125,-1.29687 -0.824218,-1.03125 -1.234375,-2.71094 -1.234375,-5.04688 z m 1.5625,0 c 0,2.04297 0.238282,3.40234 0.71875,4.07813 0.476563,0.66796 1.066407,1 1.765625,1 0.695313,0 1.285157,-0.33594 1.765625,-1.01563 0.476563,-0.67578 0.71875,-2.03125 0.71875,-4.0625 0,-2.03906 -0.242187,-3.39453 -0.71875,-4.0625 -0.480468,-0.66406 -1.074218,-1 -1.78125,-1 -0.699218,0 -1.257812,0.29297 -1.671875,0.875 -0.53125,0.76172 -0.796875,2.15625 -0.796875,4.1875 z m 0,0"
       style="fill:#262626;fill-opacity:1;fill-rule:nonzero;stroke:none;stroke-width:0.8"
       aria-label="0" />
    <path
       id="path30"
       d="m 178.74925,392.17505 1.59375,-0.14062 c 0.125,0.78125 0.39844,1.37109 0.82813,1.76562 0.4375,0.38672 0.95703,0.57813 1.5625,0.57813 0.72656,0 1.34765,-0.27344 1.85937,-0.82813 0.50781,-0.55078 0.76563,-1.28125 0.76563,-2.1875 0,-0.875 -0.2461,-1.5625 -0.73438,-2.0625 -0.49219,-0.5 -1.13281,-0.75 -1.92187,-0.75 -0.49219,0 -0.9336,0.11719 -1.32813,0.34375 -0.38672,0.21875 -0.69531,0.50781 -0.92187,0.85938 l -1.4375,-0.1875 1.20312,-6.375 h 6.17188 v 1.45312 h -4.95313 l -0.67187,3.32813 c 0.75,-0.50782 1.53125,-0.76563 2.34375,-0.76563 1.08203,0 1.99218,0.375 2.73437,1.125 0.75,0.75 1.125,1.71484 1.125,2.89063 0,1.125 -0.32422,2.09375 -0.96875,2.90625 -0.80469,1.01171 -1.89062,1.51562 -3.26562,1.51562 -1.125,0 -2.04688,-0.31641 -2.76563,-0.95312 -0.71094,-0.63282 -1.11719,-1.47266 -1.21875,-2.51563 z m 0,0"
       style="fill:#262626;fill-opacity:1;fill-rule:nonzero;stroke:none;stroke-width:0.8"
       aria-label="5" />
    <path
       id="path31"
       d="m 288.28441,395.42505 h -1.51563 v -9.70312 c -0.375,0.34375 -0.85937,0.69531 -1.45312,1.04687 -0.59375,0.35547 -1.125,0.61719 -1.59375,0.78125 v -1.46875 c 0.85156,-0.39453 1.59765,-0.87891 2.23437,-1.45312 0.63282,-0.57032 1.08203,-1.125 1.34375,-1.65625 h 0.98438 z m 3.90234,-6.125 c 0,-1.45703 0.14844,-2.63281 0.45313,-3.53125 0.30078,-0.89453 0.75,-1.58203 1.34375,-2.0625 0.59375,-0.48828 1.34375,-0.73437 2.25,-0.73437 0.66406,0 1.25,0.13671 1.75,0.40625 0.5,0.26171 0.91015,0.64843 1.23437,1.15625 0.33203,0.5 0.59375,1.11718 0.78125,1.84375 0.1875,0.71875 0.28125,1.69531 0.28125,2.92187 0,1.46094 -0.15234,2.63672 -0.45312,3.53125 -0.30469,0.89844 -0.75,1.58984 -1.34375,2.07813 -0.59375,0.49218 -1.34375,0.73437 -2.25,0.73437 -1.19922,0 -2.13672,-0.42969 -2.8125,-1.29687 -0.82422,-1.03125 -1.23438,-2.71094 -1.23438,-5.04688 z m 1.5625,0 c 0,2.04297 0.23828,3.40234 0.71875,4.07813 0.47656,0.66796 1.06641,1 1.76563,1 0.69531,0 1.28515,-0.33594 1.76562,-1.01563 0.47656,-0.67578 0.71875,-2.03125 0.71875,-4.0625 0,-2.03906 -0.24219,-3.39453 -0.71875,-4.0625 -0.48047,-0.66406 -1.07422,-1 -1.78125,-1 -0.69922,0 -1.25781,0.29297 -1.67187,0.875 -0.53125,0.76172 -0.79688,2.15625 -0.79688,4.1875 z m 0,0"
       style="fill:#262626;fill-opacity:1;fill-rule:nonzero;stroke:none;stroke-width:0.8"
       aria-label="10" />
    <path
       id="path32"
       d="m 396.88206,395.42505 h -1.51562 v -9.70312 c -0.375,0.34375 -0.85938,0.69531 -1.45313,1.04687 -0.59375,0.35547 -1.125,0.61719 -1.59375,0.78125 v -1.46875 c 0.85157,-0.39453 1.59766,-0.87891 2.23438,-1.45312 0.63281,-0.57032 1.08203,-1.125 1.34375,-1.65625 h 0.98437 z m 3.90235,-3.25 1.59375,-0.14062 c 0.125,0.78125 0.39844,1.37109 0.82812,1.76562 0.4375,0.38672 0.95703,0.57813 1.5625,0.57813 0.72657,0 1.34766,-0.27344 1.85938,-0.82813 0.50781,-0.55078 0.76562,-1.28125 0.76562,-2.1875 0,-0.875 -0.24609,-1.5625 -0.73437,-2.0625 -0.49219,-0.5 -1.13281,-0.75 -1.92188,-0.75 -0.49218,0 -0.93359,0.11719 -1.32812,0.34375 -0.38672,0.21875 -0.69531,0.50781 -0.92188,0.85938 l -1.4375,-0.1875 1.20313,-6.375 h 6.17187 v 1.45312 h -4.95312 l -0.67188,3.32813 c 0.75,-0.50782 1.53125,-0.76563 2.34375,-0.76563 1.08203,0 1.99219,0.375 2.73438,1.125 0.75,0.75 1.125,1.71484 1.125,2.89063 0,1.125 -0.32422,2.09375 -0.96875,2.90625 -0.80469,1.01171 -1.89063,1.51562 -3.26563,1.51562 -1.125,0 -2.04687,-0.31641 -2.76562,-0.95312 -0.71094,-0.63282 -1.11719,-1.47266 -1.21875,-2.51563 z m 0,0"
       style="fill:#262626;fill-opacity:1;fill-rule:nonzero;stroke:none;stroke-width:0.8"
       aria-label="15" />
    <path
       id="path33"
       d="m 507.74925,393.9563 v 1.46875 h -8.1875 c -0.0234,-0.36328 0.0352,-0.71875 0.17188,-1.0625 0.20703,-0.55078 0.53906,-1.09766 1,-1.64062 0.45703,-0.53907 1.125,-1.16407 2,-1.875 1.34375,-1.11329 2.25,-1.99219 2.71875,-2.64063 0.47656,-0.64453 0.71875,-1.25391 0.71875,-1.82812 0,-0.60157 -0.21875,-1.10938 -0.65625,-1.51563 -0.42969,-0.41406 -0.98438,-0.625 -1.67188,-0.625 -0.74219,0 -1.32812,0.21875 -1.76562,0.65625 -0.4375,0.4375 -0.66407,1.04688 -0.67188,1.82813 l -1.5625,-0.15625 c 0.10156,-1.17579 0.50391,-2.06641 1.20313,-2.67188 0.70703,-0.61328 1.64843,-0.92187 2.82812,-0.92187 1.1875,0 2.125,0.33593 2.8125,1 0.69531,0.65625 1.04688,1.46875 1.04688,2.4375 0,0.5 -0.10547,0.99218 -0.3125,1.46875 -0.19922,0.48046 -0.53125,0.98437 -1,1.51562 -0.46875,0.53125 -1.25,1.26172 -2.34375,2.1875 -0.91797,0.76172 -1.50782,1.28125 -1.76563,1.5625 -0.26172,0.27344 -0.47656,0.54297 -0.64062,0.8125 z m 1.63672,-4.65625 c 0,-1.45703 0.14844,-2.63281 0.45313,-3.53125 0.30078,-0.89453 0.75,-1.58203 1.34375,-2.0625 0.59375,-0.48828 1.34375,-0.73437 2.25,-0.73437 0.66406,0 1.25,0.13671 1.75,0.40625 0.5,0.26171 0.91015,0.64843 1.23437,1.15625 0.33203,0.5 0.59375,1.11718 0.78125,1.84375 0.1875,0.71875 0.28125,1.69531 0.28125,2.92187 0,1.46094 -0.15234,2.63672 -0.45312,3.53125 -0.30469,0.89844 -0.75,1.58984 -1.34375,2.07813 -0.59375,0.49218 -1.34375,0.73437 -2.25,0.73437 -1.19922,0 -2.13672,-0.42969 -2.8125,-1.29687 -0.82422,-1.03125 -1.23438,-2.71094 -1.23438,-5.04688 z m 1.5625,0 c 0,2.04297 0.23828,3.40234 0.71875,4.07813 0.47656,0.66796 1.06641,1 1.76563,1 0.69531,0 1.28515,-0.33594 1.76562,-1.01563 0.47656,-0.67578 0.71875,-2.03125 0.71875,-4.0625 0,-2.03906 -0.24219,-3.39453 -0.71875,-4.0625 -0.48047,-0.66406 -1.07422,-1 -1.78125,-1 -0.69922,0 -1.25781,0.29297 -1.67187,0.875 -0.53125,0.76172 -0.79688,2.15625 -0.79688,4.1875 z m 0,0"
       style="fill:#262626;fill-opacity:1;fill-rule:nonzero;stroke:none;stroke-width:0.8"
       aria-label="20" />
    <path
       id="path34"
       d="m 270.16332,417.03052 c 0.75781,0.52344 1.46094,0.90625 2.10937,1.15625 l -0.48437,1.14062 c -0.88672,-0.32422 -1.77344,-0.83593 -2.65625,-1.53125 -0.92969,0.52344 -1.94531,0.78125 -3.04688,0.78125 -1.125,0 -2.14843,-0.26953 -3.0625,-0.8125 -0.91796,-0.53906 -1.62109,-1.30078 -2.10937,-2.28125 -0.49219,-0.98828 -0.73438,-2.09765 -0.73438,-3.32812 0,-1.21875 0.24219,-2.32813 0.73438,-3.32813 0.5,-1.00781 1.20703,-1.77343 2.125,-2.29687 0.91406,-0.53125 1.94141,-0.79688 3.07812,-0.79688 1.14454,0 2.17579,0.27735 3.09375,0.82813 0.91407,0.54297 1.61329,1.30469 2.09375,2.28125 0.48829,0.96875 0.73438,2.07422 0.73438,3.3125 0,1.02344 -0.15625,1.9375 -0.46875,2.75 -0.3125,0.8125 -0.78125,1.52344 -1.40625,2.125 z m -3.60938,-2.09375 c 0.94532,0.26172 1.72657,0.65625 2.34375,1.1875 0.96875,-0.88281 1.45313,-2.20703 1.45313,-3.96875 0,-1.00781 -0.17188,-1.89063 -0.51563,-2.64063 -0.34375,-0.75 -0.84375,-1.32812 -1.5,-1.73437 -0.65625,-0.41406 -1.39843,-0.625 -2.21875,-0.625 -1.21875,0 -2.23437,0.41797 -3.04687,1.25 -0.80469,0.83594 -1.20313,2.08594 -1.20313,3.75 0,1.61719 0.39454,2.85547 1.1875,3.71875 0.80079,0.86719 1.82032,1.29687 3.0625,1.29687 0.59375,0 1.14454,-0.10937 1.65625,-0.32812 -0.51171,-0.33203 -1.05468,-0.57031 -1.625,-0.71875 z m 12.35157,6.85937 v -15.84375 h 3.35937 v 1.26563 h -1.82812 v 13.32812 h 1.82812 v 1.25 z m 4.75781,-3.4375 v -12.40625 h 1.51562 v 12.40625 z m 2.73828,0.21875 3.59375,-12.82812 h 1.21875 l -3.57812,12.82812 z m 5.96094,-0.21875 v -8.98437 h 1.35937 v 1.26562 c 0.28125,-0.44531 0.65625,-0.80078 1.125,-1.0625 0.46875,-0.26953 1.00391,-0.40625 1.60938,-0.40625 0.66406,0 1.20703,0.14063 1.625,0.42188 0.42578,0.27344 0.72656,0.65625 0.90625,1.15625 0.70703,-1.05078 1.63281,-1.57813 2.78125,-1.57813 0.88281,0 1.5664,0.25 2.04687,0.75 0.47657,0.49219 0.71875,1.2461 0.71875,2.26563 v 6.17187 h -1.51562 v -5.65625 c 0,-0.61328 -0.0547,-1.05078 -0.15625,-1.3125 -0.0937,-0.26953 -0.27344,-0.48828 -0.53125,-0.65625 -0.25,-0.16406 -0.55469,-0.25 -0.90625,-0.25 -0.63672,0 -1.16406,0.21485 -1.57813,0.64063 -0.41797,0.41797 -0.625,1.08984 -0.625,2.01562 v 5.21875 h -1.51562 v -5.84375 c 0,-0.67578 -0.125,-1.17968 -0.375,-1.51562 -0.25,-0.34375 -0.65625,-0.51563 -1.21875,-0.51563 -0.42969,0 -0.82422,0.11719 -1.1875,0.34375 -0.36719,0.23047 -0.63281,0.5625 -0.79688,1 -0.15625,0.42969 -0.23437,1.05469 -0.23437,1.875 v 4.65625 z m 14.45312,-10.65625 v -1.75 h 1.51563 v 1.75 z m 0,10.65625 v -8.98437 h 1.51563 v 8.98437 z m 3.83203,0 v -8.98437 h 1.375 v 1.28125 c 0.65625,-0.98828 1.60938,-1.48438 2.85938,-1.48438 0.53906,0 1.03516,0.10157 1.48437,0.29688 0.45704,0.1875 0.79688,0.44531 1.01563,0.76562 0.22656,0.3125 0.39062,0.6875 0.48437,1.125 0.0508,0.28125 0.0781,0.77344 0.0781,1.46875 v 5.53125 h -1.51563 v -5.46875 c 0,-0.61328 -0.0625,-1.07031 -0.1875,-1.375 -0.11718,-0.3125 -0.32421,-0.5625 -0.625,-0.75 -0.30468,-0.1875 -0.65625,-0.28125 -1.0625,-0.28125 -0.64843,0 -1.20312,0.21094 -1.67187,0.625 -0.46875,0.40625 -0.70313,1.1875 -0.70313,2.34375 v 4.90625 z m 12.1836,3.4375 h -3.35938 v -1.25 h 1.84375 v -13.32812 h -1.84375 v -1.26563 h 3.35938 z m 0,0"
       style="fill:#262626;fill-opacity:1;fill-rule:nonzero;stroke:none;stroke-width:0.8"
       aria-label="Q [l/min]" />
    <path
       id="path35"
       d="M 74.630093,371.69115 V 33.291152"
       style="fill:none;stroke:#262626;stroke-width:0.666666;stroke-linecap:square;stroke-linejoin:round;stroke-miterlimit:10;stroke-dasharray:none;stroke-opacity:1" />
    <path
       id="path36"
       d="M 509.03009,371.69115 V 33.291152"
       style="fill:none;stroke:#262626;stroke-width:0.666666;stroke-linecap:square;stroke-linejoin:round;stroke-miterlimit:10;stroke-dasharray:none;stroke-opacity:1" />
    <path
       id="path37"
       d="m 74.630093,345.66039 h 4.344"
       style="fill:none;stroke:#262626;stroke-width:0.666666;stroke-linecap:square;stroke-linejoin:round;stroke-miterlimit:10;stroke-dasharray:none;stroke-opacity:1" />
    <path
       id="path38"
       d="m 74.630093,293.59884 h 4.344"
       style="fill:none;stroke:#262626;stroke-width:0.666666;stroke-linecap:square;stroke-linejoin:round;stroke-miterlimit:10;stroke-dasharray:none;stroke-opacity:1" />
    <path
       id="path39"
       d="m 74.630093,241.5373 h 4.344"
       style="fill:none;stroke:#262626;stroke-width:0.666666;stroke-linecap:square;stroke-linejoin:round;stroke-miterlimit:10;stroke-dasharray:none;stroke-opacity:1" />
    <path
       id="path40"
       d="m 74.630093,189.47577 h 4.344"
       style="fill:none;stroke:#262626;stroke-width:0.666666;stroke-linecap:square;stroke-linejoin:round;stroke-miterlimit:10;stroke-dasharray:none;stroke-opacity:1" />
    <path
       id="path41"
       d="m 74.630093,137.41422 h 4.344"
       style="fill:none;stroke:#262626;stroke-width:0.666666;stroke-linecap:square;stroke-linejoin:round;stroke-miterlimit:10;stroke-dasharray:none;stroke-opacity:1" />
    <path
       id="path42"
       d="m 74.630093,85.352688 h 4.344"
       style="fill:none;stroke:#262626;stroke-width:0.666666;stroke-linecap:square;stroke-linejoin:round;stroke-miterlimit:10;stroke-dasharray:none;stroke-opacity:1" />
    <path
       id="path43"
       d="m 74.630093,33.291152 h 4.344"
       style="fill:none;stroke:#262626;stroke-width:0.666666;stroke-linecap:square;stroke-linejoin:round;stroke-miterlimit:10;stroke-dasharray:none;stroke-opacity:1" />
    <path
       id="path44"
       d="M 509.03009,345.66039 H 504.6861"
       style="fill:none;stroke:#262626;stroke-width:0.666666;stroke-linecap:square;stroke-linejoin:round;stroke-miterlimit:10;stroke-dasharray:none;stroke-opacity:1" />
    <path
       id="path45"
       d="M 509.03009,293.59884 H 504.6861"
       style="fill:none;stroke:#262626;stroke-width:0.666666;stroke-linecap:square;stroke-linejoin:round;stroke-miterlimit:10;stroke-dasharray:none;stroke-opacity:1" />
    <path
       id="path46"
       d="M 509.03009,241.5373 H 504.6861"
       style="fill:none;stroke:#262626;stroke-width:0.666666;stroke-linecap:square;stroke-linejoin:round;stroke-miterlimit:10;stroke-dasharray:none;stroke-opacity:1" />
    <path
       id="path47"
       d="M 509.03009,189.47577 H 504.6861"
       style="fill:none;stroke:#262626;stroke-width:0.666666;stroke-linecap:square;stroke-linejoin:round;stroke-miterlimit:10;stroke-dasharray:none;stroke-opacity:1" />
    <path
       id="path48"
       d="M 509.03009,137.41422 H 504.6861"
       style="fill:none;stroke:#262626;stroke-width:0.666666;stroke-linecap:square;stroke-linejoin:round;stroke-miterlimit:10;stroke-dasharray:none;stroke-opacity:1" />
    <path
       id="path49"
       d="M 509.03009,85.352688 H 504.6861"
       style="fill:none;stroke:#262626;stroke-width:0.666666;stroke-linecap:square;stroke-linejoin:round;stroke-miterlimit:10;stroke-dasharray:none;stroke-opacity:1" />
    <path
       id="path50"
       d="M 509.03009,33.291152 H 504.6861"
       style="fill:none;stroke:#262626;stroke-width:0.666666;stroke-linecap:square;stroke-linejoin:round;stroke-miterlimit:10;stroke-dasharray:none;stroke-opacity:1" />
    <path
       id="path51"
       d="m 47.616441,350.99146 v 1.46875 h -8.1875 c -0.02344,-0.36328 0.03516,-0.71875 0.171875,-1.0625 0.207031,-0.55078 0.539062,-1.09765 1,-1.64062 0.457031,-0.53906 1.125,-1.16406 2,-1.875 1.34375,-1.11328 2.25,-1.99219 2.71875,-2.64063 0.476562,-0.64453 0.71875,-1.2539 0.71875,-1.82812 0,-0.60156 -0.21875,-1.10938 -0.65625,-1.51563 -0.429688,-0.41406 -0.984375,-0.625 -1.671875,-0.625 -0.742188,0 -1.328125,0.21875 -1.765625,0.65625 -0.4375,0.4375 -0.664063,1.04688 -0.671875,1.82813 l -1.5625,-0.15625 c 0.101562,-1.17578 0.503906,-2.06641 1.203125,-2.67188 0.707031,-0.61328 1.648437,-0.92187 2.828125,-0.92187 1.1875,0 2.125,0.33594 2.8125,1 0.695312,0.65625 1.046875,1.46875 1.046875,2.4375 0,0.5 -0.105469,0.99219 -0.3125,1.46875 -0.199219,0.48047 -0.53125,0.98437 -1,1.51562 -0.46875,0.53125 -1.25,1.26172 -2.34375,2.1875 -0.917969,0.76172 -1.507813,1.28125 -1.765625,1.5625 -0.261719,0.27344 -0.476563,0.54297 -0.640625,0.8125 z m 3.980468,-5.25 c -0.636718,-0.23828 -1.105468,-0.57031 -1.406249,-1 -0.304688,-0.42578 -0.453126,-0.9375 -0.453126,-1.53125 0,-0.90625 0.320313,-1.66406 0.968751,-2.28125 0.644531,-0.61328 1.507812,-0.92187 2.593749,-0.92187 1.082031,0 1.953126,0.32031 2.609375,0.95312 0.664063,0.625 1,1.38672 1,2.28125 0,0.58594 -0.152344,1.08985 -0.453124,1.51563 -0.304688,0.41797 -0.76172,0.74609 -1.375,0.98437 0.757812,0.24219 1.335937,0.63672 1.734375,1.1875 0.394531,0.55469 0.593749,1.21485 0.593749,1.98438 0,1.0625 -0.375,1.96094 -1.125,2.6875 -0.75,0.71875 -1.742187,1.07812 -2.968749,1.07812 -1.218751,0 -2.203126,-0.36328 -2.953126,-1.09375 -0.75,-0.72656 -1.125,-1.63281 -1.125,-2.71875 0,-0.80078 0.203126,-1.47265 0.609375,-2.01562 0.406251,-0.55078 0.988282,-0.92188 1.75,-1.10938 z m -0.296875,-2.59375 c 0,0.59375 0.1875,1.07813 0.5625,1.45313 0.375,0.36719 0.863282,0.54687 1.468751,0.54687 0.582031,0 1.0625,-0.17968 1.4375,-0.54687 0.375,-0.375 0.5625,-0.82813 0.5625,-1.35938 0,-0.5625 -0.195313,-1.03125 -0.578125,-1.40625 -0.386719,-0.38281 -0.867188,-0.57812 -1.4375,-0.57812 -0.585938,0 -1.070313,0.1875 -1.453126,0.5625 -0.375,0.375 -0.5625,0.82031 -0.5625,1.32812 z m -0.5,5.73438 c 0,0.4375 0.101563,0.85937 0.3125,1.26562 0.207031,0.40625 0.515626,0.71875 0.921875,0.9375 0.406251,0.21875 0.843751,0.32813 1.3125,0.32813 0.718751,0 1.3125,-0.22656 1.781251,-0.6875 0.476562,-0.46875 0.718749,-1.06641 0.718749,-1.79688 0,-0.72656 -0.246093,-1.33203 -0.734375,-1.8125 -0.480469,-0.47656 -1.089843,-0.71875 -1.828125,-0.71875 -0.710937,0 -1.304687,0.24219 -1.781249,0.71875 -0.468751,0.46875 -0.703126,1.0586 -0.703126,1.76563 z m 8.089844,-2.54688 c 0,-1.45703 0.148438,-2.63281 0.453125,-3.53125 0.300782,-0.89453 0.75,-1.58203 1.34375,-2.0625 0.59375,-0.48828 1.34375,-0.73437 2.25,-0.73437 0.664063,0 1.25,0.13672 1.75,0.40625 0.5,0.26172 0.910156,0.64844 1.234376,1.15625 0.332031,0.5 0.593749,1.11719 0.781249,1.84375 0.1875,0.71875 0.281251,1.69531 0.281251,2.92187 0,1.46094 -0.152344,2.63672 -0.453126,3.53125 -0.304687,0.89844 -0.75,1.58985 -1.34375,2.07813 -0.59375,0.49219 -1.34375,0.73437 -2.25,0.73437 -1.199219,0 -2.136719,-0.42968 -2.8125,-1.29687 -0.824219,-1.03125 -1.234375,-2.71094 -1.234375,-5.04688 z m 1.5625,0 c 0,2.04297 0.238282,3.40235 0.718751,4.07813 0.476562,0.66797 1.066405,1 1.765624,1 0.695312,0 1.285156,-0.33594 1.765625,-1.01563 0.476563,-0.67578 0.718751,-2.03125 0.718751,-4.0625 0,-2.03906 -0.242188,-3.39453 -0.718751,-4.0625 -0.480469,-0.66406 -1.074218,-1 -1.781249,-1 -0.69922,0 -1.257813,0.29297 -1.671876,0.875 -0.53125,0.76172 -0.796875,2.15625 -0.796875,4.1875 z m 0,0"
       style="fill:#262626;fill-opacity:1;fill-rule:nonzero;stroke:none;stroke-width:0.8"
       aria-label="280" />
    <path
       id="path52"
       d="m 47.616441,298.92896 v 1.46875 h -8.1875 c -0.02344,-0.36328 0.03516,-0.71875 0.171875,-1.0625 0.207031,-0.55078 0.539062,-1.09766 1,-1.64062 0.457031,-0.53907 1.125,-1.16407 2,-1.875 1.34375,-1.11329 2.25,-1.99219 2.71875,-2.64063 0.476562,-0.64453 0.71875,-1.25391 0.71875,-1.82812 0,-0.60157 -0.21875,-1.10938 -0.65625,-1.51563 -0.429688,-0.41406 -0.984375,-0.625 -1.671875,-0.625 -0.742188,0 -1.328125,0.21875 -1.765625,0.65625 -0.4375,0.4375 -0.664063,1.04688 -0.671875,1.82813 l -1.5625,-0.15625 c 0.101562,-1.17579 0.503906,-2.06641 1.203125,-2.67188 0.707031,-0.61328 1.648437,-0.92187 2.828125,-0.92187 1.1875,0 2.125,0.33593 2.8125,1 0.695312,0.65625 1.046875,1.46875 1.046875,2.4375 0,0.5 -0.105469,0.99218 -0.3125,1.46875 -0.199219,0.48046 -0.53125,0.98437 -1,1.51562 -0.46875,0.53125 -1.25,1.26172 -2.34375,2.1875 -0.917969,0.76172 -1.507813,1.28125 -1.765625,1.5625 -0.261719,0.27344 -0.476563,0.54297 -0.640625,0.8125 z m 1.871093,-1.40625 1.453126,-0.125 c 0.125,0.6875 0.359374,1.1875 0.703125,1.5 0.351562,0.30469 0.804687,0.45313 1.359375,0.45313 0.468749,0 0.878905,-0.10157 1.234374,-0.3125 0.351563,-0.21875 0.640626,-0.50391 0.859375,-0.85938 0.226563,-0.36328 0.414063,-0.84766 0.5625,-1.45312 0.156251,-0.60157 0.234376,-1.22266 0.234376,-1.85938 0,-0.0703 0,-0.17578 0,-0.3125 -0.3125,0.49219 -0.734376,0.88672 -1.265625,1.1875 -0.523438,0.30469 -1.089844,0.45313 -1.703126,0.45313 -1.031249,0 -1.902343,-0.36719 -2.609374,-1.10938 -0.710938,-0.75 -1.0625,-1.73437 -1.0625,-2.95312 0,-1.25782 0.367187,-2.26954 1.109374,-3.03125 0.738282,-0.76954 1.671875,-1.15625 2.796875,-1.15625 0.800782,0 1.535156,0.21875 2.203125,0.65625 0.664063,0.42968 1.171875,1.04687 1.515626,1.85937 0.351562,0.80469 0.531249,1.96484 0.531249,3.48438 0,1.58593 -0.171875,2.84375 -0.515624,3.78125 -0.343751,0.9375 -0.859376,1.65625 -1.546876,2.15625 -0.679687,0.49218 -1.468749,0.73437 -2.375,0.73437 -0.968749,0 -1.761718,-0.26953 -2.375,-0.8125 -0.617187,-0.53906 -0.984375,-1.30078 -1.109375,-2.28125 z m 6.234375,-5.46875 c 0,-0.875 -0.234375,-1.56641 -0.703124,-2.07812 -0.468751,-0.50782 -1.027344,-0.76563 -1.671876,-0.76563 -0.679687,0 -1.273437,0.27734 -1.781249,0.82813 -0.5,0.55468 -0.75,1.26562 -0.75,2.14062 0,0.79297 0.238281,1.4375 0.718749,1.9375 0.476563,0.49219 1.066407,0.73438 1.765625,0.73438 0.707031,0 1.285157,-0.24219 1.734375,-0.73438 0.457032,-0.5 0.6875,-1.1875 0.6875,-2.0625 z m 3.167969,2.21875 c 0,-1.45703 0.148438,-2.63281 0.453125,-3.53125 0.300782,-0.89453 0.75,-1.58203 1.34375,-2.0625 0.59375,-0.48828 1.34375,-0.73437 2.25,-0.73437 0.664063,0 1.25,0.13671 1.75,0.40625 0.5,0.26171 0.910156,0.64843 1.234376,1.15625 0.332031,0.5 0.593749,1.11718 0.781249,1.84375 0.1875,0.71875 0.281251,1.69531 0.281251,2.92187 0,1.46094 -0.152344,2.63672 -0.453126,3.53125 -0.304687,0.89844 -0.75,1.58984 -1.34375,2.07813 -0.59375,0.49218 -1.34375,0.73437 -2.25,0.73437 -1.199219,0 -2.136719,-0.42969 -2.8125,-1.29687 -0.824219,-1.03125 -1.234375,-2.71094 -1.234375,-5.04688 z m 1.5625,0 c 0,2.04297 0.238282,3.40234 0.718751,4.07813 0.476562,0.66796 1.066405,1 1.765624,1 0.695312,0 1.285156,-0.33594 1.765625,-1.01563 0.476563,-0.67578 0.718751,-2.03125 0.718751,-4.0625 0,-2.03906 -0.242188,-3.39453 -0.718751,-4.0625 -0.480469,-0.66406 -1.074218,-1 -1.781249,-1 -0.69922,0 -1.257813,0.29297 -1.671876,0.875 -0.53125,0.76172 -0.796875,2.15625 -0.796875,4.1875 z m 0,0"
       style="fill:#262626;fill-opacity:1;fill-rule:nonzero;stroke:none;stroke-width:0.8"
       aria-label="290" />
    <path
       id="path53"
       d="m 39.632066,245.05786 1.515625,-0.20312 c 0.175781,0.86719 0.472656,1.49219 0.890625,1.875 0.425781,0.375 0.9375,0.5625 1.53125,0.5625 0.71875,0 1.320312,-0.24219 1.8125,-0.73438 0.5,-0.5 0.75,-1.11328 0.75,-1.84375 0,-0.69531 -0.230469,-1.27343 -0.6875,-1.73437 -0.460938,-0.45703 -1.039063,-0.6875 -1.734375,-0.6875 -0.292969,0 -0.652344,0.0586 -1.078125,0.17187 l 0.171875,-1.32812 c 0.09375,0.0117 0.171875,0.0156 0.234375,0.0156 0.65625,0 1.238281,-0.16406 1.75,-0.5 0.519531,-0.34375 0.78125,-0.86718 0.78125,-1.57812 0,-0.5625 -0.1875,-1.02344 -0.5625,-1.39063 -0.375,-0.36328 -0.867188,-0.54687 -1.46875,-0.54687 -0.59375,0 -1.089844,0.1875 -1.484375,0.5625 -0.386719,0.375 -0.636719,0.93359 -0.75,1.67187 l -1.53125,-0.26562 c 0.1875,-1.01953 0.609375,-1.8125 1.265625,-2.375 0.664062,-0.5625 1.488281,-0.84375 2.46875,-0.84375 0.675781,0 1.296875,0.14844 1.859375,0.4375 0.570312,0.29297 1.007812,0.6875 1.3125,1.1875 0.300781,0.5 0.453124,1.03125 0.453124,1.59375 0,0.54297 -0.148436,1.03125 -0.437499,1.46875 -0.28125,0.4375 -0.703125,0.78906 -1.265625,1.04687 0.726562,0.16797 1.296875,0.52344 1.703124,1.0625 0.406251,0.53125 0.609376,1.19922 0.609376,2 0,1.07422 -0.398438,1.99219 -1.1875,2.75 -0.78125,0.75001 -1.777344,1.12501 -2.984375,1.12501 -1.09375,0 -2,-0.32032 -2.71875,-0.96875 -0.71875,-0.64454 -1.125,-1.48829 -1.21875,-2.53126 z m 9.621094,-2.84375 c 0,-1.45703 0.148437,-2.63281 0.453125,-3.53125 0.30078,-0.89453 0.75,-1.58203 1.343749,-2.0625 0.593751,-0.48828 1.343751,-0.73437 2.25,-0.73437 0.664063,0 1.25,0.13672 1.75,0.40625 0.5,0.26172 0.910157,0.64844 1.234375,1.15625 0.332032,0.5 0.593751,1.11719 0.781251,1.84375 0.1875,0.71875 0.281249,1.69531 0.281249,2.92187 0,1.46094 -0.152344,2.63672 -0.453124,3.53125 -0.304688,0.89844 -0.75,1.58985 -1.343751,2.07813 -0.593749,0.49219 -1.343749,0.73438 -2.25,0.73438 -1.199218,0 -2.136718,-0.42969 -2.8125,-1.29688 -0.824218,-1.03125 -1.234374,-2.71094 -1.234374,-5.04688 z m 1.5625,0 c 0,2.04297 0.238281,3.40235 0.718749,4.07813 0.476563,0.66797 1.066407,1 1.765625,1 0.695313,0 1.285157,-0.33594 1.765626,-1.01563 0.476562,-0.67578 0.718749,-2.03125 0.718749,-4.0625 0,-2.03906 -0.242187,-3.39453 -0.718749,-4.06249 -0.480469,-0.66407 -1.074219,-1 -1.781251,-1 -0.699218,0 -1.257812,0.29296 -1.671875,0.875 -0.531249,0.76171 -0.796874,2.15624 -0.796874,4.18749 z m 8.074218,0 c 0,-1.45703 0.148438,-2.63281 0.453125,-3.53125 0.300782,-0.89453 0.75,-1.58203 1.34375,-2.0625 0.59375,-0.48828 1.34375,-0.73437 2.25,-0.73437 0.664063,0 1.25,0.13672 1.75,0.40625 0.5,0.26172 0.910156,0.64844 1.234376,1.15625 0.332031,0.5 0.593749,1.11719 0.781249,1.84375 0.1875,0.71875 0.281251,1.69531 0.281251,2.92187 0,1.46094 -0.152344,2.63672 -0.453126,3.53125 -0.304687,0.89844 -0.75,1.58985 -1.34375,2.07813 -0.59375,0.49219 -1.34375,0.73438 -2.25,0.73438 -1.199219,0 -2.136719,-0.42969 -2.8125,-1.29688 -0.824219,-1.03125 -1.234375,-2.71094 -1.234375,-5.04688 z m 1.5625,0 c 0,2.04297 0.238282,3.40235 0.718751,4.07813 0.476562,0.66797 1.066405,1 1.765624,1 0.695312,0 1.285156,-0.33594 1.765625,-1.01563 0.476563,-0.67578 0.718751,-2.03125 0.718751,-4.0625 0,-2.03906 -0.242188,-3.39453 -0.718751,-4.06249 -0.480469,-0.66407 -1.074218,-1 -1.781249,-1 -0.69922,0 -1.257813,0.29296 -1.671876,0.875 -0.53125,0.76171 -0.796875,2.15624 -0.796875,4.18749 z m 0,0"
       style="fill:#262626;fill-opacity:1;fill-rule:nonzero;stroke:none;stroke-width:0.8"
       aria-label="300" />
    <path
       id="path54"
       d="m 39.632066,192.99537 1.515625,-0.20313 c 0.175781,0.86719 0.472656,1.49219 0.890625,1.875 0.425781,0.375 0.9375,0.5625 1.53125,0.5625 0.71875,0 1.320312,-0.24218 1.8125,-0.73437 0.5,-0.5 0.75,-1.11328 0.75,-1.84375 0,-0.69531 -0.230469,-1.27344 -0.6875,-1.73438 -0.460938,-0.45703 -1.039063,-0.6875 -1.734375,-0.6875 -0.292969,0 -0.652344,0.0586 -1.078125,0.17188 l 0.171875,-1.32813 c 0.09375,0.0117 0.171875,0.0156 0.234375,0.0156 0.65625,0 1.238281,-0.16406 1.75,-0.5 0.519531,-0.34375 0.78125,-0.86719 0.78125,-1.57813 0,-0.5625 -0.1875,-1.02343 -0.5625,-1.39062 -0.375,-0.36328 -0.867188,-0.54688 -1.46875,-0.54688 -0.59375,0 -1.089844,0.1875 -1.484375,0.5625 -0.386719,0.375 -0.636719,0.9336 -0.75,1.67188 l -1.53125,-0.26563 c 0.1875,-1.01953 0.609375,-1.8125 1.265625,-2.375 0.664062,-0.5625 1.488281,-0.84375 2.46875,-0.84375 0.675781,0 1.296875,0.14844 1.859375,0.4375 0.570312,0.29297 1.007812,0.6875 1.3125,1.1875 0.300781,0.5 0.453124,1.03125 0.453124,1.59375 0,0.54297 -0.148436,1.03125 -0.437499,1.46875 -0.28125,0.4375 -0.703125,0.78907 -1.265625,1.04688 0.726562,0.16797 1.296875,0.52344 1.703124,1.0625 0.406251,0.53125 0.609376,1.19922 0.609376,2 0,1.07422 -0.398438,1.99219 -1.1875,2.75 -0.78125,0.75 -1.777344,1.125 -2.984375,1.125 -1.09375,0 -2,-0.32031 -2.71875,-0.96875 -0.71875,-0.64453 -1.125,-1.48828 -1.21875,-2.53125 z m 15.355468,3.28125 h -1.515625 v -9.70313 c -0.375,0.34375 -0.859375,0.69532 -1.453124,1.04688 -0.593751,0.35547 -1.125,0.61719 -1.593751,0.78125 v -1.46875 c 0.851563,-0.39453 1.597657,-0.87891 2.234375,-1.45313 0.632813,-0.57031 1.082032,-1.125 1.343751,-1.65625 h 0.984374 z m 3.902344,-6.125 c 0,-1.45703 0.148438,-2.63281 0.453125,-3.53125 0.300782,-0.89453 0.75,-1.58203 1.34375,-2.0625 0.59375,-0.48828 1.34375,-0.73438 2.25,-0.73438 0.664063,0 1.25,0.13672 1.75,0.40625 0.5,0.26172 0.910156,0.64844 1.234376,1.15625 0.332031,0.5 0.593749,1.11719 0.781249,1.84375 0.1875,0.71875 0.281251,1.69532 0.281251,2.92188 0,1.46094 -0.152344,2.63672 -0.453126,3.53125 -0.304687,0.89844 -0.75,1.58984 -1.34375,2.07812 -0.59375,0.49219 -1.34375,0.73438 -2.25,0.73438 -1.199219,0 -2.136719,-0.42969 -2.8125,-1.29688 -0.824219,-1.03125 -1.234375,-2.71093 -1.234375,-5.04687 z m 1.5625,0 c 0,2.04297 0.238282,3.40234 0.718751,4.07812 0.476562,0.66797 1.066405,1 1.765624,1 0.695312,0 1.285156,-0.33593 1.765625,-1.01562 0.476563,-0.67578 0.718751,-2.03125 0.718751,-4.0625 0,-2.03906 -0.242188,-3.39453 -0.718751,-4.0625 -0.480469,-0.66406 -1.074218,-1 -1.781249,-1 -0.69922,0 -1.257813,0.29297 -1.671876,0.875 -0.53125,0.76172 -0.796875,2.15625 -0.796875,4.1875 z m 0,0"
       style="fill:#262626;fill-opacity:1;fill-rule:nonzero;stroke:none;stroke-width:0.8"
       aria-label="310" />
    <path
       id="path55"
       d="m 39.632066,140.93287 1.515625,-0.20313 c 0.175781,0.86719 0.472656,1.49219 0.890625,1.875 0.425781,0.375 0.9375,0.5625 1.53125,0.5625 0.71875,0 1.320312,-0.24219 1.8125,-0.73437 0.5,-0.5 0.75,-1.11328 0.75,-1.84375 0,-0.69532 -0.230469,-1.27344 -0.6875,-1.73438 -0.460938,-0.45703 -1.039063,-0.6875 -1.734375,-0.6875 -0.292969,0 -0.652344,0.0586 -1.078125,0.17188 l 0.171875,-1.32813 c 0.09375,0.0117 0.171875,0.0156 0.234375,0.0156 0.65625,0 1.238281,-0.16407 1.75,-0.5 0.519531,-0.34375 0.78125,-0.86719 0.78125,-1.57813 0,-0.5625 -0.1875,-1.02344 -0.5625,-1.39062 -0.375,-0.36328 -0.867188,-0.54688 -1.46875,-0.54688 -0.59375,0 -1.089844,0.1875 -1.484375,0.5625 -0.386719,0.375 -0.636719,0.9336 -0.75,1.67188 l -1.53125,-0.26563 c 0.1875,-1.01953 0.609375,-1.8125 1.265625,-2.375 0.664062,-0.5625 1.488281,-0.84375 2.46875,-0.84375 0.675781,0 1.296875,0.14844 1.859375,0.4375 0.570312,0.29297 1.007812,0.6875 1.3125,1.1875 0.300781,0.5 0.453124,1.03125 0.453124,1.59375 0,0.54297 -0.148436,1.03125 -0.437499,1.46875 -0.28125,0.4375 -0.703125,0.78906 -1.265625,1.04688 0.726562,0.16796 1.296875,0.52343 1.703124,1.0625 0.406251,0.53125 0.609376,1.19921 0.609376,2 0,1.07421 -0.398438,1.99218 -1.1875,2.75 -0.78125,0.75 -1.777344,1.125 -2.984375,1.125 -1.09375,0 -2,-0.32032 -2.71875,-0.96875 -0.71875,-0.64453 -1.125,-1.48828 -1.21875,-2.53125 z m 17.621094,1.8125 v 1.46875 h -8.1875 c -0.02344,-0.36328 0.03516,-0.71875 0.171874,-1.0625 0.207031,-0.55078 0.539063,-1.09766 1,-1.64063 0.457031,-0.53906 1.125,-1.16406 2,-1.875 1.343751,-1.11328 2.25,-1.99219 2.718751,-2.64062 0.476562,-0.64453 0.718749,-1.25391 0.718749,-1.82813 0,-0.60156 -0.218749,-1.10937 -0.656249,-1.51562 -0.429688,-0.41407 -0.984376,-0.625 -1.671876,-0.625 -0.742187,0 -1.328124,0.21875 -1.765624,0.65625 -0.4375,0.4375 -0.664063,1.04687 -0.671876,1.82812 l -1.5625,-0.15625 c 0.101563,-1.17578 0.503907,-2.06641 1.203125,-2.67187 0.707031,-0.61328 1.648438,-0.92188 2.828126,-0.92188 1.1875,0 2.125,0.33594 2.8125,1 0.695312,0.65625 1.046874,1.46875 1.046874,2.4375 0,0.5 -0.105469,0.99219 -0.3125,1.46875 -0.199218,0.48047 -0.531249,0.98438 -1,1.51563 -0.468749,0.53125 -1.25,1.26172 -2.343749,2.1875 -0.917969,0.76172 -1.507813,1.28125 -1.765625,1.5625 -0.261719,0.27343 -0.476563,0.54297 -0.640626,0.8125 z m 1.636718,-4.65625 c 0,-1.45703 0.148438,-2.63282 0.453125,-3.53125 0.300782,-0.89454 0.75,-1.58204 1.34375,-2.0625 0.59375,-0.48828 1.34375,-0.73438 2.25,-0.73438 0.664063,0 1.25,0.13672 1.75,0.40625 0.5,0.26172 0.910156,0.64844 1.234376,1.15625 0.332031,0.5 0.593749,1.11719 0.781249,1.84375 0.1875,0.71875 0.281251,1.69531 0.281251,2.92188 0,1.46093 -0.152344,2.63672 -0.453126,3.53125 -0.304687,0.89843 -0.75,1.58984 -1.34375,2.07812 -0.59375,0.49219 -1.34375,0.73438 -2.25,0.73438 -1.199219,0 -2.136719,-0.42969 -2.8125,-1.29688 -0.824219,-1.03125 -1.234375,-2.71094 -1.234375,-5.04687 z m 1.5625,0 c 0,2.04297 0.238282,3.40234 0.718751,4.07812 0.476562,0.66797 1.066405,1 1.765624,1 0.695312,0 1.285156,-0.33594 1.765625,-1.01562 0.476563,-0.67578 0.718751,-2.03125 0.718751,-4.0625 0,-2.03907 -0.242188,-3.39453 -0.718751,-4.0625 -0.480469,-0.66407 -1.074218,-1 -1.781249,-1 -0.69922,0 -1.257813,0.29297 -1.671876,0.875 -0.53125,0.76171 -0.796875,2.15625 -0.796875,4.1875 z m 0,0"
       style="fill:#262626;fill-opacity:1;fill-rule:nonzero;stroke:none;stroke-width:0.8"
       aria-label="320" />
    <path
       id="path56"
       d="m 39.632066,88.870362 1.515625,-0.203125 c 0.175781,0.867187 0.472656,1.492187 0.890625,1.875 0.425781,0.375 0.9375,0.5625 1.53125,0.5625 0.71875,0 1.320312,-0.242188 1.8125,-0.734375 0.5,-0.5 0.75,-1.113281 0.75,-1.84375 0,-0.695313 -0.230469,-1.273438 -0.6875,-1.734375 -0.460938,-0.457031 -1.039063,-0.6875 -1.734375,-0.6875 -0.292969,0 -0.652344,0.05859 -1.078125,0.171875 l 0.171875,-1.328125 c 0.09375,0.01172 0.171875,0.01563 0.234375,0.01563 0.65625,0 1.238281,-0.164063 1.75,-0.5 0.519531,-0.34375 0.78125,-0.867187 0.78125,-1.578125 0,-0.5625 -0.1875,-1.023438 -0.5625,-1.390625 -0.375,-0.363281 -0.867188,-0.546875 -1.46875,-0.546875 -0.59375,0 -1.089844,0.1875 -1.484375,0.5625 -0.386719,0.375 -0.636719,0.933594 -0.75,1.671875 l -1.53125,-0.265625 c 0.1875,-1.019531 0.609375,-1.8125 1.265625,-2.375 0.664062,-0.5625 1.488281,-0.84375 2.46875,-0.84375 0.675781,0 1.296875,0.148438 1.859375,0.4375 0.570312,0.292969 1.007812,0.6875 1.3125,1.1875 0.300781,0.5 0.453124,1.03125 0.453124,1.59375 0,0.542969 -0.148436,1.03125 -0.437499,1.46875 -0.28125,0.4375 -0.703125,0.789062 -1.265625,1.046875 0.726562,0.167969 1.296875,0.523437 1.703124,1.0625 0.406251,0.53125 0.609376,1.199219 0.609376,2 0,1.074219 -0.398438,1.992187 -1.1875,2.75 -0.78125,0.75 -1.777344,1.125 -2.984375,1.125 -1.09375,0 -2,-0.320313 -2.71875,-0.96875 -0.71875,-0.644531 -1.125,-1.488281 -1.21875,-2.53125 z m 9.636719,0 1.515624,-0.203125 c 0.175782,0.867187 0.472656,1.492187 0.890625,1.875 0.425782,0.375 0.9375,0.5625 1.531251,0.5625 0.718749,0 1.320312,-0.242188 1.8125,-0.734375 0.5,-0.5 0.75,-1.113281 0.75,-1.84375 0,-0.695313 -0.230469,-1.273438 -0.6875,-1.734375 -0.460938,-0.457031 -1.039063,-0.6875 -1.734376,-0.6875 -0.292968,0 -0.652344,0.05859 -1.078124,0.171875 l 0.171875,-1.328125 c 0.09375,0.01172 0.171874,0.01563 0.234374,0.01563 0.656251,0 1.238282,-0.164063 1.75,-0.5 0.519531,-0.34375 0.781251,-0.867187 0.781251,-1.578125 0,-0.5625 -0.1875,-1.023438 -0.5625,-1.390625 -0.375,-0.363281 -0.867188,-0.546875 -1.468751,-0.546875 -0.593749,0 -1.089843,0.1875 -1.484374,0.5625 -0.386719,0.375 -0.636719,0.933594 -0.75,1.671875 l -1.531251,-0.265625 c 0.1875,-1.019531 0.609376,-1.8125 1.265625,-2.375 0.664063,-0.5625 1.488282,-0.84375 2.468751,-0.84375 0.67578,0 1.296875,0.148438 1.859375,0.4375 0.570312,0.292969 1.007812,0.6875 1.3125,1.1875 0.300781,0.5 0.453125,1.03125 0.453125,1.59375 0,0.542969 -0.148438,1.03125 -0.4375,1.46875 -0.281251,0.4375 -0.703125,0.789062 -1.265625,1.046875 0.726562,0.167969 1.296874,0.523437 1.703125,1.0625 0.406249,0.53125 0.609375,1.199219 0.609375,2 0,1.074219 -0.398438,1.992187 -1.1875,2.75 -0.781251,0.75 -1.777344,1.125 -2.984375,1.125 -1.093751,0 -2,-0.320313 -2.718751,-0.96875 -0.718749,-0.644531 -1.125,-1.488281 -1.218749,-2.53125 z m 9.621093,-2.84375 c 0,-1.457031 0.148438,-2.632812 0.453125,-3.53125 0.300782,-0.894531 0.75,-1.582031 1.34375,-2.0625 0.59375,-0.488281 1.34375,-0.734375 2.25,-0.734375 0.664063,0 1.25,0.136719 1.75,0.40625 0.5,0.261719 0.910156,0.648437 1.234376,1.15625 0.332031,0.5 0.593749,1.117187 0.781249,1.84375 0.1875,0.71875 0.281251,1.695312 0.281251,2.921875 0,1.460937 -0.152344,2.636719 -0.453126,3.53125 -0.304687,0.898437 -0.75,1.589844 -1.34375,2.078125 -0.59375,0.492187 -1.34375,0.734375 -2.25,0.734375 -1.199219,0 -2.136719,-0.429688 -2.8125,-1.296875 -0.824219,-1.03125 -1.234375,-2.710938 -1.234375,-5.046875 z m 1.5625,0 c 0,2.042969 0.238282,3.402344 0.718751,4.078125 0.476562,0.667969 1.066405,1 1.765624,1 0.695312,0 1.285156,-0.335938 1.765625,-1.015625 0.476563,-0.675781 0.718751,-2.03125 0.718751,-4.0625 0,-2.039063 -0.242188,-3.394531 -0.718751,-4.0625 -0.480469,-0.664063 -1.074218,-1 -1.781249,-1 -0.69922,0 -1.257813,0.292969 -1.671876,0.875 -0.53125,0.761719 -0.796875,2.15625 -0.796875,4.1875 z m 0,0"
       style="fill:#262626;fill-opacity:1;fill-rule:nonzero;stroke:none;stroke-width:0.8"
       aria-label="330" />
    <path
       id="path57"
       d="m 39.632066,36.811774 1.515625,-0.203125 c 0.175781,0.867187 0.472656,1.492187 0.890625,1.875 0.425781,0.375 0.9375,0.5625 1.53125,0.5625 0.71875,0 1.320312,-0.242188 1.8125,-0.734375 0.5,-0.5 0.75,-1.113281 0.75,-1.84375 0,-0.695313 -0.230469,-1.273438 -0.6875,-1.734375 -0.460938,-0.457031 -1.039063,-0.6875 -1.734375,-0.6875 -0.292969,0 -0.652344,0.05859 -1.078125,0.171875 l 0.171875,-1.328125 c 0.09375,0.01172 0.171875,0.01563 0.234375,0.01563 0.65625,0 1.238281,-0.164063 1.75,-0.5 0.519531,-0.34375 0.78125,-0.867188 0.78125,-1.578125 0,-0.5625 -0.1875,-1.023437 -0.5625,-1.390625 -0.375,-0.363281 -0.867188,-0.546875 -1.46875,-0.546875 -0.59375,0 -1.089844,0.1875 -1.484375,0.5625 -0.386719,0.375 -0.636719,0.933594 -0.75,1.671875 l -1.53125,-0.265625 c 0.1875,-1.019531 0.609375,-1.8125 1.265625,-2.375 0.664062,-0.5625 1.488281,-0.84375 2.46875,-0.84375 0.675781,0 1.296875,0.148437 1.859375,0.4375 0.570312,0.292968 1.007812,0.6875 1.3125,1.1875 0.300781,0.5 0.453124,1.03125 0.453124,1.59375 0,0.542969 -0.148436,1.03125 -0.437499,1.46875 -0.28125,0.4375 -0.703125,0.789062 -1.265625,1.046875 0.726562,0.167968 1.296875,0.523437 1.703124,1.0625 0.406251,0.53125 0.609376,1.199218 0.609376,2 0,1.074218 -0.398438,1.992187 -1.1875,2.75 -0.78125,0.75 -1.777344,1.125 -2.984375,1.125 -1.09375,0 -2,-0.320313 -2.71875,-0.96875 -0.71875,-0.644531 -1.125,-1.488281 -1.21875,-2.53125 z m 14.496094,3.28125 v -2.96875 h -5.375 v -1.390625 l 5.656249,-8.046875 h 1.25 v 8.046875 h 1.671876 v 1.390625 h -1.671876 v 2.96875 z m 0,-4.359375 v -5.59375 l -3.875,5.59375 z m 4.761718,-1.765625 c 0,-1.457031 0.148438,-2.632813 0.453125,-3.53125 0.300782,-0.894531 0.75,-1.582031 1.34375,-2.0625 0.59375,-0.488281 1.34375,-0.734375 2.25,-0.734375 0.664063,0 1.25,0.136719 1.75,0.40625 0.5,0.261718 0.910156,0.648438 1.234376,1.15625 0.332031,0.5 0.593749,1.117188 0.781249,1.84375 0.1875,0.71875 0.281251,1.695312 0.281251,2.921875 0,1.460937 -0.152344,2.636719 -0.453126,3.53125 -0.304687,0.898437 -0.75,1.589844 -1.34375,2.078125 -0.59375,0.492187 -1.34375,0.734375 -2.25,0.734375 -1.199219,0 -2.136719,-0.429688 -2.8125,-1.296875 -0.824219,-1.03125 -1.234375,-2.710938 -1.234375,-5.046875 z m 1.5625,0 c 0,2.042969 0.238282,3.402344 0.718751,4.078125 0.476562,0.667969 1.066405,1 1.765624,1 0.695312,0 1.285156,-0.335938 1.765625,-1.015625 0.476563,-0.675781 0.718751,-2.03125 0.718751,-4.0625 0,-2.039062 -0.242188,-3.394531 -0.718751,-4.0625 -0.480469,-0.664062 -1.074218,-1 -1.781249,-1 -0.69922,0 -1.257813,0.292969 -1.671876,0.875 -0.53125,0.761719 -0.796875,2.15625 -0.796875,4.1875 z m 0,0"
       style="fill:#262626;fill-opacity:1;fill-rule:nonzero;stroke:none;stroke-width:0.8"
       aria-label="340" />
    <path
       id="path58"
       d="M 26.866439,241.74927 H 14.444564 v -1.39062 h 1.171875 c -0.457031,-0.32031 -0.80078,-0.6875 -1.031249,-1.09375 -0.226563,-0.41406 -0.343751,-0.92188 -0.343751,-1.51563 0,-0.75781 0.199219,-1.42968 0.593751,-2.01562 0.398437,-0.59375 0.953124,-1.03516 1.671875,-1.32813 0.71875,-0.30078 1.507812,-0.45312 2.359374,-0.45312 0.917969,0 1.746094,0.16797 2.484376,0.5 0.742187,0.32422 1.308593,0.80469 1.703124,1.4375 0.382813,0.625 0.578125,1.28125 0.578125,1.96875 0,0.51172 -0.105468,0.96875 -0.3125,1.375 -0.21875,0.40625 -0.492187,0.73437 -0.828125,0.98437 h 4.375 z m -7.875,-1.375 c 1.15625,0 2.011719,-0.23437 2.5625,-0.70312 0.554688,-0.46875 0.828125,-1.03516 0.828126,-1.70313 -1e-6,-0.67578 -0.285157,-1.2539 -0.859376,-1.73437 -0.570312,-0.48828 -1.457031,-0.73438 -2.65625,-0.73438 -1.144531,0 -2.003906,0.24219 -2.578124,0.71875 -0.570313,0.46875 -0.859376,1.03125 -0.859376,1.6875 0,0.64844 0.308594,1.21875 0.921876,1.71875 0.605468,0.5 1.484374,0.75 2.640624,0.75 z m 0,0"
       style="fill:#262626;fill-opacity:1;fill-rule:nonzero;stroke:none;stroke-width:0.8"
       aria-label="p" />
    <path
       id="path59"
       d="m 27.83519,232.03834 c -1.332032,0 -2.316407,-0.36719 -2.953126,-1.10938 -0.53125,-0.625 -0.796875,-1.3789 -0.796874,-2.26562 -1e-6,-0.98828 0.324218,-1.79688 0.968749,-2.42188 0.648438,-0.625 1.542969,-0.9375 2.6875,-0.9375 0.917969,0 1.640625,0.14063 2.171876,0.42188 0.531249,0.27343 0.945312,0.67187 1.234374,1.20312 0.289063,0.53125 0.4375,1.10938 0.4375,1.73438 0,1 -0.316406,1.8125 -0.953125,2.4375 -0.644531,0.625 -1.578124,0.9375 -2.796874,0.9375 z m -1e-6,-1.26563 c 0.917969,0 1.605469,-0.19531 2.062501,-0.59375 0.460937,-0.40625 0.687499,-0.91015 0.6875,-1.51562 -1e-6,-0.60157 -0.226563,-1.10157 -0.687501,-1.5 -0.457031,-0.40625 -1.160156,-0.60938 -2.109375,-0.60938 -0.882812,0 -1.554687,0.20313 -2.015625,0.60938 -0.457031,0.39843 -0.6875,0.89843 -0.687499,1.5 -1e-6,0.60547 0.230468,1.10937 0.6875,1.51562 0.460937,0.39844 1.148437,0.59375 2.062499,0.59375 z m 6.34375,-6.89844 h -9.9375 l 1e-6,-1.10937 h 0.9375 c -0.363282,-0.26953 -0.632813,-0.56641 -0.812501,-0.89063 -0.1875,-0.33203 -0.281249,-0.73437 -0.28125,-1.20312 0,-0.61328 0.156251,-1.15625 0.46875,-1.625 0.3125,-0.46875 0.761719,-0.82031 1.34375,-1.0625 0.574219,-0.23828 1.203125,-0.35938 1.890625,-0.35938 0.730469,0 1.390625,0.13672 1.984375,0.40625 0.585938,0.26172 1.03125,0.64063 1.34375,1.14063 0.3125,0.5 0.46875,1.03125 0.46875,1.59375 0,0.40625 -0.08594,0.77344 -0.25,1.09375 -0.175781,0.32422 -0.394531,0.58984 -0.65625,0.79687 h 3.5 z m -6.296875,-1.10937 c 0.917969,0 1.601563,-0.1875 2.046875,-0.5625 0.4375,-0.375 0.656251,-0.82813 0.65625,-1.35938 0,-0.53906 -0.226562,-1.0039 -0.687499,-1.39062 -0.457032,-0.38281 -1.164063,-0.57813 -2.125001,-0.57813 -0.914062,0 -1.597656,0.1875 -2.046875,0.5625 -0.457031,0.375 -0.687499,0.82422 -0.6875,1.34375 0,0.52344 0.246094,0.98438 0.734375,1.39063 0.480469,0.39844 1.183594,0.59375 2.109375,0.59375 z m 1.234375,-11.51953 0.156251,-1.26563 c 0.730468,0.19922 1.296874,0.57032 1.703124,1.10938 0.40625,0.53125 0.609375,1.21484 0.609375,2.04687 0,1.05469 -0.320312,1.89063 -0.968749,2.51563 -0.644532,0.61718 -1.550782,0.92187 -2.718751,0.92187 -1.207031,0 -2.144531,-0.3125 -2.812499,-0.9375 -0.664063,-0.625 -1.000001,-1.42968 -1.000001,-2.42187 1e-6,-0.96875 0.328125,-1.75391 0.984376,-2.35938 0.648437,-0.60156 1.562499,-0.90625 2.749999,-0.90625 0.07422,0 0.183594,0 0.328126,0 l -1e-6,5.35938 c 0.792969,-0.0391 1.398438,-0.25781 1.8125,-0.65625 0.417969,-0.40625 0.625001,-0.91016 0.625,-1.51563 0,-0.44531 -0.113281,-0.82812 -0.343749,-1.14062 -0.238282,-0.32031 -0.613282,-0.57031 -1.125001,-0.75 z m -1.96875,4 v -4.01563 c -0.601562,0.0547 -1.054687,0.20313 -1.359375,0.45313 -0.46875,0.38672 -0.703125,0.89062 -0.703125,1.51562 1e-6,0.5625 0.1875,1.03906 0.5625,1.42188 0.375,0.375 0.875,0.58594 1.5,0.625 z m 4.28125,-6.78907 -7.187499,1e-5 -1e-6,-1.10938 h 1.015626 c -0.781251,-0.51953 -1.171876,-1.28125 -1.171876,-2.28125 1e-6,-0.4375 0.07813,-0.83203 0.234376,-1.1875 0.15625,-0.36328 0.359374,-0.63281 0.609375,-0.8125 0.25,-0.1875 0.546874,-0.31641 0.890624,-0.39063 0.230469,-0.0391 0.625,-0.0625 1.1875,-0.0625 h 4.421875 v 1.21875 h -4.375 c -0.488281,0 -0.859374,0.0469 -1.109374,0.14062 -0.250001,0.0937 -0.445313,0.26172 -0.593751,0.5 -0.144531,0.24219 -0.21875,0.52344 -0.21875,0.84375 1e-6,0.52344 0.167969,0.97657 0.5,1.35938 0.324219,0.375 0.949219,0.5625 1.875001,0.5625 h 3.921874 z m 0,0"
       style="fill:#262626;fill-opacity:1;fill-rule:nonzero;stroke:none;stroke-width:0.8"
       aria-label="open" />
    <path
       id="path60"
       d="M 26.86644,195.30006 H 11.02269 v -3.35938 h 1.265624 l 1e-6,1.82813 H 25.61644 v -1.82813 h 1.25 z m -3.4375,-6.19141 v 1.40625 H 11.02269 v -1.51563 h 4.421875 c -0.800782,-0.64453 -1.203125,-1.46875 -1.203125,-2.46875 0,-0.55078 0.117187,-1.07031 0.343749,-1.5625 0.218751,-0.48828 0.531251,-0.89453 0.937501,-1.21875 0.398437,-0.32031 0.882812,-0.57031 1.453125,-0.75 0.574218,-0.17578 1.183593,-0.26562 1.828125,-0.26562 1.542968,0 2.734375,0.38281 3.578125,1.14062 0.835937,0.76172 1.25,1.67188 1.25,2.73438 0,1.0625 -0.441407,1.89844 -1.328125,2.5 z m -4.5625,0.0156 c 1.085937,0 1.867187,-0.14453 2.34375,-0.4375 0.78125,-0.47656 1.171875,-1.1289 1.171875,-1.95312 0,-0.66406 -0.285157,-1.23828 -0.859375,-1.71875 -0.582032,-0.48828 -1.445313,-0.73438 -2.59375,-0.73438 -1.175782,0 -2.039063,0.23438 -2.59375,0.70313 -0.5625,0.46875 -0.84375,1.03125 -0.84375,1.6875 0,0.66797 0.292968,1.24609 0.875,1.73437 0.574218,0.48047 1.40625,0.71875 2.5,0.71875 z m 3.453125,-14.10937 c 0.480468,0.5625 0.820312,1.10547 1.015625,1.625 0.195312,0.52344 0.296875,1.07812 0.296875,1.67187 0,0.99219 -0.238282,1.75 -0.71875,2.28125 -0.488282,0.53125 -1.109375,0.79688 -1.859375,0.79688 -0.4375,0 -0.835938,-0.0977 -1.203125,-0.29688 -0.363282,-0.20703 -0.65625,-0.47265 -0.875,-0.79687 -0.21875,-0.32031 -0.382813,-0.6875 -0.5,-1.09375 -0.07031,-0.28906 -0.144532,-0.73828 -0.21875,-1.34375 -0.144532,-1.22656 -0.320313,-2.13281 -0.53125,-2.71875 -0.207032,-0.008 -0.335938,-0.0156 -0.390625,-0.0156 -0.625,0 -1.0625,0.14843 -1.3125,0.4375 -0.34375,0.38671 -0.515625,0.96484 -0.515625,1.73437 0,0.71875 0.125,1.25 0.375,1.59375 0.25,0.33594 0.695312,0.58594 1.328125,0.75 l -0.203125,1.48438 c -0.632813,-0.13282 -1.144532,-0.35157 -1.53125,-0.65625 -0.394531,-0.3125 -0.695313,-0.75782 -0.90625,-1.34375 -0.21875,-0.59375 -0.328126,-1.27344 -0.328126,-2.04688 0,-0.76953 0.09375,-1.39453 0.281251,-1.875 0.179687,-0.47656 0.402344,-0.82812 0.671875,-1.04687 0.273437,-0.22657 0.617187,-0.39063 1.03125,-0.48438 0.261718,-0.0508 0.730468,-0.0781 1.40625,-0.0781 h 2.03125 c 1.417968,0 2.3125,-0.0312 2.6875,-0.0937 0.375,-0.0625 0.734375,-0.1914 1.078125,-0.39062 v 1.59375 c -0.3125,0.15625 -0.679688,0.26172 -1.109375,0.3125 z m -3.40625,0.125 c 0.230468,0.55469 0.421875,1.38281 0.578125,2.48437 0.09375,0.625 0.199218,1.07032 0.3125,1.32813 0.117187,0.26172 0.28125,0.46484 0.5,0.60937 0.210937,0.13672 0.449218,0.20313 0.71875,0.20313 0.40625,0 0.746093,-0.14844 1.015625,-0.45313 0.273437,-0.3125 0.40625,-0.76562 0.40625,-1.35937 0,-0.58203 -0.128907,-1.10156 -0.390625,-1.5625 -0.257813,-0.45703 -0.609375,-0.79688 -1.046875,-1.01563 -0.34375,-0.15624 -0.851563,-0.23437 -1.53125,-0.23437 z m 4.515625,-3.88672 h -8.984375 v -1.375 h 1.359375 c -0.632813,-0.34375 -1.050782,-0.66016 -1.25,-0.95312 -0.207031,-0.30079 -0.3125,-0.62891 -0.3125,-0.98438 0,-0.51953 0.164062,-1.03906 0.484375,-1.5625 l 1.421875,0.51563 c -0.21875,0.375 -0.328125,0.75 -0.328125,1.125 0,0.33593 0.101562,0.63281 0.296875,0.89062 0.199218,0.26172 0.476562,0.44922 0.828125,0.5625 0.542968,0.17969 1.136718,0.26563 1.78125,0.26563 h 4.703125 z m 3.4375,-8.33594 v 3.35938 h -1.25 v -1.84375 H 12.288315 v 1.84375 h -1.265626 l 1e-6,-3.35938 z m 0,0"
       style="fill:#262626;fill-opacity:1;fill-rule:nonzero;stroke:none;stroke-width:0.8"
       aria-label=" [bar]" />
    <path
       id="path61"
       d="m 127.89769,26.690678 v -12.40625 h 4.01563 c 1.51953,0 2.51562,0.0625 2.98437,0.1875 0.70703,0.1875 1.30078,0.59375 1.78125,1.21875 0.47656,0.625 0.71875,1.429688 0.71875,2.40625 0,0.761719 -0.14062,1.402344 -0.42187,1.921875 -0.27344,0.523438 -0.6211,0.933594 -1.04688,1.234375 -0.42969,0.292969 -0.85937,0.484375 -1.29687,0.578125 -0.60547,0.125 -1.47657,0.1875 -2.60938,0.1875 h -1.625 v 4.671875 z m 2.5,-10.3125 v 3.53125 h 1.375 c 0.97656,0 1.63281,-0.0625 1.96875,-0.1875 0.33203,-0.132812 0.59375,-0.335937 0.78125,-0.609375 0.19531,-0.28125 0.29688,-0.601562 0.29688,-0.96875 0,-0.457031 -0.13672,-0.832031 -0.40625,-1.125 -0.26172,-0.289062 -0.59375,-0.472656 -1,-0.546875 -0.30469,-0.0625 -0.90625,-0.09375 -1.8125,-0.09375 z m 9.04297,10.3125 v -12.40625 h 2.375 v 12.40625 z m 4.25781,-4.625 c 0,-0.78125 0.19141,-1.539062 0.57813,-2.28125 0.39453,-0.738281 0.94531,-1.300781 1.65625,-1.6875 0.71875,-0.394531 1.51953,-0.59375 2.40625,-0.59375 1.35156,0 2.46094,0.445313 3.32812,1.328125 0.875,0.875 1.3125,1.992188 1.3125,3.34375 0,1.355469 -0.44531,2.480469 -1.32812,3.375 -0.875,0.898438 -1.97656,1.34375 -3.29688,1.34375 -0.82422,0 -1.60937,-0.183594 -2.35937,-0.546875 -0.75,-0.375 -1.32422,-0.921875 -1.71875,-1.640625 -0.38672,-0.726562 -0.57813,-1.609375 -0.57813,-2.640625 z m 2.4375,0.125 c 0,0.898438 0.21094,1.585938 0.64063,2.0625 0.42578,0.46875 0.94531,0.703125 1.5625,0.703125 0.625,0 1.14453,-0.234375 1.5625,-0.703125 0.41406,-0.476562 0.625,-1.171875 0.625,-2.078125 0,-0.875 -0.21094,-1.546875 -0.625,-2.015625 -0.41797,-0.476562 -0.9375,-0.71875 -1.5625,-0.71875 -0.61719,0 -1.13672,0.242188 -1.5625,0.71875 -0.42969,0.46875 -0.64063,1.148438 -0.64063,2.03125 z m 12.82422,-4.484375 v 1.890625 h -1.625 v 3.625 c 0,0.730469 0.0156,1.15625 0.0469,1.28125 0.0312,0.125 0.0977,0.230469 0.20313,0.3125 0.11328,0.07422 0.2539,0.109375 0.42187,0.109375 0.21875,0 0.53516,-0.07813 0.95313,-0.234375 l 0.20312,1.84375 c -0.55468,0.238281 -1.17968,0.359375 -1.875,0.359375 -0.4375,0 -0.82812,-0.07422 -1.17187,-0.21875 -0.34375,-0.144531 -0.60156,-0.328125 -0.76563,-0.546875 -0.15625,-0.226562 -0.26172,-0.539062 -0.3125,-0.9375 -0.0547,-0.269531 -0.0781,-0.828125 -0.0781,-1.671875 v -3.921875 h -1.09375 v -1.890625 h 1.09375 v -1.78125 l 2.375,-1.390625 v 3.171875 z m 10.58985,0 v 1.890625 h -1.625 v 3.625 c 0,0.730469 0.0156,1.15625 0.0469,1.28125 0.0312,0.125 0.0976,0.230469 0.20312,0.3125 0.11328,0.07422 0.25391,0.109375 0.42188,0.109375 0.21875,0 0.53515,-0.07813 0.95312,-0.234375 l 0.20313,1.84375 c -0.55469,0.238281 -1.17969,0.359375 -1.875,0.359375 -0.4375,0 -0.82813,-0.07422 -1.17188,-0.21875 -0.34375,-0.144531 -0.60156,-0.328125 -0.76562,-0.546875 -0.15625,-0.226562 -0.26172,-0.539062 -0.3125,-0.9375 -0.0547,-0.269531 -0.0781,-0.828125 -0.0781,-1.671875 v -3.921875 h -1.09375 v -1.890625 h 1.09375 v -1.78125 l 2.375,-1.390625 v 3.171875 z m 1.10156,4.359375 c 0,-0.78125 0.1914,-1.539062 0.57812,-2.28125 0.39453,-0.738281 0.94532,-1.300781 1.65625,-1.6875 0.71875,-0.394531 1.51953,-0.59375 2.40625,-0.59375 1.35156,0 2.46094,0.445313 3.32813,1.328125 0.875,0.875 1.3125,1.992188 1.3125,3.34375 0,1.355469 -0.44531,2.480469 -1.32813,3.375 -0.875,0.898438 -1.97656,1.34375 -3.29687,1.34375 -0.82422,0 -1.60938,-0.183594 -2.35938,-0.546875 -0.75,-0.375 -1.32422,-0.921875 -1.71875,-1.640625 -0.38672,-0.726562 -0.57812,-1.609375 -0.57812,-2.640625 z m 2.4375,0.125 c 0,0.898438 0.21094,1.585938 0.64062,2.0625 0.42578,0.46875 0.94532,0.703125 1.5625,0.703125 0.625,0 1.14453,-0.234375 1.5625,-0.703125 0.41406,-0.476562 0.625,-1.171875 0.625,-2.078125 0,-0.875 -0.21094,-1.546875 -0.625,-2.015625 -0.41797,-0.476562 -0.9375,-0.71875 -1.5625,-0.71875 -0.61718,0 -1.13672,0.242188 -1.5625,0.71875 -0.42968,0.46875 -0.64062,1.148438 -0.64062,2.03125 z m 12.48828,-4.484375 h 1.3125 v -0.671875 c 0,-0.757813 0.0781,-1.320313 0.23437,-1.6875 0.16407,-0.375 0.46094,-0.675781 0.89063,-0.90625 0.4375,-0.238281 0.98828,-0.359375 1.65625,-0.359375 0.67578,0 1.33594,0.101563 1.98437,0.296875 l -0.32812,1.65625 c -0.375,-0.08203 -0.74219,-0.125 -1.09375,-0.125 -0.34375,0 -0.58985,0.07813 -0.73438,0.234375 -0.14843,0.15625 -0.21875,0.464844 -0.21875,0.921875 v 0.640625 h 1.76563 v 1.875 h -1.76563 v 7.109375 h -2.39062 v -7.109375 h -1.3125 z m 6.82031,-1.21875 v -2.203125 h 2.375 v 2.203125 z m 0,10.203125 v -8.984375 h 2.375 v 8.984375 z m 12.98828,0 h -2.375 v -4.578125 c 0,-0.976562 -0.0547,-1.609375 -0.15625,-1.890625 -0.10547,-0.28125 -0.27344,-0.5 -0.5,-0.65625 -0.23047,-0.164062 -0.50781,-0.25 -0.82812,-0.25 -0.40625,0 -0.77735,0.117188 -1.10938,0.34375 -0.32422,0.230469 -0.54687,0.53125 -0.67187,0.90625 -0.11719,0.367188 -0.17188,1.054688 -0.17188,2.0625 v 4.0625 h -2.375 v -8.984375 h 2.20313 v 1.3125 c 0.78125,-1.007812 1.76562,-1.515625 2.95312,-1.515625 0.53125,0 1.00782,0.09375 1.4375,0.28125 0.4375,0.1875 0.76563,0.433594 0.98438,0.734375 0.22656,0.292969 0.38281,0.625 0.46875,1 0.0937,0.367188 0.14062,0.898438 0.14062,1.59375 z m 10.65235,0 h -2.20313 v -1.3125 c -0.375,0.511719 -0.8125,0.890625 -1.3125,1.140625 -0.49218,0.25 -0.99218,0.375 -1.5,0.375 -1.03125,0 -1.91797,-0.414062 -2.65625,-1.25 -0.74219,-0.832031 -1.10937,-1.992187 -1.10937,-3.484375 0,-1.519531 0.35937,-2.675781 1.07812,-3.46875 0.71875,-0.789063 1.625,-1.1875 2.71875,-1.1875 1,0 1.86719,0.417969 2.60938,1.25 v -4.46875 h 2.375 z m -6.34376,-4.6875 c 0,0.960938 0.12892,1.652344 0.39063,2.078125 0.38281,0.625 0.92188,0.9375 1.60937,0.9375 0.55079,0 1.01563,-0.234375 1.39063,-0.703125 0.38281,-0.46875 0.57813,-1.160156 0.57813,-2.078125 0,-1.03125 -0.1875,-1.773437 -0.5625,-2.234375 -0.36719,-0.457031 -0.83985,-0.6875 -1.42188,-0.6875 -0.5625,0 -1.03906,0.226563 -1.42187,0.671875 -0.375,0.449219 -0.56251,1.121094 -0.56251,2.015625 z m 21.34766,-1.640625 -2.34374,0.421875 c -0.0859,-0.46875 -0.26563,-0.816406 -0.54688,-1.046875 -0.27344,-0.238281 -0.63281,-0.359375 -1.07812,-0.359375 -0.59376,0 -1.07032,0.203125 -1.42188,0.609375 -0.34375,0.40625 -0.51563,1.089844 -0.51563,2.046875 0,1.074219 0.17579,1.828125 0.53125,2.265625 0.35157,0.4375 0.83203,0.65625 1.4375,0.65625 0.45704,0 0.82813,-0.125 1.10938,-0.375 0.28906,-0.257812 0.49218,-0.703125 0.60938,-1.328125 l 2.34374,0.390625 c -0.25,1.074219 -0.71874,1.886719 -1.40625,2.4375 -0.68749,0.542969 -1.60937,0.8125 -2.76562,0.8125 -1.3125,0 -2.35938,-0.410156 -3.14063,-1.234375 -0.78124,-0.832031 -1.17187,-1.984375 -1.17187,-3.453125 0,-1.476562 0.39063,-2.628906 1.17187,-3.453125 0.78907,-0.832031 1.85156,-1.25 3.1875,-1.25 1.09375,0 1.96094,0.234375 2.60938,0.703125 0.64453,0.46875 1.10937,1.1875 1.39062,2.15625 z m 4.07422,6.328125 h -2.375 v -8.984375 h 2.20312 v 1.28125 c 0.38282,-0.601562 0.72657,-1 1.03126,-1.1875 0.30078,-0.195312 0.64062,-0.296875 1.01562,-0.296875 0.53907,0 1.06641,0.152344 1.57812,0.453125 l -0.73437,2.0625 c -0.40625,-0.257812 -0.78125,-0.390625 -1.125,-0.390625 -0.33594,0 -0.61719,0.09375 -0.84375,0.28125 -0.23047,0.1875 -0.41406,0.523438 -0.54688,1 -0.13671,0.480469 -0.20312,1.480469 -0.20312,3 z m 6.24609,-6.25 -2.15625,-0.390625 c 0.25,-0.863281 0.66407,-1.503906 1.25,-1.921875 0.59376,-0.414063 1.47266,-0.625 2.64063,-0.625 1.0625,0 1.85157,0.125 2.375,0.375 0.51953,0.25 0.88281,0.570313 1.09375,0.953125 0.20703,0.386719 0.3125,1.09375 0.3125,2.125 l -0.0156,2.78125 c 0,0.792969 0.0351,1.375 0.10938,1.75 0.0703,0.375 0.21094,0.777344 0.42188,1.203125 h -2.34375 c -0.0625,-0.15625 -0.14066,-0.390625 -0.23441,-0.703125 -0.043,-0.132812 -0.0703,-0.226562 -0.0782,-0.28125 -0.40625,0.398438 -0.84374,0.695313 -1.3125,0.890625 -0.46093,0.195313 -0.94921,0.296875 -1.46875,0.296875 -0.92969,0 -1.65625,-0.25 -2.18749,-0.75 -0.53126,-0.5 -0.79688,-1.132812 -0.79688,-1.90625 0,-0.507812 0.11719,-0.960937 0.35937,-1.359375 0.23828,-0.394531 0.57813,-0.695312 1.01563,-0.90625 0.4375,-0.21875 1.0664,-0.40625 1.89062,-0.5625 1.11329,-0.207031 1.88282,-0.398437 2.3125,-0.578125 v -0.234375 c 0,-0.457031 -0.11718,-0.785156 -0.34375,-0.984375 -0.21875,-0.195312 -0.64843,-0.296875 -1.28125,-0.296875 -0.41796,0 -0.74609,0.08594 -0.98437,0.25 -0.24219,0.167969 -0.43359,0.460938 -0.57813,0.875 z m 3.18751,1.9375 c -0.30469,0.105469 -0.78907,0.230469 -1.45313,0.375 -0.65625,0.136719 -1.08984,0.273438 -1.29687,0.40625 -0.30469,0.21875 -0.45313,0.496094 -0.45313,0.828125 0,0.335938 0.11719,0.625 0.35937,0.875 0.25,0.242188 0.56641,0.359375 0.95313,0.359375 0.42578,0 0.83594,-0.140625 1.23438,-0.421875 0.28125,-0.21875 0.46874,-0.484375 0.56249,-0.796875 0.0625,-0.195312 0.0938,-0.582031 0.0938,-1.15625 z m 12.51172,-2.015625 -2.34376,0.421875 c -0.0859,-0.46875 -0.26562,-0.816406 -0.54687,-1.046875 -0.27344,-0.238281 -0.63281,-0.359375 -1.07813,-0.359375 -0.59375,0 -1.07031,0.203125 -1.42187,0.609375 -0.34375,0.40625 -0.51562,1.089844 -0.51562,2.046875 0,1.074219 0.17577,1.828125 0.53125,2.265625 0.35156,0.4375 0.83203,0.65625 1.43749,0.65625 0.45703,0 0.82813,-0.125 1.10938,-0.375 0.28906,-0.257812 0.49219,-0.703125 0.60937,-1.328125 l 2.34376,0.390625 c -0.25,1.074219 -0.71876,1.886719 -1.40625,2.4375 -0.68751,0.542969 -1.60938,0.8125 -2.76563,0.8125 -1.3125,0 -2.35937,-0.410156 -3.14063,-1.234375 -0.78125,-0.832031 -1.17187,-1.984375 -1.17187,-3.453125 0,-1.476562 0.39062,-2.628906 1.17187,-3.453125 0.78907,-0.832031 1.85157,-1.25 3.18751,-1.25 1.09375,0 1.96093,0.234375 2.60937,0.703125 0.64453,0.46875 1.10938,1.1875 1.39063,2.15625 z m 1.71484,6.328125 v -12.40625 h 2.375 v 6.578125 l 2.79688,-3.15625 h 2.92187 l -3.07813,3.28125 3.29688,5.703125 h -2.5625 l -2.26563,-4.03125 -1.10937,1.15625 v 2.875 z m 14.47265,-8.984375 h 2.21875 v 1.3125 c 0.28907,-0.445312 0.67969,-0.8125 1.17188,-1.09375 0.48828,-0.28125 1.03125,-0.421875 1.625,-0.421875 1.05078,0 1.9375,0.414063 2.65625,1.234375 0.72656,0.8125 1.09375,1.949219 1.09375,3.40625 0,1.5 -0.37109,2.667969 -1.10937,3.5 -0.73047,0.835938 -1.61719,1.25 -2.65626,1.25 -0.49218,0 -0.93749,-0.101562 -1.34374,-0.296875 -0.40626,-0.195312 -0.83595,-0.535156 -1.28126,-1.015625 v 4.53125 h -2.375 z m 2.35938,4.34375 c 0,1.011719 0.19531,1.757813 0.59375,2.234375 0.40625,0.480469 0.89453,0.71875 1.46875,0.71875 0.55078,0 1.00781,-0.21875 1.375,-0.65625 0.36328,-0.445312 0.54687,-1.175781 0.54687,-2.1875 0,-0.9375 -0.18749,-1.632812 -0.56249,-2.09375 -0.375,-0.457031 -0.84375,-0.6875 -1.40626,-0.6875 -0.58593,0 -1.07031,0.226563 -1.45312,0.671875 -0.375,0.449219 -0.5625,1.117188 -0.5625,2 z m 10.57422,4.640625 h -2.375 v -8.984375 h 2.20312 v 1.28125 c 0.38282,-0.601562 0.72656,-1 1.03125,-1.1875 0.30078,-0.195312 0.64063,-0.296875 1.01563,-0.296875 0.53906,0 1.0664,0.152344 1.57812,0.453125 l -0.73437,2.0625 c -0.40625,-0.257812 -0.78125,-0.390625 -1.125,-0.390625 -0.33594,0 -0.61719,0.09375 -0.84375,0.28125 -0.23047,0.1875 -0.41406,0.523438 -0.54688,1 -0.13672,0.480469 -0.20312,1.480469 -0.20312,3 z m 9.67968,-2.859375 2.35938,0.390625 c -0.30469,0.875 -0.78125,1.542969 -1.4375,2 -0.65625,0.449219 -1.48047,0.671875 -2.46875,0.671875 -1.5625,0 -2.71875,-0.507812 -3.46875,-1.53125 -0.59375,-0.820312 -0.89063,-1.851562 -0.89063,-3.09375 0,-1.488281 0.39063,-2.65625 1.17188,-3.5 0.78125,-0.84375 1.76563,-1.265625 2.95312,-1.265625 1.33204,0 2.38282,0.445313 3.15625,1.328125 0.78126,0.875 1.14844,2.226563 1.10938,4.046875 h -5.95312 c 0.0195,0.710938 0.21093,1.261719 0.57812,1.65625 0.36328,0.386719 0.82031,0.578125 1.375,0.578125 0.36328,0 0.67188,-0.09766 0.92188,-0.296875 0.25781,-0.207031 0.45703,-0.535156 0.59374,-0.984375 z m 0.125,-2.40625 c -0.0117,-0.6875 -0.18749,-1.207031 -0.53125,-1.5625 -0.33593,-0.363281 -0.74609,-0.546875 -1.23437,-0.546875 -0.52343,0 -0.94922,0.195313 -1.28125,0.578125 -0.34375,0.375 -0.51172,0.886719 -0.5,1.53125 z m 3.46485,2.703125 2.39062,-0.359375 c 0.0938,0.460938 0.29688,0.808594 0.60938,1.046875 0.3125,0.242188 0.75,0.359375 1.3125,0.359375 0.61328,0 1.07031,-0.113281 1.375,-0.34375 0.20703,-0.15625 0.3125,-0.363281 0.3125,-0.625 0,-0.1875 -0.0547,-0.335937 -0.15625,-0.453125 -0.125,-0.113281 -0.39062,-0.21875 -0.79688,-0.3125 -1.91797,-0.425781 -3.13672,-0.8125 -3.65625,-1.15625 -0.71093,-0.488281 -1.06249,-1.164062 -1.06249,-2.03125 0,-0.769531 0.30468,-1.421875 0.92187,-1.953125 0.61328,-0.53125 1.56641,-0.796875 2.85938,-0.796875 1.22656,0 2.14062,0.203125 2.73437,0.609375 0.60156,0.398438 1.01953,0.984375 1.25,1.765625 l -2.25,0.421875 c -0.0937,-0.351562 -0.27734,-0.625 -0.54688,-0.8125 -0.26172,-0.1875 -0.64062,-0.28125 -1.14062,-0.28125 -0.625,0 -1.07422,0.08984 -1.34375,0.265625 -0.1875,0.125 -0.28125,0.289063 -0.28125,0.484375 0,0.167969 0.082,0.3125 0.25,0.4375 0.20703,0.15625 0.94141,0.382813 2.20313,0.671875 1.26952,0.28125 2.16015,0.632813 2.67187,1.046875 0.48828,0.429688 0.73437,1.015625 0.73437,1.765625 0,0.824219 -0.34375,1.53125 -1.03124,2.125 -0.68751,0.59375 -1.70313,0.890625 -3.04688,0.890625 -1.23047,0 -2.20312,-0.242187 -2.92188,-0.734375 -0.71093,-0.5 -1.17187,-1.175781 -1.39062,-2.03125 z m 9.64062,0 2.39063,-0.359375 c 0.0937,0.460938 0.29688,0.808594 0.60937,1.046875 0.31251,0.242188 0.75,0.359375 1.31251,0.359375 0.61328,0 1.07031,-0.113281 1.375,-0.34375 0.20702,-0.15625 0.31249,-0.363281 0.31249,-0.625 0,-0.1875 -0.0547,-0.335937 -0.15624,-0.453125 -0.125,-0.113281 -0.39063,-0.21875 -0.79688,-0.3125 -1.91797,-0.425781 -3.13672,-0.8125 -3.65625,-1.15625 -0.71094,-0.488281 -1.0625,-1.164062 -1.0625,-2.03125 0,-0.769531 0.30469,-1.421875 0.92187,-1.953125 0.61328,-0.53125 1.56641,-0.796875 2.85938,-0.796875 1.22656,0 2.14062,0.203125 2.73438,0.609375 0.60156,0.398438 1.01952,0.984375 1.25,1.765625 l -2.25,0.421875 c -0.0938,-0.351562 -0.27735,-0.625 -0.54688,-0.8125 -0.26172,-0.1875 -0.64063,-0.28125 -1.14063,-0.28125 -0.625,0 -1.07421,0.08984 -1.34374,0.265625 -0.18751,0.125 -0.28126,0.289063 -0.28126,0.484375 0,0.167969 0.082,0.3125 0.25,0.4375 0.20703,0.15625 0.94141,0.382813 2.20313,0.671875 1.26953,0.28125 2.16015,0.632813 2.67187,1.046875 0.48828,0.429688 0.73438,1.015625 0.73438,1.765625 0,0.824219 -0.34375,1.53125 -1.03125,2.125 -0.6875,0.59375 -1.70313,0.890625 -3.04687,0.890625 -1.23047,0 -2.20313,-0.242187 -2.92188,-0.734375 -0.71094,-0.5 -1.17187,-1.175781 -1.39063,-2.03125 z m 16.38672,2.5625 v -1.34375 c -0.32421,0.480469 -0.75781,0.859375 -1.29687,1.140625 -0.53125,0.269531 -1.08985,0.40625 -1.67188,0.40625 -0.60546,0 -1.14844,-0.132812 -1.625,-0.390625 -0.48046,-0.269531 -0.82812,-0.644531 -1.04687,-1.125 -0.21875,-0.476562 -0.32813,-1.140625 -0.32813,-1.984375 v -5.6875 h 2.39063 v 4.125 c 0,1.261719 0.039,2.039063 0.125,2.328125 0.082,0.28125 0.23828,0.507813 0.46875,0.671875 0.23828,0.167969 0.53516,0.25 0.89062,0.25 0.40625,0 0.76954,-0.109375 1.09375,-0.328125 0.32032,-0.226562 0.53907,-0.503906 0.65625,-0.828125 0.11328,-0.332031 0.17188,-1.140625 0.17188,-2.421875 v -3.796875 h 2.375 v 8.984375 z m 6.94922,0 h -2.375 v -8.984375 h 2.20313 v 1.28125 c 0.38281,-0.601562 0.72656,-1 1.03125,-1.1875 0.30078,-0.195312 0.64062,-0.296875 1.01562,-0.296875 0.53906,0 1.06641,0.152344 1.57813,0.453125 l -0.73438,2.0625 c -0.40625,-0.257812 -0.78125,-0.390625 -1.125,-0.390625 -0.33593,0 -0.61718,0.09375 -0.84375,0.28125 -0.23046,0.1875 -0.41406,0.523438 -0.54687,1 -0.13672,0.480469 -0.20313,1.480469 -0.20313,3 z m 9.67969,-2.859375 2.35937,0.390625 c -0.30468,0.875 -0.78124,1.542969 -1.43749,2 -0.65626,0.449219 -1.48047,0.671875 -2.46875,0.671875 -1.56251,0 -2.71876,-0.507812 -3.46876,-1.53125 -0.59375,-0.820312 -0.89062,-1.851562 -0.89062,-3.09375 0,-1.488281 0.39062,-2.65625 1.17187,-3.5 0.78126,-0.84375 1.76563,-1.265625 2.95313,-1.265625 1.33203,0 2.38281,0.445313 3.15625,1.328125 0.78125,0.875 1.14844,2.226563 1.10937,4.046875 h -5.95312 c 0.0195,0.710938 0.21094,1.261719 0.57812,1.65625 0.36328,0.386719 0.82032,0.578125 1.375,0.578125 0.36328,0 0.67188,-0.09766 0.92188,-0.296875 0.25781,-0.207031 0.45703,-0.535156 0.59375,-0.984375 z m 0.125,-2.40625 c -0.0117,-0.6875 -0.1875,-1.207031 -0.53125,-1.5625 -0.33594,-0.363281 -0.7461,-0.546875 -1.23438,-0.546875 -0.52344,0 -0.94921,0.195313 -1.28124,0.578125 -0.34376,0.375 -0.51172,0.886719 -0.5,1.53125 z m 8.08203,-3.71875 h 1.3125 v -0.671875 c 0,-0.757813 0.0781,-1.320313 0.23437,-1.6875 0.16407,-0.375 0.46095,-0.675781 0.89063,-0.90625 0.4375,-0.238281 0.98828,-0.359375 1.65625,-0.359375 0.67578,0 1.33594,0.101563 1.98438,0.296875 l -0.32813,1.65625 c -0.375,-0.08203 -0.74218,-0.125 -1.09375,-0.125 -0.34375,0 -0.58984,0.07813 -0.73438,0.234375 -0.14843,0.15625 -0.21874,0.464844 -0.21874,0.921875 v 0.640625 h 1.76562 v 1.875 h -1.76562 v 7.109375 h -2.39063 v -7.109375 h -1.3125 z m 6.25782,4.359375 c 0,-0.78125 0.1914,-1.539062 0.57812,-2.28125 0.39453,-0.738281 0.94531,-1.300781 1.65625,-1.6875 0.71875,-0.394531 1.51953,-0.59375 2.40625,-0.59375 1.35156,0 2.46094,0.445313 3.32812,1.328125 0.875,0.875 1.3125,1.992188 1.3125,3.34375 0,1.355469 -0.44531,2.480469 -1.32812,3.375 -0.875,0.898438 -1.97656,1.34375 -3.29688,1.34375 -0.82421,0 -1.60937,-0.183594 -2.35937,-0.546875 -0.75,-0.375 -1.32422,-0.921875 -1.71875,-1.640625 -0.38672,-0.726562 -0.57812,-1.609375 -0.57812,-2.640625 z m 2.43749,0.125 c 0,0.898438 0.21094,1.585938 0.64063,2.0625 0.42578,0.46875 0.94531,0.703125 1.5625,0.703125 0.625,0 1.14453,-0.234375 1.5625,-0.703125 0.41406,-0.476562 0.625,-1.171875 0.625,-2.078125 0,-0.875 -0.21094,-1.546875 -0.625,-2.015625 -0.41797,-0.476562 -0.9375,-0.71875 -1.5625,-0.71875 -0.61719,0 -1.13672,0.242188 -1.5625,0.71875 -0.42969,0.46875 -0.64063,1.148438 -0.64063,2.03125 z m 10.98047,4.5 h -2.375 v -8.984375 h 2.20312 v 1.28125 c 0.38282,-0.601562 0.72657,-1 1.03126,-1.1875 0.30078,-0.195312 0.64062,-0.296875 1.01562,-0.296875 0.53907,0 1.06641,0.152344 1.57812,0.453125 l -0.73437,2.0625 c -0.40625,-0.257812 -0.78125,-0.390625 -1.125,-0.390625 -0.33594,0 -0.61719,0.09375 -0.84375,0.28125 -0.23047,0.1875 -0.41406,0.523438 -0.54688,1 -0.13671,0.480469 -0.20312,1.480469 -0.20312,3 z m 9.23438,-10.203125 v -2.203125 h 2.39062 v 2.203125 z m 2.39062,1.21875 v 8.703125 c 0,1.144531 -0.0782,1.953125 -0.23437,2.421875 -0.14844,0.46875 -0.43359,0.832031 -0.85938,1.09375 -0.42969,0.269531 -0.96875,0.40625 -1.625,0.40625 -0.24218,0 -0.5,-0.02344 -0.78125,-0.0625 -0.26953,-0.04297 -0.5625,-0.105469 -0.875,-0.1875 l 0.42188,-2.03125 c 0.10547,0.01953 0.21093,0.03516 0.3125,0.04687 0.0937,0.01953 0.1875,0.03125 0.28125,0.03125 0.23828,0 0.43749,-0.05469 0.59375,-0.15625 0.15625,-0.105469 0.2539,-0.230469 0.29687,-0.375 0.0508,-0.148438 0.0782,-0.589844 0.0782,-1.328125 v -8.562501 z m 2.48828,-1.21875 v -2.203125 h 2.375 v 2.203125 z m 0,10.203125 v -8.984375 h 2.375 v 8.984375 z m 4.71094,0 v -12.40625 h 2.375 v 4.46875 c 0.73828,-0.832031 1.60938,-1.25 2.60938,-1.25 1.09375,0 2,0.398437 2.71875,1.1875 0.71874,0.792969 1.07812,1.933594 1.07812,3.421875 0,1.53125 -0.37109,2.714844 -1.10938,3.546875 -0.73046,0.824219 -1.61718,1.234375 -2.65625,1.234375 -0.51172,0 -1.01562,-0.125 -1.51562,-0.375 -0.5,-0.257812 -0.93359,-0.640625 -1.29687,-1.140625 v 1.3125 z m 2.35938,-4.6875 c 0,0.929688 0.14452,1.617188 0.43749,2.0625 0.41407,0.636719 0.96095,0.953125 1.64063,0.953125 0.53125,0 0.97656,-0.222656 1.34375,-0.671875 0.375,-0.445312 0.5625,-1.15625 0.5625,-2.125 0,-1.019531 -0.1875,-1.757812 -0.5625,-2.21875 -0.375,-0.457031 -0.85547,-0.6875 -1.4375,-0.6875 -0.5625,0 -1.03906,0.226563 -1.42188,0.671875 -0.375,0.4375 -0.56249,1.109375 -0.56249,2.015625 z m 21.11328,0.125 2.42187,0.765625 c -0.375,1.355469 -0.99609,2.367188 -1.85937,3.03125 -0.86719,0.65625 -1.96485,0.984375 -3.29688,0.984375 -1.64843,0 -3,-0.5625 -4.0625,-1.6875 -1.05468,-1.132812 -1.57812,-2.675781 -1.57812,-4.625 0,-2.0625 0.53124,-3.660156 1.59375,-4.796875 1.06249,-1.144531 2.46093,-1.71875 4.20312,-1.71875 1.51953,0 2.75391,0.449219 3.70313,1.34375 0.5625,0.53125 0.98437,1.292969 1.26562,2.28125 l -2.48438,0.59375 c -0.14843,-0.644531 -0.45312,-1.148438 -0.92187,-1.515625 -0.46093,-0.375 -1.02344,-0.5625 -1.6875,-0.5625 -0.91797,0 -1.66406,0.328125 -2.23437,0.984375 -0.57422,0.65625 -0.85938,1.726563 -0.85938,3.203125 0,1.574219 0.28125,2.695313 0.84375,3.359375 0.5625,0.667969 1.29688,1 2.20313,1 0.66406,0 1.23828,-0.210937 1.71875,-0.640625 0.47656,-0.425781 0.82031,-1.09375 1.03125,-2 z m 4.57421,-7.84375 h 4.96875 c 0.97657,0 1.70704,0.04297 2.18751,0.125 0.47656,0.08594 0.90625,0.257813 1.28125,0.515625 0.38281,0.261719 0.70312,0.609375 0.95312,1.046875 0.25781,0.429687 0.39063,0.90625 0.39063,1.4375 0,0.585938 -0.15626,1.121094 -0.46875,1.609375 -0.31251,0.480469 -0.73438,0.839844 -1.26563,1.078125 0.75,0.21875 1.32812,0.59375 1.73438,1.125 0.40625,0.53125 0.60937,1.15625 0.60937,1.875 0,0.5625 -0.13281,1.109375 -0.39063,1.640625 -0.26171,0.53125 -0.62109,0.960938 -1.07812,1.28125 -0.44922,0.324219 -1.00781,0.523438 -1.67188,0.59375 -0.41797,0.04297 -1.42968,0.07031 -3.03125,0.07813 h -4.21875 z m 2.51563,2.0625 v 2.875 h 1.64063 c 0.96874,0 1.57031,-0.01563 1.81249,-0.04687 0.42579,-0.05078 0.75782,-0.195313 1,-0.4375 0.25,-0.25 0.375,-0.570312 0.375,-0.96875 0,-0.382812 -0.10546,-0.695312 -0.31249,-0.9375 -0.21094,-0.238281 -0.52344,-0.382812 -0.93751,-0.4375 -0.25,-0.03125 -0.96484,-0.04687 -2.14062,-0.04687 z m 0,4.9375 v 3.3125 h 2.3125 c 0.90625,0 1.47656,-0.02344 1.71875,-0.07813 0.375,-0.0625 0.67578,-0.222656 0.90625,-0.484375 0.22656,-0.257812 0.34375,-0.613281 0.34375,-1.0625 0,-0.363281 -0.0898,-0.675781 -0.26562,-0.9375 -0.17969,-0.257812 -0.43751,-0.445312 -0.78126,-0.5625 -0.34374,-0.125 -1.08593,-0.1875 -2.21874,-0.1875 z m 13.15625,5.40625 -4.4375,-12.40625 h 2.71875 l 3.14062,9.1875 3.04688,-9.1875 h 2.65625 l -4.45313,12.40625 z m 24.41407,0 h -2.73438 l -1.07813,-2.8125 h -4.95312 l -1.03125,2.8125 h -2.65625 l 4.82813,-12.40625 h 2.65624 z m -4.625,-4.90625 -1.70313,-4.609375 -1.67187,4.609375 z m 0,0"
       style="fill:#000000;fill-opacity:1;fill-rule:nonzero;stroke:none;stroke-width:0.8"
       aria-label="Plot to find crack pressure for jib CBV A" />
    <path
       id="path62"
       d="m 74.578305,253.53563 0.420996,-0.17914 1.223474,-0.52066 1.223474,-0.52063 1.223474,-0.5208 1.223474,-0.52066 1.223474,-0.52065 1.223478,-0.52065 1.223472,-0.52063 1.223472,-0.52066 1.22348,-0.52065 1.223472,-0.52064 1.22348,-0.52082 1.223472,-0.52062 1.223472,-0.52066 1.223472,-0.52066 1.22348,-0.52063 1.223472,-0.52065 1.223472,-0.52065 1.22348,-0.52066 1.22348,-0.5208 1.223464,-0.52063 1.223471,-0.52066 1.22348,-0.52064 1.22348,-0.52066 1.22347,-0.52063 1.22347,-0.52066 1.22349,-0.5208 1.22347,-0.52065 1.22348,-0.52065 1.22345,-0.52063 1.22349,-0.52066 1.22347,-0.52066 1.22348,-0.52063 1.22348,-0.52065 1.22347,-0.5208 1.22348,-0.52065 1.22347,-0.52066 1.22347,-0.52065 1.22347,-0.52063 1.22348,-0.52065 1.22348,-0.52066 1.22347,-0.52063 1.22347,-0.52083 1.22348,-0.52063 1.22347,-0.52065 1.22347,-0.52065 1.22348,-0.52063 1.22348,-0.52066 1.22347,-0.52066 1.22347,-0.52064 1.22349,-0.5208 1.22346,-0.52064 1.22349,-0.52065 1.22347,-0.52066 1.22347,-0.52065 1.22348,-0.52063 1.22348,-0.52065 1.22347,-0.52066 1.22347,-0.5208 1.22347,-0.52066 1.22348,-0.52062 1.22347,-0.52066 1.22348,-0.52065 1.22347,-0.52063 1.22348,-0.52066 1.22347,-0.5208 1.22347,-0.52065 1.22348,-0.52065 1.22347,-0.52064 1.22348,-0.52065 1.22347,-0.52066 1.22348,-0.52065 1.22347,-0.52063 1.22349,-0.52082 1.22345,-0.52063 1.22348,-0.52066 1.22348,-0.52066 1.22348,-0.52062 1.22346,-0.52066 1.22349,-0.52065 1.22348,-0.52063 1.22347,-0.52083 1.22347,-0.52062 1.22347,-0.52066 1.22348,-0.52065 1.22348,-0.52066 1.22347,-0.52063 1.22347,-0.52065 1.22348,-0.52066 1.22347,-0.5208 1.22347,-0.52064 1.22348,-0.52065 1.22348,-0.52065 1.22347,-0.52064 1.22347,-0.52066 1.22349,-0.52064 1.22346,-0.52065 1.22347,-0.5208 1.22349,-0.52066 1.22347,-0.52064 1.22347,-0.52064 1.22349,-0.52065 1.22347,-0.52064 1.22346,-0.52066 1.22348,-0.52064 1.22348,-0.5208 1.22347,-0.52066 1.22348,-0.52064 1.22347,-0.52065 1.22346,-0.52064 1.22349,-0.52066 1.22349,-0.52064 1.22346,-0.5208 1.22348,-0.52065 1.22347,-0.52065 1.22348,-0.52065 1.22347,-0.52065 1.22348,-0.52064 1.22346,-0.52065 1.22349,-0.52064 1.22346,-0.52082 1.22348,-0.52064 1.22347,-0.52066 1.22349,-0.52064 1.22346,-0.52064 1.22349,-0.52065 1.22345,-0.52064 1.22349,-0.52066 1.22347,-0.5208 1.22348,-0.52064 1.22346,-0.52065 1.22349,-0.52064 1.22349,-0.52066 1.22346,-0.52064 1.22346,-0.52066 1.22348,-0.52064 1.22349,-0.5208 1.22347,-0.52065 1.22348,-0.52065 1.22346,-0.52065 1.22349,-0.52065 1.22346,-0.52064 1.22349,-0.52065 1.22348,-0.52064 1.22346,-0.52082 1.22347,-0.52064 1.22349,-0.52065 1.22345,-0.52064 1.22349,-0.52064 1.22349,-0.52066 1.22346,-0.52064 1.22346,-0.52066 1.22346,-0.5208 1.22349,-0.52064 1.22349,-0.52065 1.22345,-0.52064 1.22349,-0.52066 1.22349,-0.52064 1.22346,-0.52065 1.22347,-0.5208 1.22348,-0.52065 1.22346,-0.52065 1.22349,-0.52065 1.22349,-0.52065 1.22345,-0.52064 1.22349,-0.52064 1.22347,-0.52066 1.22346,-0.5208 1.22348,-0.52066 1.22349,-0.52064 1.22346,-0.52065 1.22349,-0.52064 1.22349,-0.52064 1.22345,-0.52066 1.22347,-0.52064 1.22349,-0.52081 1.22346,-0.52064 1.22348,-0.52064 1.22349,-0.52066 1.22346,-0.52064 1.22347,-0.52066 1.22348,-0.52064 1.22346,-0.52065 1.22349,-0.5208 1.22349,-0.52065 1.22345,-0.52065 1.22349,-0.52065 1.22346,-0.52064 1.22347,-0.52065 1.22349,-0.52064 1.22348,-0.52066 1.22346,-0.5208 1.22349,-0.52065 1.22349,-0.52064 1.22345,-0.52066 1.22347,-0.52064 1.22348,-0.52064 1.22347,-0.52066 1.22348,-0.52064 1.22349,-0.52081 1.22346,-0.52064 1.22349,-0.52064 1.22345,-0.52066 1.22347,-0.52064 1.22349,-0.52065 1.22346,-0.52064 1.22349,-0.52082 1.22348,-0.52064 1.22346,-0.52065 1.22347,-0.52065 1.22348,-0.52064 1.22346,-0.52065 1.22349,-0.52065 1.22349,-0.52064 1.22346,-0.52082 1.22348,-0.52064 1.22346,-0.52065 1.22347,-0.52064 1.22349,-0.52066 1.22348,-0.52064 1.22346,-0.52064 1.22349,-0.52065 1.22349,-0.5208 1.22346,-0.52066 1.22346,-0.52064 1.22348,-0.52066 1.22347,-0.52064 1.22349,-0.52064 1.22348,-0.52065 1.22346,-0.52065 1.22349,-0.52081 1.22346,-0.52064 1.22346,-0.52065 1.22349,-0.52064 1.22348,-0.52065 1.22347,-0.52066 1.22349,-0.52064 1.22345,-0.52065 1.22347,-0.5208 1.22348,-0.52064 1.22349,-0.52066 1.22346,-0.52064 1.22349,-0.52066 1.22348,-0.52064 1.22347,-0.52064 1.22345,-0.52065 1.22349,-0.5208 1.22347,-0.52066 1.22348,-0.52064 1.22349,-0.52065 1.22346,-0.52064 1.22349,-0.52065 1.22346,-0.52065 1.22346,-0.5208 1.22348,-0.52066 1.22347,-0.52064 1.22349,-0.52064 1.22348,-0.52066 1.22346,-0.52064 1.22349,-0.52066 1.22346,-0.52064 1.22347,-0.5208 1.22348,-0.52065 1.22348,-0.52064 1.22347,-0.52066 1.22349,-0.52064 1.22346,-0.52065 1.22346,-0.52064 1.22348,-0.52064 1.22349,-0.52082 1.22347,-0.52064 1.22348,-0.52066 1.22348,-0.52064 1.22347,-0.52065 1.22346,-0.52064 1.22351,-0.52065 1.22344,-0.52065 1.22348,-0.5208 1.22349,-0.52065 1.22343,-0.52064 1.22349,-0.52065 1.22349,-0.52066 1.22349,-0.52064 1.22349,-0.52065 1.22343,-0.52064 1.22349,-0.52081 1.22344,-0.52065 1.22348,-0.52065 1.22348,-0.52065 1.22349,-0.52064 1.22349,-0.52064 1.22349,-0.52065 1.22343,-0.52065 1.22349,-0.52081 1.22349,-0.52065 1.22348,-0.520636 1.22349,-0.520648 1.22348,-0.520648 1.22344,-0.520648 1.22349,-0.520648 1.22344,-0.520808 1.22348,-0.52064 1.22349,-0.520656 1.22349,-0.520648 1.22344,-0.520648 1.22348,-0.520648 1.22348,-0.520648 1.22349,-0.52064 1.22349,-0.520808 1.22349,-0.520648 1.22343,-0.520648 1.22349,-0.520648 1.22349,-0.520648 1.22344,-0.52064 1.22348,-0.520648 1.22348,-0.520648 1.22344,-0.520808 1.22349,-0.520648 1.22348,-0.520648 1.22349,-0.52064 1.22349,-0.520648 1.22349,-0.520648 1.22343,-0.520648 1.22349,-0.520648 1.22348,-0.520808 1.22349,-0.520648 1.22349,-0.520648 1.22343,-0.520648 1.22344,-0.520648 1.22349,-0.520645 1.22349,-0.520648 1.22348,-0.520642 1.22349,-0.520807 1.22344,-0.520648 1.22348,-0.520648 1.22348,-0.520648 1.22349,-0.520649 1.22349,-0.520642 1.22349,-0.520648 1.22343,-0.520648 1.22349,-0.520807 1.22349,-0.520649 1.22344,-0.520648 1.22348,-0.520648 1.22348,-0.520642 1.22344,-0.520648 1.22349,-0.520648 1.22349,-0.520807 1.22348,-0.520648 1.22349,-0.520648 1.22349,-0.520643 1.22344,-0.520648 1.22348,-0.520648 1.22348,-0.520648 1.22349,-0.520648 0.97251,-0.413989"
       style="fill:none;stroke:#0072bd;stroke-width:3.33334;stroke-linecap:butt;stroke-linejoin:round;stroke-miterlimit:10;stroke-dasharray:none;stroke-opacity:1" />
    <path
       id="path63"
       d="m 436.98842,100.97115 c 0,-2.160045 -1.75106,-3.911109 -3.91111,-3.911109 -2.16004,0 -3.91111,1.751064 -3.91111,3.911109 0,2.16005 1.75107,3.91111 3.91111,3.91111 2.16005,0 3.91111,-1.75106 3.91111,-3.91111 z"
       style="fill:#ff0000;fill-opacity:1;fill-rule:nonzero;stroke:none;stroke-width:0.8" />
    <path
       id="path64"
       d="m 433.07731,98.393375 c 1.42367,0 2.57778,1.15411 2.57778,2.577775 v 0 c 0,1.42367 -1.15411,2.57778 -2.57778,2.57778 -1.42366,0 -2.57777,-1.15411 -2.57777,-2.57778 0,-1.423665 1.15411,-2.577775 2.57777,-2.577775 z m 0,-2.666667 c -2.89642,0 -5.24444,2.348018 -5.24444,5.244442 0,2.89643 2.34802,5.24445 5.24444,5.24445 2.89643,0 5.24445,-2.34802 5.24445,-5.24445 v 0 c 0,-2.896424 -2.34802,-5.244442 -5.24445,-5.244442 z"
       style="fill:#ff0000;fill-opacity:1;fill-rule:nonzero;stroke:none;stroke-width:0.8" />
    <path
       id="path65"
       d="m 192.31795,205.09422 c 0,-2.16004 -1.75106,-3.91111 -3.91111,-3.91111 -2.16004,0 -3.91111,1.75107 -3.91111,3.91111 0,2.16005 1.75107,3.91111 3.91111,3.91111 2.16005,0 3.91111,-1.75106 3.91111,-3.91111 z"
       style="fill:#ff00ff;fill-opacity:1;fill-rule:nonzero;stroke:none;stroke-width:0.8" />
    <path
       id="path66"
       d="m 188.40684,202.51644 c 1.42367,0 2.57778,1.15411 2.57778,2.57778 v 0 c 0,1.42367 -1.15411,2.57778 -2.57778,2.57778 -1.42366,0 -2.57777,-1.15411 -2.57777,-2.57778 0,-1.42367 1.15411,-2.57778 2.57777,-2.57778 z m 0,-2.66666 c -2.89642,0 -5.24444,2.34802 -5.24444,5.24444 0,2.89643 2.34802,5.24445 5.24444,5.24445 2.89643,0 5.24445,-2.34802 5.24445,-5.24445 v 0 c 0,-2.89642 -2.34802,-5.24444 -5.24445,-5.24444 z"
       style="fill:#ff00ff;fill-opacity:1;fill-rule:nonzero;stroke:none;stroke-width:0.8" />
    <text
       id="text91"
       xml:space="preserve"
       transform="scale(0.99970668,1.0002934)"
       x="441.3324"
       y="116.25146"
       style="font-size:16.0047px;stroke-width:1.33372"><tspan
         id="tspan91"
         style="font-variant:normal;font-weight:normal;font-size:17.5636px;font-family:Verdana;writing-mode:lr-tb;fill:#ff0000;fill-opacity:1;fill-rule:nonzero;stroke:none;stroke-width:1.33372"
         x="441.3324"
         y="116.25146">P</tspan></text>
    <text
       id="text92"
       xml:space="preserve"
       transform="scale(0.99970668,1.0002934)"
       x="451.92377"
       y="119.76416"
       style="font-size:16.0047px;stroke-width:1.33372"><tspan
         id="tspan92"
         style="font-variant:normal;font-weight:normal;font-size:11.4163px;font-family:Verdana;writing-mode:lr-tb;fill:#ff0000;fill-opacity:1;fill-rule:nonzero;stroke:none;stroke-width:1.33372"
         x="451.92377"
         dx="0 -0.55939877"
         y="119.76416">Fast</tspan></text>
    <text
       id="text93"
       xml:space="preserve"
       transform="scale(0.99970668,1.0002934)"
       x="195.46327"
       y="221.64893"
       style="font-size:16.0047px;stroke-width:1.33372"><tspan
         id="tspan93"
         style="font-variant:normal;font-weight:normal;font-size:17.5636px;font-family:Verdana;writing-mode:lr-tb;fill:#ff00ff;fill-opacity:1;fill-rule:nonzero;stroke:none;stroke-width:1.33372"
         x="195.46327"
         y="221.64893">P</tspan></text>
    <text
       id="text94"
       xml:space="preserve"
       transform="scale(0.99970668,1.0002934)"
       x="206.05458"
       y="225.16162"
       style="font-size:16.0047px;stroke-width:1.33372"><tspan
         id="tspan94"
         style="font-variant:normal;font-weight:normal;font-size:11.4163px;font-family:Verdana;writing-mode:lr-tb;fill:#ff00ff;fill-opacity:1;fill-rule:nonzero;stroke:none;stroke-width:1.33372"
         x="206.05458"
         y="225.16162">Slow</tspan></text>
    <text
       id="text95"
       xml:space="preserve"
       transform="scale(0.99970668,1.0002934)"
       x="117.29816"
       y="290.69324"
       style="font-size:16.0047px;stroke-width:1.33372"><tspan
         id="tspan95"
         style="font-variant:normal;font-weight:normal;font-size:17.5636px;font-family:Verdana;writing-mode:lr-tb;fill:#000000;fill-opacity:1;fill-rule:nonzero;stroke:none;stroke-width:1.33372"
         x="117.29816"
         y="290.69324">p</tspan></text>
    <text
       id="text96"
       xml:space="preserve"
       transform="scale(0.99970668,1.0002934)"
       x="128.24104"
       y="294.20593"
       style="font-size:16.0047px;stroke-width:1.33372"><tspan
         id="tspan96"
         style="font-variant:normal;font-weight:normal;font-size:11.4163px;font-family:Verdana;writing-mode:lr-tb;fill:#000000;fill-opacity:1;fill-rule:nonzero;stroke:none;stroke-width:1.33372"
         x="128.24104"
         y="294.20593">cr</tspan><tspan
         id="tspan97"
         style="font-variant:normal;font-weight:normal;font-size:11.4163px;font-family:Verdana;writing-mode:lr-tb;fill:#000000;fill-opacity:1;fill-rule:nonzero;stroke:none;stroke-width:1.33372"
         x="139.0609"
         y="283.66779">A</tspan></text>
    <path
       id="path97"
       d="m 78.060623,258.54282 2.016,-2.33333 34.833317,30.13067 -2.02133,2.33866 z"
       style="fill:#000000;fill-opacity:1;fill-rule:nonzero;stroke:none;stroke-width:1.33333" />
    <path
       id="path98"
       d="m 78.117943,258.84016 2.604,-1.66134 7.32267,11.51067 -2.604,1.656 z"
       style="fill:#000000;fill-opacity:1;fill-rule:nonzero;stroke:none;stroke-width:1.33333" />
    <path
       id="path99"
       d="m 80.368613,256.25082 -1.26667,2.81867 12.43734,5.588 1.26666,-2.81733 z"
       style="fill:#000000;fill-opacity:1;fill-rule:nonzero;stroke:none;stroke-width:1.33333" />
  </g>
</svg>
