<?xml version="1.0" encoding="UTF-8" standalone="no"?>
<!-- Created with Inkscape (http://www.inkscape.org/) -->

<svg
   version="1.1"
   id="svg1"
   width="560"
   height="420"
   viewBox="0 0 560 419.99998"
   sodipodi:docname="pcr_line_B.svg"
   inkscape:version="1.4 (86a8ad7, 2024-10-11)"
   xmlns:inkscape="http://www.inkscape.org/namespaces/inkscape"
   xmlns:sodipodi="http://sodipodi.sourceforge.net/DTD/sodipodi-0.dtd"
   xmlns="http://www.w3.org/2000/svg"
   xmlns:svg="http://www.w3.org/2000/svg">
  <defs
     id="defs1">
    <clipPath
       clipPathUnits="userSpaceOnUse"
       id="clipPath2">
      <path
         d="M 0,0 H 700.00001 V 525 H 0 Z"
         transform="translate(2.89375e-6)"
         id="path2" />
    </clipPath>
    <clipPath
       clipPathUnits="userSpaceOnUse"
       id="clipPath2-7">
      <path
         d="M 0,0 H 700.00001 V 525 H 0 Z"
         transform="translate(2.89375e-6)"
         id="path2-1" />
    </clipPath>
    <clipPath
       clipPathUnits="userSpaceOnUse"
       id="clipPath2-1">
      <path
         d="M 0,0 H 700.00001 V 525 H 0 Z"
         transform="translate(2.89375e-6)"
         id="path2-8" />
    </clipPath>
  </defs>
  <sodipodi:namedview
     id="namedview1"
     pagecolor="#ffffff"
     bordercolor="#000000"
     borderopacity="0.25"
     inkscape:showpageshadow="2"
     inkscape:pageopacity="0.0"
     inkscape:pagecheckerboard="0"
     inkscape:deskcolor="#d1d1d1"
     inkscape:zoom="0.48687068"
     inkscape:cx="747.6318"
     inkscape:cy="650.06996"
     inkscape:window-width="1920"
     inkscape:window-height="991"
     inkscape:window-x="1033"
     inkscape:window-y="2151"
     inkscape:window-maximized="1"
     inkscape:current-layer="g1">
    <inkscape:page
       x="0"
       y="0"
       inkscape:label="1"
       id="page1"
       width="560"
       height="419.99997"
       margin="0"
       bleed="0" />
  </sodipodi:namedview>
  <g
     id="g1"
     inkscape:groupmode="layer"
     inkscape:label="1">
    <path
       id="path1"
       d="M 0,0 H 700 V 525 H 0 Z"
       style="fill:#ffffff;fill-opacity:1;fill-rule:nonzero;stroke:none"
       transform="scale(0.8)"
       clip-path="url(#clipPath2)" />
    <path
       id="path3"
       d="M 0,0 H 560 V 420 H 0 Z"
       style="fill:#ffffff;fill-opacity:1;fill-rule:nonzero;stroke:none;stroke-width:0.8" />
    <path
       id="path4"
       d="M 72.8,369.6 H 507.2 V 31.2 H 72.8 Z"
       style="fill:#ffffff;fill-opacity:1;fill-rule:nonzero;stroke:none;stroke-width:0.8" />
    <path
       id="path5"
       d="M 72.8,369.6 V 31.2"
       style="fill:none;stroke:#262626;stroke-width:0.666666;stroke-linecap:butt;stroke-linejoin:round;stroke-miterlimit:10;stroke-dasharray:none;stroke-opacity:0.14902" />
    <path
       id="path6"
       d="M 181.4,369.6 V 31.2"
       style="fill:none;stroke:#262626;stroke-width:0.666666;stroke-linecap:butt;stroke-linejoin:round;stroke-miterlimit:10;stroke-dasharray:none;stroke-opacity:0.14902" />
    <path
       id="path7"
       d="M 290,369.6 V 31.2"
       style="fill:none;stroke:#262626;stroke-width:0.666666;stroke-linecap:butt;stroke-linejoin:round;stroke-miterlimit:10;stroke-dasharray:none;stroke-opacity:0.14902" />
    <path
       id="path8"
       d="M 398.6,369.6 V 31.2"
       style="fill:none;stroke:#262626;stroke-width:0.666666;stroke-linecap:butt;stroke-linejoin:round;stroke-miterlimit:10;stroke-dasharray:none;stroke-opacity:0.14902" />
    <path
       id="path9"
       d="M 507.2,369.6 V 31.2"
       style="fill:none;stroke:#262626;stroke-width:0.666666;stroke-linecap:butt;stroke-linejoin:round;stroke-miterlimit:10;stroke-dasharray:none;stroke-opacity:0.14902" />
    <path
       id="path10"
       d="M 507.2,369.6 H 72.8"
       style="fill:none;stroke:#262626;stroke-width:0.666666;stroke-linecap:butt;stroke-linejoin:round;stroke-miterlimit:10;stroke-dasharray:none;stroke-opacity:0.14902" />
    <path
       id="path11"
       d="M 507.2,321.25715 H 72.8"
       style="fill:none;stroke:#262626;stroke-width:0.666666;stroke-linecap:butt;stroke-linejoin:round;stroke-miterlimit:10;stroke-dasharray:none;stroke-opacity:0.14902" />
    <path
       id="path12"
       d="M 507.2,272.91428 H 72.8"
       style="fill:none;stroke:#262626;stroke-width:0.666666;stroke-linecap:butt;stroke-linejoin:round;stroke-miterlimit:10;stroke-dasharray:none;stroke-opacity:0.14902" />
    <path
       id="path13"
       d="M 507.2,224.57143 H 72.8"
       style="fill:none;stroke:#262626;stroke-width:0.666666;stroke-linecap:butt;stroke-linejoin:round;stroke-miterlimit:10;stroke-dasharray:none;stroke-opacity:0.14902" />
    <path
       id="path14"
       d="M 507.2,176.22858 H 72.8"
       style="fill:none;stroke:#262626;stroke-width:0.666666;stroke-linecap:butt;stroke-linejoin:round;stroke-miterlimit:10;stroke-dasharray:none;stroke-opacity:0.14902" />
    <path
       id="path15"
       d="M 507.2,127.88572 H 72.8"
       style="fill:none;stroke:#262626;stroke-width:0.666666;stroke-linecap:butt;stroke-linejoin:round;stroke-miterlimit:10;stroke-dasharray:none;stroke-opacity:0.14902" />
    <path
       id="path16"
       d="M 507.2,79.54286 H 72.8"
       style="fill:none;stroke:#262626;stroke-width:0.666666;stroke-linecap:butt;stroke-linejoin:round;stroke-miterlimit:10;stroke-dasharray:none;stroke-opacity:0.14902" />
    <path
       id="path17"
       d="M 507.2,31.2 H 72.8"
       style="fill:none;stroke:#262626;stroke-width:0.666666;stroke-linecap:butt;stroke-linejoin:round;stroke-miterlimit:10;stroke-dasharray:none;stroke-opacity:0.14902" />
    <path
       id="path18"
       d="M 72.8,369.6 H 507.2"
       style="fill:none;stroke:#262626;stroke-width:0.666666;stroke-linecap:square;stroke-linejoin:round;stroke-miterlimit:10;stroke-dasharray:none;stroke-opacity:1" />
    <path
       id="path19"
       d="M 72.8,31.2 H 507.2"
       style="fill:none;stroke:#262626;stroke-width:0.666666;stroke-linecap:square;stroke-linejoin:round;stroke-miterlimit:10;stroke-dasharray:none;stroke-opacity:1" />
    <path
       id="path20"
       d="m 72.8,369.6 v -4.34397"
       style="fill:none;stroke:#262626;stroke-width:0.666666;stroke-linecap:square;stroke-linejoin:round;stroke-miterlimit:10;stroke-dasharray:none;stroke-opacity:1" />
    <path
       id="path21"
       d="m 181.4,369.6 v -4.34397"
       style="fill:none;stroke:#262626;stroke-width:0.666666;stroke-linecap:square;stroke-linejoin:round;stroke-miterlimit:10;stroke-dasharray:none;stroke-opacity:1" />
    <path
       id="path22"
       d="m 290,369.6 v -4.34397"
       style="fill:none;stroke:#262626;stroke-width:0.666666;stroke-linecap:square;stroke-linejoin:round;stroke-miterlimit:10;stroke-dasharray:none;stroke-opacity:1" />
    <path
       id="path23"
       d="m 398.6,369.6 v -4.34397"
       style="fill:none;stroke:#262626;stroke-width:0.666666;stroke-linecap:square;stroke-linejoin:round;stroke-miterlimit:10;stroke-dasharray:none;stroke-opacity:1" />
    <path
       id="path24"
       d="m 507.2,369.6 v -4.34397"
       style="fill:none;stroke:#262626;stroke-width:0.666666;stroke-linecap:square;stroke-linejoin:round;stroke-miterlimit:10;stroke-dasharray:none;stroke-opacity:1" />
    <path
       id="path25"
       d="m 72.8,31.2 v 4.34404"
       style="fill:none;stroke:#262626;stroke-width:0.666666;stroke-linecap:square;stroke-linejoin:round;stroke-miterlimit:10;stroke-dasharray:none;stroke-opacity:1" />
    <path
       id="path26"
       d="m 181.4,31.2 v 4.34404"
       style="fill:none;stroke:#262626;stroke-width:0.666666;stroke-linecap:square;stroke-linejoin:round;stroke-miterlimit:10;stroke-dasharray:none;stroke-opacity:1" />
    <path
       id="path27"
       d="m 290,31.2 v 4.34404"
       style="fill:none;stroke:#262626;stroke-width:0.666666;stroke-linecap:square;stroke-linejoin:round;stroke-miterlimit:10;stroke-dasharray:none;stroke-opacity:1" />
    <path
       id="path28"
       d="m 398.6,31.2 v 4.34404"
       style="fill:none;stroke:#262626;stroke-width:0.666666;stroke-linecap:square;stroke-linejoin:round;stroke-miterlimit:10;stroke-dasharray:none;stroke-opacity:1" />
    <path
       id="path29"
       d="m 507.2,31.2 v 4.34404"
       style="fill:none;stroke:#262626;stroke-width:0.666666;stroke-linecap:square;stroke-linejoin:round;stroke-miterlimit:10;stroke-dasharray:none;stroke-opacity:1" />
    <path
       id="path30"
       d="m 68.317596,387.2089 c 0,-1.45703 0.148438,-2.63281 0.453125,-3.53125 0.300782,-0.89453 0.75,-1.58203 1.34375,-2.0625 0.59375,-0.48828 1.34375,-0.73438 2.25,-0.73438 0.664063,0 1.25,0.13672 1.75,0.40625 0.5,0.26172 0.910157,0.64844 1.234375,1.15625 0.332032,0.5 0.593751,1.11719 0.781251,1.84375 0.1875,0.71875 0.281249,1.69532 0.281249,2.92188 0,1.46094 -0.152344,2.63672 -0.453124,3.53125 -0.304688,0.89844 -0.750001,1.58984 -1.343751,2.07812 -0.59375,0.49219 -1.34375,0.73438 -2.25,0.73438 -1.199218,0 -2.136718,-0.42969 -2.8125,-1.29688 -0.824218,-1.03125 -1.234375,-2.71093 -1.234375,-5.04687 z m 1.5625,0 c 0,2.04297 0.238282,3.40234 0.71875,4.07812 0.476563,0.66797 1.066407,1 1.765625,1 0.695313,0 1.285157,-0.33593 1.765625,-1.01562 0.476563,-0.67578 0.71875,-2.03125 0.71875,-4.0625 0,-2.03906 -0.242187,-3.39453 -0.71875,-4.0625 -0.480468,-0.66406 -1.074218,-1 -1.78125,-1 -0.699218,0 -1.257812,0.29297 -1.671875,0.875 -0.53125,0.76172 -0.796875,2.15625 -0.796875,4.1875 z m 0,0"
       style="fill:#262626;fill-opacity:1;fill-rule:nonzero;stroke:none;stroke-width:0.8"
       aria-label="0" />
    <path
       id="path31"
       d="m 176.91916,390.0839 1.59375,-0.14063 c 0.125,0.78125 0.39844,1.3711 0.82812,1.76563 0.4375,0.38672 0.95704,0.57812 1.5625,0.57812 0.72657,0 1.34766,-0.27343 1.85938,-0.82812 0.50781,-0.55078 0.76562,-1.28125 0.76562,-2.1875 0,-0.875 -0.24609,-1.5625 -0.73437,-2.0625 -0.49219,-0.5 -1.13281,-0.75 -1.92188,-0.75 -0.49218,0 -0.93359,0.11719 -1.32812,0.34375 -0.38672,0.21875 -0.69531,0.50781 -0.92188,0.85937 l -1.4375,-0.1875 1.20313,-6.375 h 6.17187 v 1.45313 h -4.95312 l -0.67188,3.32812 c 0.75,-0.50781 1.53125,-0.76562 2.34375,-0.76562 1.08204,0 1.99219,0.375 2.73438,1.125 0.75,0.75 1.125,1.71484 1.125,2.89062 0,1.125 -0.32422,2.09375 -0.96875,2.90625 -0.80469,1.01172 -1.89063,1.51563 -3.26563,1.51563 -1.125,0 -2.04687,-0.31641 -2.76562,-0.95313 -0.71094,-0.63281 -1.11719,-1.47265 -1.21875,-2.51562 z m 0,0"
       style="fill:#262626;fill-opacity:1;fill-rule:nonzero;stroke:none;stroke-width:0.8"
       aria-label="5" />
    <path
       id="path32"
       d="m 286.45432,393.3339 h -1.51563 v -9.70313 c -0.375,0.34375 -0.85937,0.69532 -1.45312,1.04688 -0.59375,0.35547 -1.125,0.61719 -1.59375,0.78125 v -1.46875 c 0.85156,-0.39453 1.59765,-0.87891 2.23437,-1.45313 0.63281,-0.57031 1.08203,-1.125 1.34375,-1.65625 h 0.98438 z m 3.90234,-6.125 c 0,-1.45703 0.14844,-2.63281 0.45312,-3.53125 0.30078,-0.89453 0.75,-1.58203 1.34375,-2.0625 0.59375,-0.48828 1.34375,-0.73438 2.25,-0.73438 0.66407,0 1.25,0.13672 1.75,0.40625 0.5,0.26172 0.91016,0.64844 1.23438,1.15625 0.33203,0.5 0.59375,1.11719 0.78125,1.84375 0.1875,0.71875 0.28125,1.69532 0.28125,2.92188 0,1.46094 -0.15235,2.63672 -0.45313,3.53125 -0.30468,0.89844 -0.75,1.58984 -1.34375,2.07812 -0.59375,0.49219 -1.34375,0.73438 -2.25,0.73438 -1.19921,0 -2.13671,-0.42969 -2.8125,-1.29688 -0.82421,-1.03125 -1.23437,-2.71093 -1.23437,-5.04687 z m 1.5625,0 c 0,2.04297 0.23828,3.40234 0.71875,4.07812 0.47656,0.66797 1.06641,1 1.76562,1 0.69532,0 1.28516,-0.33593 1.76563,-1.01562 0.47656,-0.67578 0.71875,-2.03125 0.71875,-4.0625 0,-2.03906 -0.24219,-3.39453 -0.71875,-4.0625 -0.48047,-0.66406 -1.07422,-1 -1.78125,-1 -0.69922,0 -1.25781,0.29297 -1.67188,0.875 -0.53125,0.76172 -0.79687,2.15625 -0.79687,4.1875 z m 0,0"
       style="fill:#262626;fill-opacity:1;fill-rule:nonzero;stroke:none;stroke-width:0.8"
       aria-label="10" />
    <path
       id="path33"
       d="m 395.05197,393.3339 h -1.51562 v -9.70313 c -0.375,0.34375 -0.85938,0.69532 -1.45313,1.04688 -0.59375,0.35547 -1.125,0.61719 -1.59375,0.78125 v -1.46875 c 0.85156,-0.39453 1.59766,-0.87891 2.23438,-1.45313 0.63281,-0.57031 1.08203,-1.125 1.34375,-1.65625 h 0.98437 z m 3.90235,-3.25 1.59374,-0.14063 c 0.125,0.78125 0.39844,1.3711 0.82813,1.76563 0.4375,0.38672 0.95703,0.57812 1.5625,0.57812 0.72656,0 1.34766,-0.27343 1.85937,-0.82812 0.50782,-0.55078 0.76563,-1.28125 0.76563,-2.1875 0,-0.875 -0.24609,-1.5625 -0.73437,-2.0625 -0.49219,-0.5 -1.13282,-0.75 -1.92188,-0.75 -0.49219,0 -0.93359,0.11719 -1.32812,0.34375 -0.38672,0.21875 -0.69532,0.50781 -0.92188,0.85937 l -1.4375,-0.1875 1.20312,-6.375 h 6.17188 v 1.45313 h -4.95312 l -0.67188,3.32812 c 0.75,-0.50781 1.53125,-0.76562 2.34375,-0.76562 1.08203,0 1.99219,0.375 2.73437,1.125 0.75,0.75 1.125,1.71484 1.125,2.89062 0,1.125 -0.32421,2.09375 -0.96874,2.90625 -0.80469,1.01172 -1.89063,1.51563 -3.26563,1.51563 -1.125,0 -2.04687,-0.31641 -2.76563,-0.95313 -0.71093,-0.63281 -1.11718,-1.47265 -1.21874,-2.51562 z m 0,0"
       style="fill:#262626;fill-opacity:1;fill-rule:nonzero;stroke:none;stroke-width:0.8"
       aria-label="15" />
    <path
       id="path34"
       d="m 505.91916,391.86515 v 1.46875 h -8.1875 c -0.0234,-0.36328 0.0352,-0.71875 0.17187,-1.0625 0.20704,-0.55078 0.53907,-1.09766 1,-1.64063 0.45704,-0.53906 1.125,-1.16406 2,-1.875 1.34375,-1.11328 2.25,-1.99218 2.71875,-2.64062 0.47657,-0.64453 0.71875,-1.25391 0.71875,-1.82813 0,-0.60156 -0.21875,-1.10937 -0.65625,-1.51562 -0.42968,-0.41406 -0.98437,-0.625 -1.67187,-0.625 -0.74219,0 -1.32813,0.21875 -1.76563,0.65625 -0.4375,0.4375 -0.66406,1.04687 -0.67187,1.82812 l -1.5625,-0.15625 c 0.10156,-1.17578 0.50391,-2.0664 1.20312,-2.67187 0.70704,-0.61328 1.64844,-0.92188 2.82813,-0.92188 1.1875,0 2.125,0.33594 2.8125,1 0.69531,0.65625 1.04687,1.46875 1.04687,2.4375 0,0.5 -0.10547,0.99219 -0.3125,1.46875 -0.19921,0.48047 -0.53125,0.98438 -1,1.51563 -0.46875,0.53125 -1.25,1.26172 -2.34375,2.1875 -0.91796,0.76172 -1.50781,1.28125 -1.76562,1.5625 -0.26172,0.27344 -0.47656,0.54297 -0.64063,0.8125 z m 1.63672,-4.65625 c 0,-1.45703 0.14844,-2.63281 0.45312,-3.53125 0.30078,-0.89453 0.75,-1.58203 1.34375,-2.0625 0.59375,-0.48828 1.34375,-0.73438 2.25,-0.73438 0.66407,0 1.25,0.13672 1.75,0.40625 0.5,0.26172 0.91016,0.64844 1.23438,1.15625 0.33203,0.5 0.59375,1.11719 0.78125,1.84375 0.1875,0.71875 0.28125,1.69532 0.28125,2.92188 0,1.46094 -0.15235,2.63672 -0.45313,3.53125 -0.30468,0.89844 -0.75,1.58984 -1.34375,2.07812 -0.59375,0.49219 -1.34375,0.73438 -2.25,0.73438 -1.19922,0 -2.13672,-0.42969 -2.8125,-1.29688 -0.82422,-1.03125 -1.23437,-2.71093 -1.23437,-5.04687 z m 1.5625,0 c 0,2.04297 0.23828,3.40234 0.71875,4.07812 0.47656,0.66797 1.0664,1 1.76562,1 0.69531,0 1.28516,-0.33593 1.76563,-1.01562 0.47656,-0.67578 0.71875,-2.03125 0.71875,-4.0625 0,-2.03906 -0.24219,-3.39453 -0.71875,-4.0625 -0.48047,-0.66406 -1.07422,-1 -1.78125,-1 -0.69922,0 -1.25781,0.29297 -1.67188,0.875 -0.53125,0.76172 -0.79687,2.15625 -0.79687,4.1875 z m 0,0"
       style="fill:#262626;fill-opacity:1;fill-rule:nonzero;stroke:none;stroke-width:0.8"
       aria-label="20" />
    <path
       id="path35"
       d="m 268.33323,414.93937 c 0.75781,0.52344 1.46093,0.90625 2.10937,1.15625 l -0.48437,1.14063 c -0.88672,-0.32422 -1.77344,-0.83594 -2.65625,-1.53125 -0.92969,0.52343 -1.94532,0.78125 -3.04688,0.78125 -1.125,0 -2.14844,-0.26953 -3.0625,-0.8125 -0.91797,-0.53907 -1.62109,-1.30078 -2.10937,-2.28125 -0.49219,-0.98828 -0.73438,-2.09766 -0.73438,-3.32813 0,-1.21875 0.24219,-2.32812 0.73438,-3.32812 0.5,-1.00782 1.20703,-1.77344 2.125,-2.29688 0.91406,-0.53125 1.9414,-0.79687 3.07812,-0.79687 1.14453,0 2.17578,0.27734 3.09375,0.82812 0.91406,0.54297 1.61328,1.30469 2.09375,2.28125 0.48828,0.96875 0.73438,2.07422 0.73438,3.3125 0,1.02344 -0.15625,1.9375 -0.46875,2.75 -0.3125,0.8125 -0.78125,1.52344 -1.40625,2.125 z m -3.60938,-2.09375 c 0.94531,0.26172 1.72656,0.65625 2.34375,1.1875 0.96875,-0.88281 1.45313,-2.20703 1.45313,-3.96875 0,-1.00781 -0.17188,-1.89062 -0.51563,-2.64062 -0.34375,-0.75 -0.84375,-1.32813 -1.5,-1.73438 -0.65625,-0.41406 -1.39844,-0.625 -2.21875,-0.625 -1.21875,0 -2.23437,0.41797 -3.04687,1.25 -0.80469,0.83594 -1.20313,2.08594 -1.20313,3.75 0,1.61719 0.39453,2.85547 1.1875,3.71875 0.80078,0.86719 1.82031,1.29688 3.0625,1.29688 0.59375,0 1.14453,-0.10938 1.65625,-0.32813 -0.51172,-0.33203 -1.05469,-0.57031 -1.625,-0.71875 z m 12.35156,6.85938 v -15.84375 h 3.35938 v 1.26562 h -1.82813 V 418.455 h 1.82813 v 1.25 z m 4.75782,-3.4375 v -12.40625 h 1.51562 v 12.40625 z m 2.73828,0.21875 3.59375,-12.82813 h 1.21875 l -3.57813,12.82813 z m 5.96093,-0.21875 v -8.98438 h 1.35938 v 1.26563 c 0.28125,-0.44532 0.65625,-0.80078 1.125,-1.0625 0.46875,-0.26954 1.00391,-0.40625 1.60938,-0.40625 0.66406,0 1.20703,0.14062 1.625,0.42187 0.42578,0.27344 0.72656,0.65625 0.90624,1.15625 0.70704,-1.05078 1.63282,-1.57812 2.78126,-1.57812 0.88281,0 1.5664,0.25 2.04687,0.75 0.47656,0.49218 0.71875,1.24609 0.71875,2.26562 v 6.17188 h -1.51562 v -5.65625 c 0,-0.61328 -0.0547,-1.05078 -0.15626,-1.3125 -0.0937,-0.26953 -0.27343,-0.48828 -0.53124,-0.65625 -0.25,-0.16407 -0.55469,-0.25 -0.90626,-0.25 -0.63671,0 -1.16406,0.21484 -1.57812,0.64062 -0.41797,0.41797 -0.625,1.08985 -0.625,2.01563 v 5.21875 h -1.51562 v -5.84375 c 0,-0.67578 -0.125,-1.17969 -0.375,-1.51563 -0.25,-0.34375 -0.65626,-0.51562 -1.21876,-0.51562 -0.42968,0 -0.82421,0.11718 -1.1875,0.34375 -0.36718,0.23047 -0.63281,0.5625 -0.79687,1 -0.15625,0.42968 -0.23437,1.05468 -0.23437,1.875 v 4.65625 z m 14.45313,-10.65625 v -1.75 h 1.51563 v 1.75 z m 0,10.65625 v -8.98438 h 1.51563 v 8.98438 z m 3.83203,0 v -8.98438 h 1.375 v 1.28125 c 0.65625,-0.98828 1.60938,-1.48437 2.85938,-1.48437 0.53906,0 1.03515,0.10156 1.48437,0.29687 0.45703,0.1875 0.79688,0.44531 1.01563,0.76563 0.22656,0.3125 0.39062,0.6875 0.48437,1.125 0.0508,0.28125 0.0781,0.77343 0.0781,1.46875 v 5.53125 h -1.51563 v -5.46875 c 0,-0.61328 -0.0625,-1.07032 -0.1875,-1.375 -0.11719,-0.3125 -0.32422,-0.5625 -0.625,-0.75 -0.30469,-0.1875 -0.65625,-0.28125 -1.0625,-0.28125 -0.64844,0 -1.20312,0.21093 -1.67187,0.625 -0.46875,0.40625 -0.70313,1.1875 -0.70313,2.34375 v 4.90625 z m 12.1836,3.4375 h -3.35938 v -1.25 h 1.84375 v -13.32813 h -1.84375 v -1.26562 h 3.35938 z m 0,0"
       style="fill:#262626;fill-opacity:1;fill-rule:nonzero;stroke:none;stroke-width:0.8"
       aria-label="Q [l/min]" />
    <path
       id="path36"
       d="M 72.8,369.6 V 31.2"
       style="fill:none;stroke:#262626;stroke-width:0.666666;stroke-linecap:square;stroke-linejoin:round;stroke-miterlimit:10;stroke-dasharray:none;stroke-opacity:1" />
    <path
       id="path37"
       d="M 507.2,369.6 V 31.2"
       style="fill:none;stroke:#262626;stroke-width:0.666666;stroke-linecap:square;stroke-linejoin:round;stroke-miterlimit:10;stroke-dasharray:none;stroke-opacity:1" />
    <path
       id="path38"
       d="m 72.8,369.6 h 4.344"
       style="fill:none;stroke:#262626;stroke-width:0.666666;stroke-linecap:square;stroke-linejoin:round;stroke-miterlimit:10;stroke-dasharray:none;stroke-opacity:1" />
    <path
       id="path39"
       d="m 72.8,321.25715 h 4.344"
       style="fill:none;stroke:#262626;stroke-width:0.666666;stroke-linecap:square;stroke-linejoin:round;stroke-miterlimit:10;stroke-dasharray:none;stroke-opacity:1" />
    <path
       id="path40"
       d="m 72.8,272.91428 h 4.344"
       style="fill:none;stroke:#262626;stroke-width:0.666666;stroke-linecap:square;stroke-linejoin:round;stroke-miterlimit:10;stroke-dasharray:none;stroke-opacity:1" />
    <path
       id="path41"
       d="m 72.8,224.57143 h 4.344"
       style="fill:none;stroke:#262626;stroke-width:0.666666;stroke-linecap:square;stroke-linejoin:round;stroke-miterlimit:10;stroke-dasharray:none;stroke-opacity:1" />
    <path
       id="path42"
       d="m 72.8,176.22858 h 4.344"
       style="fill:none;stroke:#262626;stroke-width:0.666666;stroke-linecap:square;stroke-linejoin:round;stroke-miterlimit:10;stroke-dasharray:none;stroke-opacity:1" />
    <path
       id="path43"
       d="m 72.8,127.88572 h 4.344"
       style="fill:none;stroke:#262626;stroke-width:0.666666;stroke-linecap:square;stroke-linejoin:round;stroke-miterlimit:10;stroke-dasharray:none;stroke-opacity:1" />
    <path
       id="path44"
       d="m 72.8,79.54286 h 4.344"
       style="fill:none;stroke:#262626;stroke-width:0.666666;stroke-linecap:square;stroke-linejoin:round;stroke-miterlimit:10;stroke-dasharray:none;stroke-opacity:1" />
    <path
       id="path45"
       d="m 72.8,31.2 h 4.344"
       style="fill:none;stroke:#262626;stroke-width:0.666666;stroke-linecap:square;stroke-linejoin:round;stroke-miterlimit:10;stroke-dasharray:none;stroke-opacity:1" />
    <path
       id="path46"
       d="m 507.2,369.6 h -4.34399"
       style="fill:none;stroke:#262626;stroke-width:0.666666;stroke-linecap:square;stroke-linejoin:round;stroke-miterlimit:10;stroke-dasharray:none;stroke-opacity:1" />
    <path
       id="path47"
       d="m 507.2,321.25715 h -4.34399"
       style="fill:none;stroke:#262626;stroke-width:0.666666;stroke-linecap:square;stroke-linejoin:round;stroke-miterlimit:10;stroke-dasharray:none;stroke-opacity:1" />
    <path
       id="path48"
       d="m 507.2,272.91428 h -4.34399"
       style="fill:none;stroke:#262626;stroke-width:0.666666;stroke-linecap:square;stroke-linejoin:round;stroke-miterlimit:10;stroke-dasharray:none;stroke-opacity:1" />
    <path
       id="path49"
       d="m 507.2,224.57143 h -4.34399"
       style="fill:none;stroke:#262626;stroke-width:0.666666;stroke-linecap:square;stroke-linejoin:round;stroke-miterlimit:10;stroke-dasharray:none;stroke-opacity:1" />
    <path
       id="path50"
       d="m 507.2,176.22858 h -4.34399"
       style="fill:none;stroke:#262626;stroke-width:0.666666;stroke-linecap:square;stroke-linejoin:round;stroke-miterlimit:10;stroke-dasharray:none;stroke-opacity:1" />
    <path
       id="path51"
       d="m 507.2,127.88572 h -4.34399"
       style="fill:none;stroke:#262626;stroke-width:0.666666;stroke-linecap:square;stroke-linejoin:round;stroke-miterlimit:10;stroke-dasharray:none;stroke-opacity:1" />
    <path
       id="path52"
       d="m 507.2,79.54286 h -4.34399"
       style="fill:none;stroke:#262626;stroke-width:0.666666;stroke-linecap:square;stroke-linejoin:round;stroke-miterlimit:10;stroke-dasharray:none;stroke-opacity:1" />
    <path
       id="path53"
       d="m 507.2,31.2 h -4.34399"
       style="fill:none;stroke:#262626;stroke-width:0.666666;stroke-linecap:square;stroke-linejoin:round;stroke-miterlimit:10;stroke-dasharray:none;stroke-opacity:1" />
    <path
       id="path54"
       d="m 45.786348,374.93156 v 1.46875 h -8.1875 c -0.02344,-0.36328 0.03516,-0.71875 0.171875,-1.0625 0.207031,-0.55078 0.539062,-1.09766 1,-1.64063 0.457031,-0.53906 1.125,-1.16406 2,-1.875 1.34375,-1.11328 2.25,-1.99218 2.71875,-2.64062 0.476562,-0.64453 0.71875,-1.25391 0.71875,-1.82813 0,-0.60156 -0.21875,-1.10937 -0.65625,-1.51562 -0.429688,-0.41406 -0.984375,-0.625 -1.671875,-0.625 -0.742188,0 -1.328125,0.21875 -1.765625,0.65625 -0.4375,0.4375 -0.664063,1.04687 -0.671875,1.82812 l -1.5625,-0.15625 c 0.101562,-1.17578 0.503906,-2.0664 1.203125,-2.67187 0.707031,-0.61328 1.648437,-0.92188 2.828125,-0.92188 1.1875,0 2.125,0.33594 2.8125,1 0.695312,0.65625 1.046875,1.46875 1.046875,2.4375 0,0.5 -0.105469,0.99219 -0.3125,1.46875 -0.199219,0.48047 -0.53125,0.98438 -1,1.51563 -0.46875,0.53125 -1.25,1.26172 -2.34375,2.1875 -0.917969,0.76172 -1.507813,1.28125 -1.765625,1.5625 -0.261719,0.27344 -0.476563,0.54297 -0.640625,0.8125 z m 1.636719,-1.78125 1.593749,-0.14063 c 0.125,0.78125 0.398438,1.3711 0.828125,1.76563 0.4375,0.38672 0.957031,0.57812 1.5625,0.57812 0.726563,0 1.347657,-0.27343 1.859375,-0.82812 0.507813,-0.55078 0.765625,-1.28125 0.765625,-2.1875 0,-0.875 -0.246093,-1.5625 -0.734374,-2.0625 -0.492188,-0.5 -1.132813,-0.75 -1.921875,-0.75 -0.492188,0 -0.933594,0.11719 -1.328125,0.34375 -0.386719,0.21875 -0.695313,0.50781 -0.921875,0.85937 l -1.4375,-0.1875 1.203124,-6.375 h 6.171876 v 1.45313 h -4.953125 l -0.671875,3.32812 c 0.75,-0.50781 1.531249,-0.76562 2.343749,-0.76562 1.082031,0 1.992188,0.375 2.734375,1.125 0.75,0.75 1.125,1.71484 1.125,2.89062 0,1.125 -0.324218,2.09375 -0.968749,2.90625 -0.804688,1.01172 -1.890626,1.51563 -3.265626,1.51563 -1.125,0 -2.046874,-0.31641 -2.765625,-0.95313 -0.710937,-0.63281 -1.117187,-1.47265 -1.218749,-2.51562 z m 9.636718,-2.875 c 0,-1.45703 0.148438,-2.63281 0.453125,-3.53125 0.300782,-0.89453 0.75,-1.58203 1.34375,-2.0625 0.59375,-0.48828 1.34375,-0.73438 2.25,-0.73438 0.664063,0 1.25,0.13672 1.75,0.40625 0.5,0.26172 0.910156,0.64844 1.234376,1.15625 0.332031,0.5 0.593749,1.11719 0.781249,1.84375 0.1875,0.71875 0.281251,1.69532 0.281251,2.92188 0,1.46094 -0.152344,2.63672 -0.453126,3.53125 -0.304687,0.89844 -0.75,1.58984 -1.34375,2.07812 -0.59375,0.49219 -1.34375,0.73438 -2.25,0.73438 -1.199219,0 -2.136719,-0.42969 -2.8125,-1.29688 -0.824219,-1.03125 -1.234375,-2.71093 -1.234375,-5.04687 z m 1.5625,0 c 0,2.04297 0.238282,3.40234 0.718751,4.07812 0.476562,0.66797 1.066405,1 1.765624,1 0.695312,0 1.285156,-0.33593 1.765625,-1.01562 0.476563,-0.67578 0.718751,-2.03125 0.718751,-4.0625 0,-2.03906 -0.242188,-3.39453 -0.718751,-4.0625 -0.480469,-0.66406 -1.074218,-1 -1.781249,-1 -0.69922,0 -1.257813,0.29297 -1.671876,0.875 -0.53125,0.76172 -0.796875,2.15625 -0.796875,4.1875 z m 0,0"
       style="fill:#262626;fill-opacity:1;fill-rule:nonzero;stroke:none;stroke-width:0.8"
       aria-label="250" />
    <path
       id="path55"
       d="m 45.786348,326.58781 v 1.46875 h -8.1875 c -0.02344,-0.36329 0.03516,-0.71875 0.171875,-1.0625 0.207031,-0.55079 0.539062,-1.09766 1,-1.64063 0.457031,-0.53906 1.125,-1.16406 2,-1.875 1.34375,-1.11328 2.25,-1.99219 2.71875,-2.64062 0.476562,-0.64454 0.71875,-1.25391 0.71875,-1.82813 0,-0.60156 -0.21875,-1.10937 -0.65625,-1.51562 -0.429688,-0.41407 -0.984375,-0.625 -1.671875,-0.625 -0.742188,0 -1.328125,0.21875 -1.765625,0.65625 -0.4375,0.4375 -0.664063,1.04687 -0.671875,1.82812 l -1.5625,-0.15625 c 0.101562,-1.17578 0.503906,-2.06641 1.203125,-2.67187 0.707031,-0.61329 1.648437,-0.92188 2.828125,-0.92188 1.1875,0 2.125,0.33594 2.8125,1 0.695312,0.65625 1.046875,1.46875 1.046875,2.4375 0,0.5 -0.105469,0.99219 -0.3125,1.46875 -0.199219,0.48047 -0.53125,0.98438 -1,1.51563 -0.46875,0.53125 -1.25,1.26171 -2.34375,2.1875 -0.917969,0.76171 -1.507813,1.28125 -1.765625,1.5625 -0.261719,0.27343 -0.476563,0.54296 -0.640625,0.8125 z m 9.542968,-7.89063 -1.515624,0.10938 c -0.13672,-0.59375 -0.328125,-1.02344 -0.578125,-1.29688 -0.406251,-0.4375 -0.914063,-0.65625 -1.515626,-0.65625 -0.492187,0 -0.917969,0.13672 -1.281249,0.40625 -0.480469,0.35547 -0.859376,0.86719 -1.140625,1.53125 -0.273438,0.66797 -0.414063,1.625 -0.421875,2.875 0.36328,-0.5625 0.8125,-0.97656 1.343749,-1.25 0.531251,-0.26953 1.082031,-0.40625 1.656251,-0.40625 1.019531,0 1.882812,0.375 2.593749,1.125 0.718751,0.75 1.078126,1.71484 1.078126,2.89063 0,0.78125 -0.171875,1.50781 -0.515626,2.17187 -0.335937,0.66797 -0.792969,1.18359 -1.375,1.54688 -0.585937,0.35156 -1.25,0.53125 -2,0.53125 -1.273437,0 -2.308593,-0.46875 -3.109374,-1.40625 -0.792969,-0.9375 -1.1875,-2.47266 -1.1875,-4.60938 0,-2.40625 0.441405,-4.14844 1.328125,-5.23437 0.769531,-0.94532 1.8125,-1.42188 3.125,-1.42188 0.968749,0 1.765624,0.27734 2.390624,0.82813 0.625,0.54296 1,1.29687 1.125,2.26562 z m -6.218749,5.34375 c 0,0.52344 0.109374,1.02344 0.328125,1.5 0.226562,0.48047 0.539062,0.84375 0.9375,1.09375 0.394531,0.25 0.816406,0.375 1.265624,0.375 0.632813,0 1.179688,-0.25391 1.640625,-0.76562 0.468751,-0.51954 0.703126,-1.22657 0.703126,-2.125 0,-0.85157 -0.230469,-1.52344 -0.6875,-2.01563 -0.449219,-0.5 -1.023438,-0.75 -1.718751,-0.75 -0.6875,0 -1.273437,0.25 -1.75,0.75 -0.480468,0.49219 -0.718749,1.13672 -0.718749,1.9375 z m 7.949218,-2.10937 c 0,-1.45704 0.148438,-2.63282 0.453125,-3.53125 0.300782,-0.89454 0.75,-1.58204 1.34375,-2.0625 0.59375,-0.48829 1.34375,-0.73438 2.25,-0.73438 0.664063,0 1.25,0.13672 1.75,0.40625 0.5,0.26172 0.910156,0.64844 1.234376,1.15625 0.332031,0.5 0.593749,1.11719 0.781249,1.84375 0.1875,0.71875 0.281251,1.69531 0.281251,2.92188 0,1.46093 -0.152344,2.63671 -0.453126,3.53125 -0.304687,0.89843 -0.75,1.58984 -1.34375,2.07812 -0.59375,0.49219 -1.34375,0.73438 -2.25,0.73438 -1.199219,0 -2.136719,-0.42969 -2.8125,-1.29688 -0.824219,-1.03125 -1.234375,-2.71094 -1.234375,-5.04687 z m 1.5625,0 c 0,2.04296 0.238282,3.40234 0.718751,4.07812 0.476562,0.66797 1.066405,1 1.765624,1 0.695312,0 1.285156,-0.33594 1.765625,-1.01562 0.476563,-0.67579 0.718751,-2.03125 0.718751,-4.0625 0,-2.03907 -0.242188,-3.39454 -0.718751,-4.0625 -0.480469,-0.66407 -1.074218,-1 -1.781249,-1 -0.69922,0 -1.257813,0.29296 -1.671876,0.875 -0.53125,0.76171 -0.796875,2.15625 -0.796875,4.1875 z m 0,0"
       style="fill:#262626;fill-opacity:1;fill-rule:nonzero;stroke:none;stroke-width:0.8"
       aria-label="260" />
    <path
       id="path56"
       d="m 45.786348,278.24406 v 1.46875 h -8.1875 c -0.02344,-0.36328 0.03516,-0.71875 0.171875,-1.0625 0.207031,-0.55078 0.539062,-1.09766 1,-1.64063 0.457031,-0.53906 1.125,-1.16406 2,-1.875 1.34375,-1.11328 2.25,-1.99219 2.71875,-2.64062 0.476562,-0.64453 0.71875,-1.25391 0.71875,-1.82813 0,-0.60156 -0.21875,-1.10937 -0.65625,-1.51562 -0.429688,-0.41407 -0.984375,-0.625 -1.671875,-0.625 -0.742188,0 -1.328125,0.21875 -1.765625,0.65625 -0.4375,0.4375 -0.664063,1.04687 -0.671875,1.82812 l -1.5625,-0.15625 c 0.101562,-1.17578 0.503906,-2.0664 1.203125,-2.67187 0.707031,-0.61328 1.648437,-0.92188 2.828125,-0.92188 1.1875,0 2.125,0.33594 2.8125,1 0.695312,0.65625 1.046875,1.46875 1.046875,2.4375 0,0.5 -0.105469,0.99219 -0.3125,1.46875 -0.199219,0.48047 -0.53125,0.98438 -1,1.51563 -0.46875,0.53125 -1.25,1.26172 -2.34375,2.1875 -0.917969,0.76172 -1.507813,1.28125 -1.765625,1.5625 -0.261719,0.27343 -0.476563,0.54297 -0.640625,0.8125 z m 1.746093,-9.3125 v -1.46875 h 8.015626 v 1.1875 c -0.781251,0.84375 -1.5625,1.96484 -2.343751,3.35937 -0.773437,1.38672 -1.371093,2.82031 -1.796875,4.29688 -0.304687,1.03125 -0.496093,2.16797 -0.578125,3.40625 h -1.5625 c 0.0078,-0.97657 0.195313,-2.15625 0.5625,-3.53125 0.375,-1.38282 0.898438,-2.71875 1.578125,-4 0.6875,-1.28125 1.414063,-2.36328 2.1875,-3.25 z m 9.527344,4.65625 c 0,-1.45703 0.148438,-2.63282 0.453125,-3.53125 0.300782,-0.89453 0.75,-1.58203 1.34375,-2.0625 0.59375,-0.48828 1.34375,-0.73438 2.25,-0.73438 0.664063,0 1.25,0.13672 1.75,0.40625 0.5,0.26172 0.910156,0.64844 1.234376,1.15625 0.332031,0.5 0.593749,1.11719 0.781249,1.84375 0.1875,0.71875 0.281251,1.69531 0.281251,2.92188 0,1.46093 -0.152344,2.63672 -0.453126,3.53125 -0.304687,0.89843 -0.75,1.58984 -1.34375,2.07812 -0.59375,0.49219 -1.34375,0.73438 -2.25,0.73438 -1.199219,0 -2.136719,-0.42969 -2.8125,-1.29688 -0.824219,-1.03125 -1.234375,-2.71094 -1.234375,-5.04687 z m 1.5625,0 c 0,2.04297 0.238282,3.40234 0.718751,4.07812 0.476562,0.66797 1.066405,1 1.765624,1 0.695312,0 1.285156,-0.33594 1.765625,-1.01562 0.476563,-0.67578 0.718751,-2.03125 0.718751,-4.0625 0,-2.03907 -0.242188,-3.39453 -0.718751,-4.0625 -0.480469,-0.66407 -1.074218,-1 -1.781249,-1 -0.69922,0 -1.257813,0.29297 -1.671876,0.875 -0.53125,0.76172 -0.796875,2.15625 -0.796875,4.1875 z m 0,0"
       style="fill:#262626;fill-opacity:1;fill-rule:nonzero;stroke:none;stroke-width:0.8"
       aria-label="270" />
    <path
       id="path57"
       d="m 45.786348,229.90421 v 1.46875 h -8.1875 c -0.02344,-0.36328 0.03516,-0.71875 0.171875,-1.0625 0.207031,-0.55078 0.539062,-1.09766 1,-1.64063 0.457031,-0.53906 1.125,-1.16406 2,-1.875 1.34375,-1.11328 2.25,-1.99218 2.71875,-2.64062 0.476562,-0.64453 0.71875,-1.25391 0.71875,-1.82812 0,-0.60157 -0.21875,-1.10938 -0.65625,-1.51563 -0.429688,-0.41406 -0.984375,-0.625 -1.671875,-0.625 -0.742188,0 -1.328125,0.21875 -1.765625,0.65625 -0.4375,0.4375 -0.664063,1.04688 -0.671875,1.82812 l -1.5625,-0.15624 c 0.101562,-1.17579 0.503906,-2.06641 1.203125,-2.67188 0.707031,-0.61328 1.648437,-0.92188 2.828125,-0.92188 1.1875,0 2.125,0.33594 2.8125,1 0.695312,0.65626 1.046875,1.46876 1.046875,2.4375 0,0.5 -0.105469,0.99219 -0.3125,1.46875 -0.199219,0.48047 -0.53125,0.98438 -1,1.51563 -0.46875,0.53125 -1.25,1.26172 -2.34375,2.1875 -0.917969,0.76172 -1.507813,1.28125 -1.765625,1.5625 -0.261719,0.27344 -0.476563,0.54297 -0.640625,0.8125 z m 3.980468,-5.25 c -0.636718,-0.23828 -1.105468,-0.57031 -1.406249,-1 -0.304688,-0.42578 -0.453126,-0.9375 -0.453126,-1.53125 0,-0.90625 0.320313,-1.66406 0.968751,-2.28125 0.644531,-0.61328 1.507812,-0.92188 2.593749,-0.92188 1.082031,0 1.953126,0.32032 2.609375,0.95313 0.664063,0.625 1,1.38672 1,2.28125 0,0.58594 -0.152344,1.08984 -0.453124,1.51562 -0.304688,0.41797 -0.76172,0.7461 -1.375,0.98438 0.757812,0.24219 1.335937,0.63672 1.734375,1.1875 0.394531,0.55469 0.593749,1.21484 0.593749,1.98437 0,1.0625 -0.375,1.96094 -1.125,2.6875 -0.75,0.71875 -1.742187,1.07813 -2.968749,1.07813 -1.218751,0 -2.203126,-0.36328 -2.953126,-1.09375 -0.75,-0.72656 -1.125,-1.63281 -1.125,-2.71875 0,-0.80078 0.203126,-1.47266 0.609375,-2.01563 0.406251,-0.55078 0.988282,-0.92187 1.75,-1.10937 z m -0.296875,-2.59375 c 0,0.59375 0.1875,1.07813 0.5625,1.45312 0.375,0.36719 0.863282,0.54688 1.468751,0.54688 0.582031,0 1.0625,-0.17969 1.4375,-0.54688 0.375,-0.37499 0.5625,-0.82812 0.5625,-1.35937 0,-0.5625 -0.195313,-1.03125 -0.578125,-1.40625 -0.386719,-0.38281 -0.867188,-0.57813 -1.4375,-0.57813 -0.585938,0 -1.070313,0.1875 -1.453126,0.5625 -0.375,0.375 -0.5625,0.82032 -0.5625,1.32813 z m -0.5,5.73437 c 0,0.4375 0.101563,0.85938 0.3125,1.26563 0.207031,0.40625 0.515626,0.71875 0.921875,0.9375 0.406251,0.21875 0.843751,0.32812 1.3125,0.32812 0.718751,0 1.3125,-0.22656 1.781251,-0.6875 0.476562,-0.46875 0.718749,-1.0664 0.718749,-1.79687 0,-0.72656 -0.246093,-1.33203 -0.734375,-1.8125 -0.480469,-0.47656 -1.089843,-0.71875 -1.828125,-0.71875 -0.710937,0 -1.304687,0.24219 -1.781249,0.71875 -0.468751,0.46875 -0.703126,1.05859 -0.703126,1.76562 z m 8.089844,-2.54687 c 0,-1.45703 0.148438,-2.63281 0.453125,-3.53125 0.300782,-0.89453 0.75,-1.58203 1.34375,-2.0625 0.59375,-0.48828 1.34375,-0.73438 2.25,-0.73438 0.664063,0 1.25,0.13672 1.75,0.40626 0.5,0.26171 0.910156,0.64843 1.234376,1.15624 0.332031,0.5 0.593749,1.11719 0.781249,1.84376 0.1875,0.71874 0.281251,1.69531 0.281251,2.92187 0,1.46094 -0.152344,2.63672 -0.453126,3.53125 -0.304687,0.89844 -0.75,1.58984 -1.34375,2.07812 -0.59375,0.49219 -1.34375,0.73438 -2.25,0.73438 -1.199219,0 -2.136719,-0.42969 -2.8125,-1.29688 -0.824219,-1.03125 -1.234375,-2.71093 -1.234375,-5.04687 z m 1.5625,0 c 0,2.04297 0.238282,3.40234 0.718751,4.07812 0.476562,0.66797 1.066405,1 1.765624,1 0.695312,0 1.285156,-0.33593 1.765625,-1.01562 0.476563,-0.67578 0.718751,-2.03125 0.718751,-4.0625 0,-2.03906 -0.242188,-3.39453 -0.718751,-4.0625 -0.480469,-0.66406 -1.074218,-1 -1.781249,-1 -0.69922,0 -1.257813,0.29297 -1.671876,0.875 -0.53125,0.76172 -0.796875,2.15625 -0.796875,4.1875 z m 0,0"
       style="fill:#262626;fill-opacity:1;fill-rule:nonzero;stroke:none;stroke-width:0.8"
       aria-label="280" />
    <path
       id="path58"
       d="m 45.786348,181.56046 v 1.46875 h -8.1875 c -0.02344,-0.36328 0.03516,-0.71875 0.171875,-1.0625 0.207031,-0.55078 0.539062,-1.09766 1,-1.64063 0.457031,-0.53906 1.125,-1.16406 2,-1.875 1.34375,-1.11328 2.25,-1.99218 2.71875,-2.64062 0.476562,-0.64453 0.71875,-1.25391 0.71875,-1.82813 0,-0.60156 -0.21875,-1.10937 -0.65625,-1.51562 -0.429688,-0.41406 -0.984375,-0.625 -1.671875,-0.625 -0.742188,0 -1.328125,0.21875 -1.765625,0.65625 -0.4375,0.4375 -0.664063,1.04687 -0.671875,1.82812 l -1.5625,-0.15625 c 0.101562,-1.17578 0.503906,-2.0664 1.203125,-2.67187 0.707031,-0.61328 1.648437,-0.92188 2.828125,-0.92188 1.1875,0 2.125,0.33594 2.8125,1 0.695312,0.65625 1.046875,1.46875 1.046875,2.4375 0,0.5 -0.105469,0.99219 -0.3125,1.46875 -0.199219,0.48047 -0.53125,0.98438 -1,1.51563 -0.46875,0.53125 -1.25,1.26172 -2.34375,2.1875 -0.917969,0.76172 -1.507813,1.28125 -1.765625,1.5625 -0.261719,0.27344 -0.476563,0.54297 -0.640625,0.8125 z m 1.871093,-1.40625 1.453126,-0.125 c 0.125,0.6875 0.359374,1.1875 0.703125,1.5 0.351562,0.30469 0.804687,0.45312 1.359375,0.45312 0.468749,0 0.878905,-0.10156 1.234374,-0.3125 0.351563,-0.21875 0.640626,-0.5039 0.859375,-0.85937 0.226563,-0.36328 0.414063,-0.84766 0.5625,-1.45313 0.156251,-0.60156 0.234376,-1.22265 0.234376,-1.85937 0,-0.0703 0,-0.17578 0,-0.3125 -0.3125,0.49219 -0.734376,0.88672 -1.265625,1.1875 -0.523438,0.30469 -1.089844,0.45312 -1.703126,0.45312 -1.031249,0 -1.902343,-0.36718 -2.609374,-1.10937 -0.710938,-0.75 -1.0625,-1.73438 -1.0625,-2.95313 0,-1.25781 0.367187,-2.26953 1.109374,-3.03125 0.738282,-0.76953 1.671875,-1.15625 2.796875,-1.15625 0.800782,0 1.535156,0.21875 2.203125,0.65625 0.664063,0.42969 1.171875,1.04688 1.515626,1.85938 0.351562,0.80469 0.531249,1.96484 0.531249,3.48437 0,1.58594 -0.171875,2.84375 -0.515624,3.78125 -0.343751,0.9375 -0.859376,1.65625 -1.546876,2.15625 -0.679687,0.49219 -1.468749,0.73438 -2.375,0.73438 -0.968749,0 -1.761718,-0.26953 -2.375,-0.8125 -0.617187,-0.53906 -0.984375,-1.30078 -1.109375,-2.28125 z m 6.234375,-5.46875 c 0,-0.875 -0.234375,-1.56641 -0.703124,-2.07813 -0.468751,-0.50781 -1.027344,-0.76562 -1.671876,-0.76562 -0.679687,0 -1.273437,0.27734 -1.781249,0.82812 -0.5,0.55469 -0.75,1.26563 -0.75,2.14063 0,0.79297 0.238281,1.4375 0.718749,1.9375 0.476563,0.49219 1.066407,0.73437 1.765625,0.73437 0.707031,0 1.285157,-0.24218 1.734375,-0.73437 0.457032,-0.5 0.6875,-1.1875 0.6875,-2.0625 z m 3.167969,2.21875 c 0,-1.45703 0.148438,-2.63281 0.453125,-3.53125 0.300782,-0.89453 0.75,-1.58203 1.34375,-2.0625 0.59375,-0.48828 1.34375,-0.73438 2.25,-0.73438 0.664063,0 1.25,0.13672 1.75,0.40625 0.5,0.26172 0.910156,0.64844 1.234376,1.15625 0.332031,0.5 0.593749,1.11719 0.781249,1.84375 0.1875,0.71875 0.281251,1.69532 0.281251,2.92188 0,1.46094 -0.152344,2.63672 -0.453126,3.53125 -0.304687,0.89844 -0.75,1.58984 -1.34375,2.07812 -0.59375,0.49219 -1.34375,0.73438 -2.25,0.73438 -1.199219,0 -2.136719,-0.42969 -2.8125,-1.29688 -0.824219,-1.03125 -1.234375,-2.71093 -1.234375,-5.04687 z m 1.5625,0 c 0,2.04297 0.238282,3.40234 0.718751,4.07812 0.476562,0.66797 1.066405,1 1.765624,1 0.695312,0 1.285156,-0.33593 1.765625,-1.01562 0.476563,-0.67578 0.718751,-2.03125 0.718751,-4.0625 0,-2.03906 -0.242188,-3.39453 -0.718751,-4.0625 -0.480469,-0.66406 -1.074218,-1 -1.781249,-1 -0.69922,0 -1.257813,0.29297 -1.671876,0.875 -0.53125,0.76172 -0.796875,2.15625 -0.796875,4.1875 z m 0,0"
       style="fill:#262626;fill-opacity:1;fill-rule:nonzero;stroke:none;stroke-width:0.8"
       aria-label="290" />
    <path
       id="path59"
       d="m 37.801973,131.40421 1.515625,-0.20313 c 0.175781,0.86719 0.472656,1.49219 0.890625,1.875 0.425781,0.375 0.9375,0.5625 1.53125,0.5625 0.71875,0 1.320312,-0.24218 1.8125,-0.73437 0.5,-0.5 0.75,-1.11328 0.75,-1.84375 0,-0.69531 -0.230469,-1.27344 -0.6875,-1.73438 -0.460938,-0.45703 -1.039063,-0.6875 -1.734375,-0.6875 -0.292969,0 -0.652344,0.0586 -1.078125,0.17188 l 0.171875,-1.32813 c 0.09375,0.0117 0.171875,0.0156 0.234375,0.0156 0.65625,0 1.238281,-0.16407 1.75,-0.5 0.519531,-0.34375 0.78125,-0.86719 0.78125,-1.57813 0,-0.5625 -0.1875,-1.02343 -0.5625,-1.39062 -0.375,-0.36328 -0.867188,-0.54688 -1.46875,-0.54688 -0.59375,0 -1.089844,0.1875 -1.484375,0.5625 -0.386719,0.375 -0.636719,0.9336 -0.75,1.67188 l -1.53125,-0.26563 c 0.1875,-1.01953 0.609375,-1.8125 1.265625,-2.375 0.664062,-0.5625 1.488281,-0.84375 2.46875,-0.84375 0.675781,0 1.296875,0.14844 1.859375,0.4375 0.570312,0.29297 1.007812,0.6875 1.3125,1.1875 0.300781,0.5 0.453124,1.03125 0.453124,1.59375 0,0.54297 -0.148436,1.03125 -0.437499,1.46875 -0.28125,0.4375 -0.703125,0.78906 -1.265625,1.04688 0.726562,0.16797 1.296875,0.52343 1.703124,1.0625 0.406251,0.53125 0.609376,1.19922 0.609376,2 0,1.07422 -0.398438,1.99218 -1.1875,2.75 -0.78125,0.75 -1.777344,1.125 -2.984375,1.125 -1.09375,0 -2,-0.32032 -2.71875,-0.96875 -0.71875,-0.64453 -1.125,-1.48828 -1.21875,-2.53125 z m 9.621094,-2.84375 c 0,-1.45703 0.148437,-2.63281 0.453125,-3.53125 0.30078,-0.89453 0.75,-1.58203 1.343749,-2.0625 0.593751,-0.48828 1.343751,-0.73438 2.25,-0.73438 0.664063,0 1.25,0.13672 1.75,0.40625 0.5,0.26172 0.910157,0.64844 1.234375,1.15625 0.332032,0.5 0.593751,1.11719 0.781251,1.84375 0.1875,0.71875 0.281249,1.69532 0.281249,2.92188 0,1.46094 -0.152344,2.63672 -0.453124,3.53125 -0.304688,0.89844 -0.75,1.58984 -1.343751,2.07812 -0.593749,0.49219 -1.343749,0.73438 -2.25,0.73438 -1.199218,0 -2.136718,-0.42969 -2.8125,-1.29688 -0.824218,-1.03125 -1.234374,-2.71093 -1.234374,-5.04687 z m 1.5625,0 c 0,2.04297 0.238281,3.40234 0.718749,4.07812 0.476563,0.66797 1.066407,1 1.765625,1 0.695313,0 1.285157,-0.33593 1.765626,-1.01562 0.476562,-0.67578 0.718749,-2.03125 0.718749,-4.0625 0,-2.03906 -0.242187,-3.39453 -0.718749,-4.0625 -0.480469,-0.66406 -1.074219,-1 -1.781251,-1 -0.699218,0 -1.257812,0.29297 -1.671875,0.875 -0.531249,0.76172 -0.796874,2.15625 -0.796874,4.1875 z m 8.074218,0 c 0,-1.45703 0.148438,-2.63281 0.453125,-3.53125 0.300782,-0.89453 0.75,-1.58203 1.34375,-2.0625 0.59375,-0.48828 1.34375,-0.73438 2.25,-0.73438 0.664063,0 1.25,0.13672 1.75,0.40625 0.5,0.26172 0.910156,0.64844 1.234376,1.15625 0.332031,0.5 0.593749,1.11719 0.781249,1.84375 0.1875,0.71875 0.281251,1.69532 0.281251,2.92188 0,1.46094 -0.152344,2.63672 -0.453126,3.53125 -0.304687,0.89844 -0.75,1.58984 -1.34375,2.07812 -0.59375,0.49219 -1.34375,0.73438 -2.25,0.73438 -1.199219,0 -2.136719,-0.42969 -2.8125,-1.29688 -0.824219,-1.03125 -1.234375,-2.71093 -1.234375,-5.04687 z m 1.5625,0 c 0,2.04297 0.238282,3.40234 0.718751,4.07812 0.476562,0.66797 1.066405,1 1.765624,1 0.695312,0 1.285156,-0.33593 1.765625,-1.01562 0.476563,-0.67578 0.718751,-2.03125 0.718751,-4.0625 0,-2.03906 -0.242188,-3.39453 -0.718751,-4.0625 -0.480469,-0.66406 -1.074218,-1 -1.781249,-1 -0.69922,0 -1.257813,0.29297 -1.671876,0.875 -0.53125,0.76172 -0.796875,2.15625 -0.796875,4.1875 z m 0,0"
       style="fill:#262626;fill-opacity:1;fill-rule:nonzero;stroke:none;stroke-width:0.8"
       aria-label="300" />
    <path
       id="path60"
       d="m 37.801973,83.06047 1.515625,-0.20313 c 0.175781,0.86719 0.472656,1.49219 0.890625,1.875 0.425781,0.375 0.9375,0.5625 1.53125,0.5625 0.71875,0 1.320312,-0.24219 1.8125,-0.73437 0.5,-0.5 0.75,-1.11328 0.75,-1.84375 0,-0.69532 -0.230469,-1.27344 -0.6875,-1.73438 -0.460938,-0.45703 -1.039063,-0.6875 -1.734375,-0.6875 -0.292969,0 -0.652344,0.0586 -1.078125,0.17188 l 0.171875,-1.32813 c 0.09375,0.0117 0.171875,0.0156 0.234375,0.0156 0.65625,0 1.238281,-0.16407 1.75,-0.5 0.519531,-0.34375 0.78125,-0.86719 0.78125,-1.57813 0,-0.5625 -0.1875,-1.02344 -0.5625,-1.39062 -0.375,-0.36328 -0.867188,-0.54688 -1.46875,-0.54688 -0.59375,0 -1.089844,0.1875 -1.484375,0.5625 -0.386719,0.375 -0.636719,0.9336 -0.75,1.67188 l -1.53125,-0.26563 c 0.1875,-1.01953 0.609375,-1.8125 1.265625,-2.375 0.664062,-0.5625 1.488281,-0.84375 2.46875,-0.84375 0.675781,0 1.296875,0.14844 1.859375,0.4375 0.570312,0.29297 1.007812,0.6875 1.3125,1.1875 0.300781,0.5 0.453124,1.03125 0.453124,1.59375 0,0.54297 -0.148436,1.03125 -0.437499,1.46875 -0.28125,0.4375 -0.703125,0.78906 -1.265625,1.04688 0.726562,0.16797 1.296875,0.52343 1.703124,1.0625 0.406251,0.53125 0.609376,1.19922 0.609376,2 0,1.07422 -0.398438,1.99218 -1.1875,2.75 -0.78125,0.75 -1.777344,1.125 -2.984375,1.125 -1.09375,0 -2,-0.32032 -2.71875,-0.96875 -0.71875,-0.64453 -1.125,-1.48828 -1.21875,-2.53125 z m 15.355468,3.28125 h -1.515625 v -9.70313 c -0.375,0.34375 -0.859375,0.69531 -1.453124,1.04688 -0.593751,0.35547 -1.125,0.61718 -1.593751,0.78125 v -1.46875 c 0.851563,-0.39453 1.597657,-0.87891 2.234375,-1.45313 0.632813,-0.57031 1.082032,-1.125 1.343751,-1.65625 h 0.984374 z m 3.902344,-6.125 c 0,-1.45703 0.148438,-2.63282 0.453125,-3.53125 0.300782,-0.89453 0.75,-1.58203 1.34375,-2.0625 0.59375,-0.48828 1.34375,-0.73438 2.25,-0.73438 0.664063,0 1.25,0.13672 1.75,0.40625 0.5,0.26172 0.910156,0.64844 1.234376,1.15625 0.332031,0.5 0.593749,1.11719 0.781249,1.84375 0.1875,0.71875 0.281251,1.69531 0.281251,2.92188 0,1.46093 -0.152344,2.63672 -0.453126,3.53125 -0.304687,0.89843 -0.75,1.58984 -1.34375,2.07812 -0.59375,0.49219 -1.34375,0.73438 -2.25,0.73438 -1.199219,0 -2.136719,-0.42969 -2.8125,-1.29688 -0.824219,-1.03125 -1.234375,-2.71094 -1.234375,-5.04687 z m 1.5625,0 c 0,2.04297 0.238282,3.40234 0.718751,4.07812 0.476562,0.66797 1.066405,1 1.765624,1 0.695312,0 1.285156,-0.33594 1.765625,-1.01562 0.476563,-0.67578 0.718751,-2.03125 0.718751,-4.0625 0,-2.03907 -0.242188,-3.39453 -0.718751,-4.0625 -0.480469,-0.66407 -1.074218,-1 -1.781249,-1 -0.69922,0 -1.257813,0.29297 -1.671876,0.875 -0.53125,0.76172 -0.796875,2.15625 -0.796875,4.1875 z m 0,0"
       style="fill:#262626;fill-opacity:1;fill-rule:nonzero;stroke:none;stroke-width:0.8"
       aria-label="310" />
    <path
       id="path61"
       d="m 37.801973,34.72062 1.515625,-0.20312 c 0.175781,0.86718 0.472656,1.49218 0.890625,1.875 0.425781,0.375 0.9375,0.5625 1.53125,0.5625 0.71875,0 1.320312,-0.24219 1.8125,-0.73438 0.5,-0.5 0.75,-1.11328 0.75,-1.84375 0,-0.69531 -0.230469,-1.27344 -0.6875,-1.73437 -0.460938,-0.45703 -1.039063,-0.6875 -1.734375,-0.6875 -0.292969,0 -0.652344,0.0586 -1.078125,0.17187 l 0.171875,-1.32812 c 0.09375,0.0117 0.171875,0.0156 0.234375,0.0156 0.65625,0 1.238281,-0.16406 1.75,-0.5 0.519531,-0.34375 0.78125,-0.86719 0.78125,-1.57812 0,-0.5625 -0.1875,-1.02344 -0.5625,-1.39063 -0.375,-0.36328 -0.867188,-0.54687 -1.46875,-0.54687 -0.59375,0 -1.089844,0.1875 -1.484375,0.5625 -0.386719,0.375 -0.636719,0.93359 -0.75,1.67187 l -1.53125,-0.26562 c 0.1875,-1.01953 0.609375,-1.8125 1.265625,-2.375 0.664062,-0.5625 1.488281,-0.84375 2.46875,-0.84375 0.675781,0 1.296875,0.14843 1.859375,0.4375 0.570312,0.29297 1.007812,0.6875 1.3125,1.1875 0.300781,0.5 0.453124,1.03125 0.453124,1.59375 0,0.54297 -0.148436,1.03125 -0.437499,1.46875 -0.28125,0.4375 -0.703125,0.78906 -1.265625,1.04687 0.726562,0.16797 1.296875,0.52344 1.703124,1.0625 0.406251,0.53125 0.609376,1.19922 0.609376,2 0,1.07422 -0.398438,1.99219 -1.1875,2.75 -0.78125,0.75 -1.777344,1.125 -2.984375,1.125 -1.09375,0 -2,-0.32031 -2.71875,-0.96875 -0.71875,-0.64453 -1.125,-1.48828 -1.21875,-2.53125 z m 17.621094,1.8125 v 1.46875 h -8.1875 c -0.02344,-0.36328 0.03515,-0.71875 0.171874,-1.0625 0.207031,-0.55078 0.539063,-1.09765 1,-1.64062 0.457031,-0.53907 1.125,-1.16407 2,-1.875 1.343751,-1.11328 2.25,-1.99219 2.718751,-2.64063 0.476562,-0.64453 0.718749,-1.2539 0.718749,-1.82812 0,-0.60157 -0.218749,-1.10938 -0.656249,-1.51563 -0.429688,-0.41406 -0.984376,-0.625 -1.671876,-0.625 -0.742187,0 -1.328124,0.21875 -1.765624,0.65625 -0.4375,0.4375 -0.664063,1.04688 -0.671876,1.82813 l -1.5625,-0.15625 c 0.101563,-1.17578 0.503907,-2.06641 1.203125,-2.67188 0.707031,-0.61328 1.648438,-0.92187 2.828126,-0.92187 1.1875,0 2.125,0.33593 2.8125,1 0.695312,0.65625 1.046874,1.46875 1.046874,2.4375 0,0.5 -0.105469,0.99218 -0.3125,1.46875 -0.199218,0.48047 -0.531249,0.98437 -1,1.51562 -0.468749,0.53125 -1.25,1.26172 -2.343749,2.1875 -0.917969,0.76172 -1.507813,1.28125 -1.765625,1.5625 -0.261719,0.27344 -0.476563,0.54297 -0.640626,0.8125 z m 1.636718,-4.65625 c 0,-1.45703 0.148438,-2.63281 0.453125,-3.53125 0.300782,-0.89453 0.75,-1.58203 1.34375,-2.0625 0.59375,-0.48828 1.34375,-0.73437 2.25,-0.73437 0.664063,0 1.25,0.13672 1.75,0.40625 0.5,0.26172 0.910156,0.64843 1.234376,1.15625 0.332031,0.5 0.593749,1.11718 0.781249,1.84375 0.1875,0.71875 0.281251,1.69531 0.281251,2.92187 0,1.46094 -0.152344,2.63672 -0.453126,3.53125 -0.304687,0.89844 -0.75,1.58985 -1.34375,2.07813 -0.59375,0.49218 -1.34375,0.73437 -2.25,0.73437 -1.199219,0 -2.136719,-0.42969 -2.8125,-1.29687 -0.824219,-1.03125 -1.234375,-2.71094 -1.234375,-5.04688 z m 1.5625,0 c 0,2.04297 0.238282,3.40235 0.718751,4.07813 0.476562,0.66797 1.066405,1 1.765624,1 0.695312,0 1.285156,-0.33594 1.765625,-1.01563 0.476563,-0.67578 0.718751,-2.03125 0.718751,-4.0625 0,-2.03906 -0.242188,-3.39453 -0.718751,-4.0625 -0.480469,-0.66406 -1.074218,-1 -1.781249,-1 -0.69922,0 -1.257813,0.29297 -1.671876,0.875 -0.53125,0.76172 -0.796875,2.15625 -0.796875,4.1875 z m 0,0"
       style="fill:#262626;fill-opacity:1;fill-rule:nonzero;stroke:none;stroke-width:0.8"
       aria-label="320" />
    <path
       id="path62"
       d="M 25.036346,239.65812 H 12.614471 v -1.39062 h 1.171875 c -0.457031,-0.32032 -0.800781,-0.6875 -1.031249,-1.09375 -0.226563,-0.41407 -0.343751,-0.92188 -0.343751,-1.51563 0,-0.75781 0.199219,-1.42969 0.59375,-2.01562 0.398438,-0.59375 0.953125,-1.03516 1.671875,-1.32813 0.71875,-0.30078 1.507813,-0.45312 2.359375,-0.45312 0.917969,0 1.746094,0.16797 2.484375,0.5 0.742188,0.32422 1.308594,0.80468 1.703125,1.4375 0.382813,0.625 0.578125,1.28125 0.578125,1.96875 0,0.51172 -0.105468,0.96875 -0.3125,1.375 -0.21875,0.40625 -0.492187,0.73437 -0.828125,0.98437 h 4.375 z m -7.875,-1.375 c 1.15625,0 2.011719,-0.23437 2.5625,-0.70312 0.554688,-0.46875 0.828125,-1.03516 0.828125,-1.70313 0,-0.67578 -0.285156,-1.2539 -0.859375,-1.73437 -0.570312,-0.48828 -1.457031,-0.73438 -2.65625,-0.73438 -1.144531,0 -2.003906,0.24219 -2.578125,0.71875 -0.570312,0.46875 -0.859375,1.03125 -0.859375,1.6875 0,0.64844 0.308594,1.21875 0.921875,1.71875 0.605469,0.5 1.484375,0.75 2.640625,0.75 z m 0,0"
       style="fill:#262626;fill-opacity:1;fill-rule:nonzero;stroke:none;stroke-width:0.8"
       aria-label="p" />
    <path
       id="path63"
       d="m 26.005096,229.94718 c -1.332031,0 -2.316406,-0.36718 -2.953125,-1.10937 -0.53125,-0.625 -0.796875,-1.37891 -0.796875,-2.26563 0,-0.98828 0.324219,-1.79687 0.96875,-2.42187 0.648438,-0.625 1.542969,-0.9375 2.6875,-0.9375 0.917969,0 1.640625,0.14062 2.171875,0.42187 0.53125,0.27344 0.945313,0.67188 1.234375,1.20313 0.289063,0.53125 0.4375,1.10937 0.4375,1.73437 0,1 -0.316406,1.8125 -0.953125,2.4375 -0.644531,0.625 -1.578125,0.9375 -2.796875,0.9375 z m 0,-1.26562 c 0.917969,0 1.605469,-0.19531 2.0625,-0.59375 0.460938,-0.40625 0.6875,-0.91016 0.6875,-1.51563 0,-0.60156 -0.226562,-1.10156 -0.6875,-1.5 -0.457031,-0.40625 -1.160156,-0.60937 -2.109375,-0.60937 -0.882812,0 -1.554687,0.20312 -2.015625,0.60937 -0.457031,0.39844 -0.6875,0.89844 -0.6875,1.5 0,0.60547 0.230469,1.10938 0.6875,1.51563 0.460938,0.39844 1.148438,0.59375 2.0625,0.59375 z m 6.34375,-6.89844 h -9.9375 v -1.10937 h 0.9375 c -0.363281,-0.26953 -0.632812,-0.56641 -0.8125,-0.89063 -0.1875,-0.33203 -0.28125,-0.73437 -0.28125,-1.20312 0,-0.61328 0.15625,-1.15625 0.46875,-1.625 0.3125,-0.46875 0.761719,-0.82032 1.34375,-1.0625 0.574219,-0.23828 1.203125,-0.35938 1.890625,-0.35938 0.730469,0 1.390625,0.13672 1.984375,0.40625 0.585938,0.26172 1.03125,0.64063 1.34375,1.14063 0.3125,0.5 0.46875,1.03125 0.46875,1.59375 0,0.40625 -0.08594,0.77343 -0.25,1.09375 -0.175781,0.32422 -0.394531,0.58984 -0.65625,0.79687 h 3.5 z m -6.296875,-1.10937 c 0.917969,0 1.601563,-0.1875 2.046875,-0.5625 0.4375,-0.375 0.65625,-0.82813 0.65625,-1.35938 0,-0.53906 -0.226562,-1.0039 -0.6875,-1.39062 -0.457031,-0.38282 -1.164062,-0.57813 -2.125,-0.57813 -0.914062,0 -1.597656,0.1875 -2.046875,0.5625 -0.457031,0.375 -0.6875,0.82422 -0.6875,1.34375 0,0.52344 0.246094,0.98438 0.734375,1.39063 0.480469,0.39843 1.183594,0.59375 2.109375,0.59375 z m 1.234375,-11.51953 0.15625,-1.26563 c 0.730469,0.19922 1.296875,0.57031 1.703125,1.10938 0.40625,0.53125 0.609375,1.21484 0.609375,2.04687 0,1.05469 -0.320312,1.89063 -0.96875,2.51563 -0.644531,0.61718 -1.550781,0.92187 -2.71875,0.92187 -1.207031,0 -2.144531,-0.3125 -2.8125,-0.9375 -0.664062,-0.625 -1,-1.42969 -1,-2.42187 0,-0.96875 0.328125,-1.75391 0.984375,-2.35938 0.648438,-0.60156 1.5625,-0.90625 2.75,-0.90625 0.07422,0 0.183594,0 0.328125,0 v 5.35938 c 0.792969,-0.0391 1.398438,-0.25782 1.8125,-0.65625 0.417969,-0.40625 0.625,-0.91016 0.625,-1.51563 0,-0.44531 -0.113281,-0.82812 -0.34375,-1.14062 -0.238281,-0.32032 -0.613281,-0.57032 -1.125,-0.75 z m -1.96875,4 v -4.01563 c -0.601562,0.0547 -1.054687,0.20313 -1.359375,0.45313 -0.46875,0.38671 -0.703125,0.89062 -0.703125,1.51562 0,0.5625 0.1875,1.03906 0.5625,1.42188 0.375,0.375 0.875,0.58593 1.5,0.625 z m 4.28125,-6.78907 h -7.1875 v -1.10937 h 1.015625 c -0.78125,-0.51953 -1.171875,-1.28125 -1.171875,-2.28125 0,-0.4375 0.07813,-0.83203 0.234375,-1.1875 0.15625,-0.36328 0.359375,-0.63281 0.609375,-0.8125 0.25,-0.1875 0.546875,-0.31641 0.890625,-0.39063 0.230469,-0.0391 0.625,-0.0625 1.1875,-0.0625 h 4.421875 v 1.21875 h -4.375 c -0.488281,0 -0.859375,0.0469 -1.109375,0.14062 -0.25,0.0937 -0.445312,0.26172 -0.59375,0.5 -0.144531,0.24219 -0.21875,0.52344 -0.21875,0.84375 0,0.52344 0.167969,0.97656 0.5,1.35938 0.324219,0.375 0.949219,0.5625 1.875,0.5625 h 3.921875 z m 0,0"
       style="fill:#262626;fill-opacity:1;fill-rule:nonzero;stroke:none;stroke-width:0.8"
       aria-label="open" />
    <path
       id="path64"
       d="M 25.036347,193.2089 H 9.1925967 l -10e-8,-3.35937 h 1.2656244 v 1.82812 h 13.328126 v -1.82812 h 1.25 z m -3.4375,-6.1914 v 1.40625 H 9.1925965 v -1.51563 h 4.4218755 c -0.800782,-0.64453 -1.203125,-1.46875 -1.203125,-2.46875 0,-0.55078 0.117187,-1.07031 0.343749,-1.5625 0.218751,-0.48828 0.531251,-0.89453 0.937501,-1.21875 0.398437,-0.32031 0.882812,-0.57031 1.453125,-0.75 0.574218,-0.17578 1.183593,-0.26562 1.828125,-0.26562 1.542968,0 2.734375,0.38281 3.578125,1.14062 0.835937,0.76172 1.25,1.67188 1.25,2.73438 0,1.0625 -0.441407,1.89844 -1.328125,2.5 z m -4.5625,0.0156 c 1.085937,0 1.867187,-0.14453 2.34375,-0.4375 0.78125,-0.47656 1.171875,-1.1289 1.171875,-1.95312 0,-0.66406 -0.285157,-1.23828 -0.859375,-1.71875 -0.582032,-0.48828 -1.445313,-0.73438 -2.59375,-0.73438 -1.175782,0 -2.039063,0.23438 -2.59375,0.70313 -0.5625,0.46875 -0.84375,1.03125 -0.84375,1.6875 0,0.66797 0.292968,1.24609 0.875,1.73437 0.574218,0.48047 1.40625,0.71875 2.5,0.71875 z m 3.453125,-14.10937 c 0.480468,0.5625 0.820312,1.10547 1.015625,1.625 0.195312,0.52343 0.296875,1.07812 0.296875,1.67187 0,0.99219 -0.238282,1.75 -0.71875,2.28125 -0.488282,0.53125 -1.109375,0.79688 -1.859375,0.79688 -0.4375,0 -0.835938,-0.0977 -1.203125,-0.29688 -0.363282,-0.20703 -0.65625,-0.47265 -0.875,-0.79687 -0.21875,-0.32031 -0.382813,-0.6875 -0.5,-1.09375 -0.07031,-0.28906 -0.144532,-0.73828 -0.21875,-1.34375 -0.144532,-1.22656 -0.320313,-2.13281 -0.53125,-2.71875 -0.207032,-0.008 -0.335938,-0.0156 -0.390625,-0.0156 -0.625,0 -1.0625,0.14844 -1.3125,0.4375 -0.34375,0.38672 -0.515625,0.96485 -0.515625,1.73438 0,0.71875 0.125,1.25 0.375,1.59375 0.25,0.33594 0.695312,0.58594 1.328125,0.75 l -0.203125,1.48437 c -0.632813,-0.13281 -1.144532,-0.35156 -1.53125,-0.65625 -0.394532,-0.3125 -0.695313,-0.75781 -0.90625,-1.34375 -0.21875,-0.59375 -0.328126,-1.27343 -0.328126,-2.04687 0,-0.76953 0.09375,-1.39453 0.281251,-1.875 0.179687,-0.47656 0.402344,-0.82813 0.671875,-1.04688 0.273437,-0.22656 0.617187,-0.39062 1.03125,-0.48437 0.261718,-0.0508 0.730468,-0.0781 1.40625,-0.0781 h 2.03125 c 1.417968,0 2.3125,-0.0312 2.6875,-0.0937 0.375,-0.0625 0.734375,-0.19141 1.078125,-0.39062 v 1.59375 c -0.3125,0.15625 -0.679688,0.26171 -1.109375,0.3125 z m -3.40625,0.125 c 0.230468,0.55469 0.421875,1.38281 0.578125,2.48437 0.09375,0.625 0.199218,1.07032 0.3125,1.32813 0.117187,0.26172 0.28125,0.46484 0.5,0.60937 0.210937,0.13672 0.449218,0.20313 0.71875,0.20313 0.40625,0 0.746093,-0.14844 1.015625,-0.45313 0.273437,-0.3125 0.40625,-0.76562 0.40625,-1.35937 0,-0.58203 -0.128907,-1.10157 -0.390625,-1.5625 -0.257813,-0.45703 -0.609375,-0.79688 -1.046875,-1.01563 -0.34375,-0.15625 -0.851563,-0.23437 -1.53125,-0.23437 z m 4.515625,-3.88672 h -8.984375 v -1.375 h 1.359375 c -0.632813,-0.34375 -1.050782,-0.66016 -1.25,-0.95313 -0.207031,-0.30078 -0.3125,-0.6289 -0.3125,-0.98437 0,-0.51953 0.164062,-1.03906 0.484375,-1.5625 l 1.421875,0.51562 c -0.21875,0.375 -0.328125,0.75 -0.328125,1.125 0,0.33594 0.101562,0.63282 0.296875,0.89063 0.199218,0.26172 0.476562,0.44922 0.828125,0.5625 0.542968,0.17969 1.136718,0.26562 1.78125,0.26562 h 4.703125 z m 3.4375,-8.33594 v 3.35938 h -1.25 V 162.3417 H 10.458222 v 1.84375 H 9.1925963 l 6e-7,-3.35938 z m 0,0"
       style="fill:#262626;fill-opacity:1;fill-rule:nonzero;stroke:none;stroke-width:0.8"
       aria-label=" [bar]" />
    <path
       id="path65"
       d="M 126.0676,24.59952 V 12.19327 h 4.01562 c 1.51953,0 2.51563,0.0625 2.98438,0.1875 0.70703,0.1875 1.30078,0.59375 1.78125,1.21875 0.47656,0.625 0.71875,1.42969 0.71875,2.40625 0,0.76172 -0.14063,1.40234 -0.42188,1.92188 -0.27343,0.52343 -0.62109,0.93359 -1.04687,1.23437 -0.42969,0.29297 -0.85938,0.48438 -1.29688,0.57813 -0.60547,0.125 -1.47656,0.1875 -2.60937,0.1875 h -1.625 v 4.67187 z m 2.5,-10.3125 v 3.53125 h 1.375 c 0.97656,0 1.63281,-0.0625 1.96875,-0.1875 0.33203,-0.13281 0.59375,-0.33594 0.78125,-0.60937 0.19531,-0.28125 0.29687,-0.60157 0.29687,-0.96875 0,-0.45704 -0.13672,-0.83204 -0.40625,-1.125 -0.26172,-0.28907 -0.59375,-0.47266 -1,-0.54688 -0.30468,-0.0625 -0.90625,-0.0937 -1.8125,-0.0937 z m 9.04297,10.3125 V 12.19327 h 2.375 v 12.40625 z m 4.25781,-4.625 c 0,-0.78125 0.19141,-1.53906 0.57812,-2.28125 0.39454,-0.73828 0.94532,-1.30078 1.65625,-1.6875 0.71875,-0.39453 1.51954,-0.59375 2.40625,-0.59375 1.35157,0 2.46094,0.44531 3.32813,1.32813 0.875,0.875 1.3125,1.99218 1.3125,3.34375 0,1.35546 -0.44531,2.48046 -1.32813,3.375 -0.875,0.89843 -1.97656,1.34375 -3.29687,1.34375 -0.82422,0 -1.60938,-0.1836 -2.35938,-0.54688 -0.75,-0.375 -1.32421,-0.92187 -1.71875,-1.64062 -0.38671,-0.72657 -0.57812,-1.60938 -0.57812,-2.64063 z m 2.4375,0.125 c 0,0.89844 0.21094,1.58594 0.64062,2.0625 0.42579,0.46875 0.94532,0.70313 1.5625,0.70313 0.625,0 1.14454,-0.23438 1.5625,-0.70313 0.41407,-0.47656 0.625,-1.17187 0.625,-2.07812 0,-0.875 -0.21093,-1.54688 -0.625,-2.01563 -0.41796,-0.47656 -0.9375,-0.71875 -1.5625,-0.71875 -0.61718,0 -1.13671,0.24219 -1.5625,0.71875 -0.42968,0.46875 -0.64062,1.14844 -0.64062,2.03125 z m 12.82422,-4.48437 v 1.89062 h -1.625 v 3.625 c 0,0.73047 0.0156,1.15625 0.0469,1.28125 0.0312,0.125 0.0977,0.23047 0.20312,0.3125 0.11329,0.0742 0.25391,0.10938 0.42188,0.10938 0.21875,0 0.53516,-0.0781 0.95312,-0.23438 l 0.20313,1.84375 c -0.55469,0.23828 -1.17969,0.35938 -1.875,0.35938 -0.4375,0 -0.82813,-0.0742 -1.17188,-0.21875 -0.34375,-0.14454 -0.60156,-0.32813 -0.76562,-0.54688 -0.15625,-0.22656 -0.26172,-0.53906 -0.3125,-0.9375 -0.0547,-0.26953 -0.0781,-0.82812 -0.0781,-1.67187 v -3.92188 h -1.09375 v -1.89062 h 1.09375 V 13.8339 l 2.375,-1.39063 v 3.17188 z m 10.58984,0 v 1.89062 h -1.625 v 3.625 c 0,0.73047 0.0156,1.15625 0.0469,1.28125 0.0312,0.125 0.0977,0.23047 0.20313,0.3125 0.11328,0.0742 0.25391,0.10938 0.42187,0.10938 0.21875,0 0.53516,-0.0781 0.95313,-0.23438 l 0.20312,1.84375 c -0.55468,0.23828 -1.17968,0.35938 -1.875,0.35938 -0.4375,0 -0.82812,-0.0742 -1.17187,-0.21875 -0.34375,-0.14454 -0.60156,-0.32813 -0.76563,-0.54688 -0.15625,-0.22656 -0.26171,-0.53906 -0.3125,-0.9375 -0.0547,-0.26953 -0.0781,-0.82812 -0.0781,-1.67187 v -3.92188 h -1.09375 v -1.89062 h 1.09375 V 13.8339 l 2.375,-1.39063 v 3.17188 z m 1.10156,4.35937 c 0,-0.78125 0.19141,-1.53906 0.57813,-2.28125 0.39453,-0.73828 0.94531,-1.30078 1.65625,-1.6875 0.71875,-0.39453 1.51953,-0.59375 2.40625,-0.59375 1.35156,0 2.46094,0.44531 3.32812,1.32813 0.875,0.875 1.3125,1.99218 1.3125,3.34375 0,1.35546 -0.44531,2.48046 -1.32812,3.375 -0.875,0.89843 -1.97656,1.34375 -3.29688,1.34375 -0.82421,0 -1.60937,-0.1836 -2.35937,-0.54688 -0.75,-0.375 -1.32422,-0.92187 -1.71875,-1.64062 -0.38672,-0.72657 -0.57813,-1.60938 -0.57813,-2.64063 z m 2.4375,0.125 c 0,0.89844 0.21094,1.58594 0.64063,2.0625 0.42578,0.46875 0.94531,0.70313 1.5625,0.70313 0.625,0 1.14453,-0.23438 1.5625,-0.70313 0.41406,-0.47656 0.625,-1.17187 0.625,-2.07812 0,-0.875 -0.21094,-1.54688 -0.625,-2.01563 -0.41797,-0.47656 -0.9375,-0.71875 -1.5625,-0.71875 -0.61719,0 -1.13672,0.24219 -1.5625,0.71875 -0.42969,0.46875 -0.64063,1.14844 -0.64063,2.03125 z m 12.48829,-4.48437 h 1.3125 v -0.67188 c 0,-0.75781 0.0781,-1.32031 0.23437,-1.6875 0.16406,-0.375 0.46094,-0.67578 0.89063,-0.90625 0.4375,-0.23828 0.98828,-0.35937 1.65625,-0.35937 0.67578,0 1.33593,0.10156 1.98437,0.29687 l -0.32812,1.65625 c -0.375,-0.082 -0.74219,-0.125 -1.09375,-0.125 -0.34375,0 -0.58985,0.0781 -0.73438,0.23438 -0.14844,0.15625 -0.21875,0.46484 -0.21875,0.92187 v 0.64063 h 1.76563 v 1.875 h -1.76563 v 7.10937 h -2.39062 v -7.10937 h -1.3125 z m 6.82031,-1.21875 v -2.20313 h 2.375 v 2.20313 z m 0,10.20312 v -8.98437 h 2.375 v 8.98437 z m 12.98828,0 h -2.375 V 20.0214 c 0,-0.97657 -0.0547,-1.60938 -0.15625,-1.89063 -0.10547,-0.28125 -0.27344,-0.5 -0.5,-0.65625 -0.23047,-0.16406 -0.50781,-0.25 -0.82813,-0.25 -0.40625,0 -0.77734,0.11719 -1.10937,0.34375 -0.32422,0.23047 -0.54688,0.53125 -0.67188,0.90625 -0.11718,0.36719 -0.17187,1.05469 -0.17187,2.0625 v 4.0625 h -2.375 v -8.98437 h 2.20312 v 1.3125 c 0.78125,-1.00782 1.76563,-1.51563 2.95313,-1.51563 0.53125,0 1.00781,0.0937 1.4375,0.28125 0.4375,0.1875 0.76562,0.43359 0.98437,0.73438 0.22657,0.29296 0.38282,0.625 0.46875,1 0.0937,0.36718 0.14063,0.89843 0.14063,1.59375 z m 10.65234,0 h -2.20313 v -1.3125 c -0.375,0.51172 -0.81249,0.89063 -1.31249,1.14063 -0.49219,0.25 -0.99219,0.375 -1.5,0.375 -1.03125,0 -1.91797,-0.41407 -2.65625,-1.25 -0.74219,-0.83204 -1.10938,-1.99219 -1.10938,-3.48438 0,-1.51953 0.35938,-2.67578 1.07812,-3.46875 0.71876,-0.78906 1.625,-1.1875 2.71876,-1.1875 1,0 1.86719,0.41797 2.60937,1.25 v -4.46875 h 2.375 z m -6.34375,-4.6875 c 0,0.96094 0.12891,1.65234 0.39062,2.07813 0.38282,0.625 0.92188,0.9375 1.60938,0.9375 0.55078,0 1.01562,-0.23438 1.39062,-0.70313 0.38282,-0.46875 0.57813,-1.16016 0.57813,-2.07812 0,-1.03125 -0.18749,-1.77344 -0.56249,-2.23438 -0.3672,-0.45703 -0.83985,-0.6875 -1.42188,-0.6875 -0.5625,0 -1.03907,0.22656 -1.42188,0.67188 -0.375,0.44921 -0.5625,1.12109 -0.5625,2.01562 z m 21.34766,-1.64062 -2.34375,0.42187 c -0.0859,-0.46875 -0.26562,-0.81641 -0.54688,-1.04687 -0.27343,-0.23829 -0.63281,-0.35938 -1.07812,-0.35938 -0.59375,0 -1.07031,0.20313 -1.42188,0.60938 -0.34374,0.40625 -0.51562,1.08984 -0.51562,2.04687 0,1.07422 0.17578,1.82813 0.53125,2.26563 0.35156,0.4375 0.83203,0.65625 1.4375,0.65625 0.45703,0 0.82813,-0.125 1.10938,-0.375 0.28906,-0.25782 0.49218,-0.70313 0.60937,-1.32813 l 2.34375,0.39063 c -0.25,1.07421 -0.71875,1.88671 -1.40625,2.4375 -0.6875,0.54296 -1.60938,0.8125 -2.76563,0.8125 -1.31249,0 -2.35937,-0.41016 -3.14062,-1.23438 -0.78125,-0.83203 -1.17187,-1.98437 -1.17187,-3.45312 0,-1.47657 0.39062,-2.62891 1.17187,-3.45313 0.78906,-0.83203 1.85156,-1.25 3.1875,-1.25 1.09375,0 1.96094,0.23438 2.60937,0.70313 0.64454,0.46875 1.10938,1.1875 1.39063,2.15625 z m 4.07422,6.32812 h -2.375 v -8.98437 h 2.20312 v 1.28125 c 0.38282,-0.60157 0.72657,-1 1.03126,-1.1875 0.30077,-0.19532 0.64062,-0.29688 1.01562,-0.29688 0.53906,0 1.06641,0.15234 1.57812,0.45313 l -0.73438,2.0625 c -0.40624,-0.25782 -0.78124,-0.39063 -1.125,-0.39063 -0.33593,0 -0.61718,0.0937 -0.84374,0.28125 -0.23047,0.1875 -0.41406,0.52344 -0.54688,1 -0.13671,0.48047 -0.20312,1.48047 -0.20312,3 z m 6.24609,-6.25 -2.15625,-0.39062 c 0.25,-0.86329 0.66406,-1.50391 1.25,-1.92188 0.59375,-0.41406 1.47266,-0.625 2.64062,-0.625 1.06251,0 1.85157,0.125 2.375,0.375 0.51954,0.25 0.88282,0.57031 1.09376,0.95313 0.20703,0.38671 0.3125,1.09375 0.3125,2.125 l -0.0156,2.78125 c 0,0.79296 0.0351,1.375 0.10938,1.75 0.0703,0.375 0.21094,0.77734 0.42188,1.20312 h -2.34376 c -0.0625,-0.15625 -0.14065,-0.39062 -0.2344,-0.70312 -0.043,-0.13282 -0.0703,-0.22657 -0.0782,-0.28125 -0.40625,0.39843 -0.84375,0.69531 -1.3125,0.89062 -0.46094,0.19531 -0.94922,0.29688 -1.46875,0.29688 -0.92969,0 -1.65625,-0.25 -2.1875,-0.75 -0.53125,-0.5 -0.79688,-1.13282 -0.79688,-1.90625 0,-0.50782 0.11719,-0.96094 0.35938,-1.35938 0.23828,-0.39453 0.57813,-0.69531 1.01562,-0.90625 0.43751,-0.21875 1.06641,-0.40625 1.89063,-0.5625 1.11328,-0.20703 1.88281,-0.39844 2.3125,-0.57812 v -0.23438 c 0,-0.45703 -0.11718,-0.78516 -0.34375,-0.98437 -0.21875,-0.19532 -0.64843,-0.29688 -1.28125,-0.29688 -0.41797,0 -0.7461,0.0859 -0.98438,0.25 -0.24218,0.16797 -0.43359,0.46094 -0.57812,0.875 z m 3.1875,1.9375 c -0.30469,0.10547 -0.78906,0.23047 -1.45313,0.375 -0.65624,0.13672 -1.08984,0.27344 -1.29687,0.40625 -0.30469,0.21875 -0.45313,0.49609 -0.45313,0.82813 0,0.33593 0.1172,0.625 0.35938,0.875 0.25,0.24218 0.56641,0.35937 0.95313,0.35937 0.42577,0 0.83593,-0.14062 1.23437,-0.42187 0.28125,-0.21875 0.46875,-0.48438 0.5625,-0.79688 0.0625,-0.19531 0.0937,-0.58203 0.0937,-1.15625 z m 12.51172,-2.01562 -2.34375,0.42187 c -0.0859,-0.46875 -0.26562,-0.81641 -0.54687,-1.04687 -0.27344,-0.23829 -0.63282,-0.35938 -1.07813,-0.35938 -0.59375,0 -1.07031,0.20313 -1.42187,0.60938 -0.34375,0.40625 -0.51563,1.08984 -0.51563,2.04687 0,1.07422 0.17578,1.82813 0.53125,2.26563 0.35156,0.4375 0.83203,0.65625 1.4375,0.65625 0.45703,0 0.82813,-0.125 1.10937,-0.375 0.28907,-0.25782 0.4922,-0.70313 0.60938,-1.32813 l 2.34375,0.39063 c -0.25,1.07421 -0.71875,1.88671 -1.40625,2.4375 -0.6875,0.54296 -1.60937,0.8125 -2.76563,0.8125 -1.31249,0 -2.35937,-0.41016 -3.14062,-1.23438 -0.78125,-0.83203 -1.17187,-1.98437 -1.17187,-3.45312 0,-1.47657 0.39062,-2.62891 1.17187,-3.45313 0.78906,-0.83203 1.85157,-1.25 3.1875,-1.25 1.09375,0 1.96094,0.23438 2.60938,0.70313 0.64453,0.46875 1.10937,1.1875 1.39062,2.15625 z m 1.71484,6.32812 V 12.19327 h 2.375 v 6.57813 l 2.79688,-3.15625 h 2.92187 l -3.07812,3.28125 3.29688,5.70312 h -2.56251 l -2.26562,-4.03125 -1.10938,1.15625 v 2.875 z m 14.47266,-8.98437 h 2.21875 v 1.3125 c 0.28906,-0.44532 0.67969,-0.8125 1.17187,-1.09375 0.48829,-0.28125 1.03126,-0.42188 1.625,-0.42188 1.05079,0 1.93751,0.41406 2.65626,1.23438 0.72656,0.8125 1.09374,1.94921 1.09374,3.40625 0,1.5 -0.37109,2.66796 -1.10937,3.5 -0.73047,0.83593 -1.61719,1.25 -2.65625,1.25 -0.49219,0 -0.9375,-0.10157 -1.34375,-0.29688 -0.40625,-0.19531 -0.83594,-0.53516 -1.28125,-1.01562 v 4.53125 h -2.375 z m 2.35937,4.34375 c 0,1.01171 0.19532,1.75781 0.59376,2.23437 0.40624,0.48047 0.89452,0.71875 1.46875,0.71875 0.55077,0 1.00781,-0.21875 1.375,-0.65625 0.36328,-0.44531 0.54687,-1.17578 0.54687,-2.1875 0,-0.9375 -0.1875,-1.63281 -0.5625,-2.09375 -0.375,-0.45703 -0.84375,-0.6875 -1.40625,-0.6875 -0.58594,0 -1.07031,0.22656 -1.45312,0.67188 -0.375,0.44921 -0.56251,1.11718 -0.56251,2 z m 10.57423,4.64062 h -2.375 v -8.98437 h 2.20312 v 1.28125 c 0.38281,-0.60157 0.72656,-1 1.03125,-1.1875 0.30078,-0.19532 0.64063,-0.29688 1.01563,-0.29688 0.53905,0 1.0664,0.15234 1.57812,0.45313 l -0.73438,2.0625 c -0.40625,-0.25782 -0.78125,-0.39063 -1.125,-0.39063 -0.33593,0 -0.61718,0.0937 -0.84374,0.28125 -0.23047,0.1875 -0.41407,0.52344 -0.54688,1 -0.13672,0.48047 -0.20312,1.48047 -0.20312,3 z m 9.67968,-2.85937 2.35937,0.39062 c -0.30468,0.875 -0.78124,1.54297 -1.43749,2 -0.65625,0.44922 -1.48047,0.67188 -2.46875,0.67188 -1.5625,0 -2.71876,-0.50782 -3.46876,-1.53125 -0.59374,-0.82032 -0.89062,-1.85157 -0.89062,-3.09375 0,-1.48829 0.39062,-2.65625 1.17188,-3.5 0.78125,-0.84375 1.76562,-1.26563 2.95312,-1.26563 1.33203,0 2.38282,0.44531 3.15625,1.32813 0.78125,0.875 1.14844,2.22656 1.10937,4.04687 h -5.95312 c 0.0195,0.71094 0.21094,1.26172 0.57812,1.65625 0.36328,0.38672 0.82032,0.57813 1.375,0.57813 0.36328,0 0.67188,-0.0977 0.92188,-0.29688 0.25781,-0.20703 0.45704,-0.53516 0.59375,-0.98437 z m 0.125,-2.40625 c -0.0117,-0.6875 -0.1875,-1.20704 -0.53125,-1.5625 -0.33594,-0.36329 -0.7461,-0.54688 -1.23438,-0.54688 -0.52343,0 -0.94921,0.19531 -1.28124,0.57813 -0.34376,0.375 -0.51172,0.88671 -0.5,1.53125 z m 3.46485,2.70312 2.39062,-0.35937 c 0.0937,0.46093 0.29687,0.80859 0.60938,1.04687 0.31249,0.24219 0.75,0.35938 1.31249,0.35938 0.61329,0 1.07031,-0.11329 1.375,-0.34375 0.20703,-0.15625 0.31251,-0.36329 0.31251,-0.625 0,-0.1875 -0.0547,-0.33594 -0.15625,-0.45313 -0.125,-0.11328 -0.39063,-0.21875 -0.79688,-0.3125 -1.91797,-0.42578 -3.13672,-0.8125 -3.65625,-1.15625 -0.71094,-0.48828 -1.0625,-1.16406 -1.0625,-2.03125 0,-0.76953 0.30468,-1.42187 0.92188,-1.95312 0.61328,-0.53125 1.5664,-0.79688 2.85937,-0.79688 1.22656,0 2.14063,0.20313 2.73438,0.60938 0.60156,0.39843 1.01953,0.98437 1.25,1.76562 l -2.25,0.42188 c -0.0937,-0.35157 -0.27735,-0.625 -0.54688,-0.8125 -0.26172,-0.1875 -0.64063,-0.28125 -1.14063,-0.28125 -0.625,0 -1.07421,0.0898 -1.34375,0.26562 -0.18749,0.125 -0.28125,0.28906 -0.28125,0.48438 0,0.16796 0.082,0.3125 0.25,0.4375 0.20704,0.15625 0.94141,0.38281 2.20313,0.67187 1.26953,0.28125 2.16015,0.63281 2.67187,1.04688 0.48828,0.42968 0.73438,1.01562 0.73438,1.76562 0,0.82422 -0.34375,1.53125 -1.03125,2.125 -0.6875,0.59375 -1.70313,0.89063 -3.04688,0.89063 -1.23046,0 -2.20312,-0.24219 -2.92187,-0.73438 -0.71094,-0.5 -1.17187,-1.17578 -1.39062,-2.03125 z m 9.64062,0 2.39062,-0.35937 c 0.0938,0.46093 0.29688,0.80859 0.60938,1.04687 0.3125,0.24219 0.75,0.35938 1.3125,0.35938 0.61328,0 1.07032,-0.11329 1.375,-0.34375 0.20703,-0.15625 0.3125,-0.36329 0.3125,-0.625 0,-0.1875 -0.0547,-0.33594 -0.15625,-0.45313 -0.125,-0.11328 -0.39062,-0.21875 -0.79688,-0.3125 -1.91797,-0.42578 -3.13671,-0.8125 -3.65625,-1.15625 -0.71093,-0.48828 -1.06249,-1.16406 -1.06249,-2.03125 0,-0.76953 0.30469,-1.42187 0.92187,-1.95312 0.61328,-0.53125 1.56641,-0.79688 2.85938,-0.79688 1.22656,0 2.14062,0.20313 2.73437,0.60938 0.60156,0.39843 1.01953,0.98437 1.25,1.76562 l -2.25,0.42188 c -0.0937,-0.35157 -0.27734,-0.625 -0.54688,-0.8125 -0.26171,-0.1875 -0.64062,-0.28125 -1.14062,-0.28125 -0.625,0 -1.07422,0.0898 -1.34375,0.26562 -0.1875,0.125 -0.28125,0.28906 -0.28125,0.48438 0,0.16796 0.082,0.3125 0.25,0.4375 0.20703,0.15625 0.94141,0.38281 2.20313,0.67187 1.26952,0.28125 2.16015,0.63281 2.67187,1.04688 0.48828,0.42968 0.73437,1.01562 0.73437,1.76562 0,0.82422 -0.34375,1.53125 -1.03124,2.125 -0.68751,0.59375 -1.70313,0.89063 -3.04688,0.89063 -1.23047,0 -2.20312,-0.24219 -2.92188,-0.73438 -0.71093,-0.5 -1.17187,-1.17578 -1.39062,-2.03125 z m 16.38672,2.5625 v -1.34375 c -0.32422,0.48047 -0.75782,0.85938 -1.29687,1.14063 -0.53126,0.26953 -1.08985,0.40625 -1.67188,0.40625 -0.60547,0 -1.14844,-0.13282 -1.625,-0.39063 -0.48047,-0.26953 -0.82812,-0.64453 -1.04687,-1.125 -0.21876,-0.47656 -0.32813,-1.14062 -0.32813,-1.98437 v -5.6875 h 2.39062 v 4.125 c 0,1.26171 0.039,2.03906 0.125,2.32812 0.082,0.28125 0.23828,0.50781 0.46875,0.67188 0.23828,0.16796 0.53516,0.25 0.89063,0.25 0.40625,0 0.76953,-0.10938 1.09375,-0.32813 0.32031,-0.22656 0.53906,-0.50391 0.65625,-0.82812 0.11328,-0.33204 0.17188,-1.14063 0.17188,-2.42188 v -3.79687 h 2.375 v 8.98437 z m 6.94922,0 h -2.375 v -8.98437 h 2.20312 v 1.28125 c 0.38281,-0.60157 0.72656,-1 1.03125,-1.1875 0.30079,-0.19532 0.64063,-0.29688 1.01563,-0.29688 0.53906,0 1.0664,0.15234 1.57812,0.45313 l -0.73437,2.0625 c -0.40625,-0.25782 -0.78125,-0.39063 -1.125,-0.39063 -0.33594,0 -0.61719,0.0937 -0.84375,0.28125 -0.23047,0.1875 -0.41407,0.52344 -0.54688,1 -0.13672,0.48047 -0.20312,1.48047 -0.20312,3 z m 9.67968,-2.85937 2.35938,0.39062 c -0.30469,0.875 -0.78125,1.54297 -1.4375,2 -0.65625,0.44922 -1.48047,0.67188 -2.46875,0.67188 -1.5625,0 -2.71875,-0.50782 -3.46875,-1.53125 -0.59375,-0.82032 -0.89062,-1.85157 -0.89062,-3.09375 0,-1.48829 0.39062,-2.65625 1.17187,-3.5 0.78125,-0.84375 1.76562,-1.26563 2.95313,-1.26563 1.33203,0 2.3828,0.44531 3.15624,1.32813 0.78125,0.875 1.14844,2.22656 1.10938,4.04687 h -5.95313 c 0.0195,0.71094 0.21095,1.26172 0.57813,1.65625 0.36328,0.38672 0.82031,0.57813 1.375,0.57813 0.36328,0 0.67187,-0.0977 0.92187,-0.29688 0.25782,-0.20703 0.45703,-0.53516 0.59375,-0.98437 z m 0.125,-2.40625 c -0.0117,-0.6875 -0.18749,-1.20704 -0.53124,-1.5625 -0.33594,-0.36329 -0.7461,-0.54688 -1.23438,-0.54688 -0.52344,0 -0.94922,0.19531 -1.28125,0.57813 -0.34375,0.375 -0.51172,0.88671 -0.5,1.53125 z m 8.08204,-3.71875 h 1.3125 v -0.67188 c 0,-0.75781 0.0781,-1.32031 0.23437,-1.6875 0.16406,-0.375 0.46094,-0.67578 0.89063,-0.90625 0.4375,-0.23828 0.98828,-0.35937 1.65625,-0.35937 0.67577,0 1.33593,0.10156 1.98437,0.29687 l -0.32812,1.65625 c -0.375,-0.082 -0.74219,-0.125 -1.09376,-0.125 -0.34374,0 -0.58984,0.0781 -0.73437,0.23438 -0.14843,0.15625 -0.21875,0.46484 -0.21875,0.92187 v 0.64063 h 1.76563 v 1.875 h -1.76563 v 7.10937 h -2.39062 v -7.10937 h -1.3125 z m 6.25781,4.35937 c 0,-0.78125 0.1914,-1.53906 0.57812,-2.28125 0.39454,-0.73828 0.94531,-1.30078 1.65626,-1.6875 0.71874,-0.39453 1.51953,-0.59375 2.40625,-0.59375 1.35156,0 2.46093,0.44531 3.32812,1.32813 0.875,0.875 1.3125,1.99218 1.3125,3.34375 0,1.35546 -0.44531,2.48046 -1.32813,3.375 -0.875,0.89843 -1.97656,1.34375 -3.29687,1.34375 -0.82422,0 -1.60938,-0.1836 -2.35938,-0.54688 -0.75,-0.375 -1.32421,-0.92187 -1.71875,-1.64062 -0.38672,-0.72657 -0.57812,-1.60938 -0.57812,-2.64063 z m 2.4375,0.125 c 0,0.89844 0.21093,1.58594 0.64062,2.0625 0.42579,0.46875 0.94531,0.70313 1.56251,0.70313 0.625,0 1.14452,-0.23438 1.56249,-0.70313 0.41407,-0.47656 0.625,-1.17187 0.625,-2.07812 0,-0.875 -0.21093,-1.54688 -0.625,-2.01563 -0.41797,-0.47656 -0.93749,-0.71875 -1.56249,-0.71875 -0.6172,0 -1.13672,0.24219 -1.56251,0.71875 -0.42969,0.46875 -0.64062,1.14844 -0.64062,2.03125 z m 10.98047,4.5 h -2.375 v -8.98437 h 2.20312 v 1.28125 c 0.38282,-0.60157 0.72657,-1 1.03126,-1.1875 0.30077,-0.19532 0.64062,-0.29688 1.01562,-0.29688 0.53906,0 1.06641,0.15234 1.57812,0.45313 l -0.73438,2.0625 c -0.40624,-0.25782 -0.78124,-0.39063 -1.125,-0.39063 -0.33593,0 -0.61718,0.0937 -0.84374,0.28125 -0.23047,0.1875 -0.41406,0.52344 -0.54688,1 -0.13671,0.48047 -0.20312,1.48047 -0.20312,3 z m 9.23438,-10.20312 v -2.20313 h 2.39062 v 2.20313 z m 2.39062,1.21875 v 8.70312 c 0,1.14453 -0.0782,1.95313 -0.23438,2.42188 -0.14844,0.46875 -0.43359,0.83203 -0.85937,1.09375 -0.42969,0.26953 -0.96875,0.40625 -1.625,0.40625 -0.24219,0 -0.5,-0.0234 -0.78125,-0.0625 -0.26954,-0.043 -0.5625,-0.10547 -0.875,-0.1875 l 0.42187,-2.03125 c 0.10547,0.0195 0.21094,0.0351 0.31251,0.0469 0.0937,0.0195 0.18749,0.0312 0.28124,0.0312 0.23828,0 0.4375,-0.0547 0.59376,-0.15625 0.15624,-0.10547 0.2539,-0.23047 0.29687,-0.375 0.0508,-0.14844 0.0782,-0.58984 0.0782,-1.32812 v -8.5625 z m 2.48828,-1.21875 v -2.20313 h 2.375 v 2.20313 z m 0,10.20312 v -8.98437 h 2.375 v 8.98437 z m 4.71094,0 V 12.19327 h 2.375 v 4.46875 c 0.73828,-0.83203 1.60937,-1.25 2.60937,-1.25 1.09375,0 2,0.39844 2.71875,1.1875 0.71875,0.79297 1.07812,1.93359 1.07812,3.42188 0,1.53125 -0.37108,2.71484 -1.10937,3.54687 -0.73047,0.82422 -1.61719,1.23438 -2.65625,1.23438 -0.51172,0 -1.01562,-0.125 -1.51562,-0.375 -0.5,-0.25782 -0.9336,-0.64063 -1.29688,-1.14063 v 1.3125 z m 2.35937,-4.6875 c 0,0.92969 0.14453,1.61719 0.4375,2.0625 0.41406,0.63672 0.96094,0.95313 1.64063,0.95313 0.53125,0 0.97656,-0.22266 1.34374,-0.67188 0.375,-0.44531 0.56251,-1.15625 0.56251,-2.125 0,-1.01953 -0.18751,-1.75781 -0.56251,-2.21875 -0.375,-0.45703 -0.85546,-0.6875 -1.43749,-0.6875 -0.56251,0 -1.03907,0.22656 -1.42188,0.67188 -0.375,0.4375 -0.5625,1.10937 -0.5625,2.01562 z m 21.11328,0.125 2.42187,0.76563 c -0.375,1.35546 -0.99608,2.36718 -1.85936,3.03125 -0.8672,0.65625 -1.96485,0.98437 -3.29688,0.98437 -1.64844,0 -3,-0.5625 -4.0625,-1.6875 -1.05469,-1.13281 -1.57813,-2.67578 -1.57813,-4.625 0,-2.0625 0.53125,-3.66016 1.59375,-4.79687 1.0625,-1.14454 2.46094,-1.71875 4.20312,-1.71875 1.51954,0 2.75392,0.44921 3.70313,1.34375 0.56251,0.53125 0.98438,1.29296 1.26563,2.28125 l -2.48438,0.59375 c -0.14843,-0.64454 -0.45312,-1.14844 -0.92187,-1.51563 -0.46094,-0.375 -1.02344,-0.5625 -1.68751,-0.5625 -0.91796,0 -1.66405,0.32813 -2.23436,0.98438 -0.57423,0.65625 -0.85938,1.72656 -0.85938,3.20312 0,1.57422 0.28125,2.69531 0.84374,3.35938 0.56251,0.66796 1.29688,1 2.20313,1 0.66407,0 1.23828,-0.21094 1.71875,-0.64063 0.47656,-0.42578 0.82032,-1.09375 1.03125,-2 z m 4.57422,-7.84375 h 4.96875 c 0.97657,0 1.70703,0.043 2.1875,0.125 0.47656,0.0859 0.90625,0.25781 1.28125,0.51563 0.38282,0.26171 0.70313,0.60937 0.95313,1.04687 0.25781,0.42969 0.39062,0.90625 0.39062,1.4375 0,0.58594 -0.15625,1.12109 -0.46875,1.60938 -0.3125,0.48046 -0.73437,0.83984 -1.26562,1.07812 0.75,0.21875 1.32812,0.59375 1.73437,1.125 0.40625,0.53125 0.60938,1.15625 0.60938,1.875 0,0.5625 -0.13282,1.10938 -0.39063,1.64063 -0.26171,0.53125 -0.62109,0.96093 -1.07812,1.28125 -0.44923,0.32421 -1.00782,0.52343 -1.67188,0.59375 -0.41797,0.043 -1.42968,0.0703 -3.03125,0.0781 h -4.21875 z m 2.51563,2.0625 v 2.875 h 1.64062 c 0.96875,0 1.57032,-0.0156 1.8125,-0.0469 0.42578,-0.0508 0.75782,-0.19532 1,-0.4375 0.25,-0.25 0.375,-0.57032 0.375,-0.96875 0,-0.38282 -0.10546,-0.69532 -0.3125,-0.9375 -0.21093,-0.23829 -0.52344,-0.38282 -0.9375,-0.4375 -0.25,-0.0312 -0.96484,-0.0469 -2.14062,-0.0469 z m 0,4.9375 v 3.3125 h 2.3125 c 0.90624,0 1.47656,-0.0234 1.71875,-0.0781 0.375,-0.0625 0.67577,-0.22266 0.90625,-0.48438 0.22656,-0.25781 0.34375,-0.61328 0.34375,-1.0625 0,-0.36328 -0.0899,-0.67578 -0.26563,-0.9375 -0.17968,-0.25781 -0.4375,-0.44531 -0.78125,-0.5625 -0.34375,-0.125 -1.08594,-0.1875 -2.21875,-0.1875 z m 13.15625,5.40625 -4.43751,-12.40625 h 2.71876 l 3.14062,9.1875 3.04688,-9.1875 h 2.65625 l -4.45313,12.40625 z m 13.22656,-12.40625 h 4.96875 c 0.97656,0 1.70703,0.043 2.1875,0.125 0.47656,0.0859 0.90625,0.25781 1.28125,0.51563 0.38281,0.26171 0.70312,0.60937 0.95312,1.04687 0.25782,0.42969 0.39063,0.90625 0.39063,1.4375 0,0.58594 -0.15625,1.12109 -0.46875,1.60938 -0.3125,0.48046 -0.73437,0.83984 -1.26562,1.07812 0.75,0.21875 1.32812,0.59375 1.73437,1.125 0.40625,0.53125 0.60937,1.15625 0.60937,1.875 0,0.5625 -0.13281,1.10938 -0.39062,1.64063 -0.26172,0.53125 -0.6211,0.96093 -1.07812,1.28125 -0.44923,0.32421 -1.00782,0.52343 -1.67188,0.59375 -0.41797,0.043 -1.42969,0.0703 -3.03125,0.0781 h -4.21875 z m 2.51562,2.0625 v 2.875 h 1.64063 c 0.96875,0 1.57031,-0.0156 1.8125,-0.0469 0.42578,-0.0508 0.75781,-0.19532 1,-0.4375 0.25,-0.25 0.375,-0.57032 0.375,-0.96875 0,-0.38282 -0.10547,-0.69532 -0.3125,-0.9375 -0.21094,-0.23829 -0.52344,-0.38282 -0.9375,-0.4375 -0.25,-0.0312 -0.96485,-0.0469 -2.14062,-0.0469 z m 0,4.9375 v 3.3125 h 2.31251 c 0.90624,0 1.47656,-0.0234 1.71875,-0.0781 0.375,-0.0625 0.67577,-0.22266 0.90625,-0.48438 0.22656,-0.25781 0.34375,-0.61328 0.34375,-1.0625 0,-0.36328 -0.0899,-0.67578 -0.26563,-0.9375 -0.17969,-0.25781 -0.4375,-0.44531 -0.78125,-0.5625 -0.34375,-0.125 -1.08594,-0.1875 -2.21875,-0.1875 z m 0,0"
       style="fill:#000000;fill-opacity:1;fill-rule:nonzero;stroke:none;stroke-width:0.8"
       aria-label="Plot to find crack pressure for jib CBV B" />
    <path
       id="path66"
       d="m 72.748212,258.98498 0.660706,-0.22214 1.438348,-0.48345 1.438354,-0.48347 1.438349,-0.48345 1.438354,-0.48347 1.438357,-0.48344 1.438344,-0.48345 1.43836,-0.48347 1.438344,-0.4836 1.438352,-0.48346 1.438352,-0.48345 1.438352,-0.48347 1.43836,-0.48345 1.438344,-0.48347 1.438352,-0.48345 1.438352,-0.48345 1.438352,-0.48362 1.438352,-0.48344 1.438352,-0.48348 1.438352,-0.48344 1.43835,-0.48348 1.43835,-0.48344 1.43836,-0.48348 1.43834,-0.48344 1.43836,-0.48362 1.43835,-0.48345 1.43835,-0.48345 1.43836,-0.48347 1.43834,-0.48345 1.43836,-0.48347 1.43835,-0.48345 1.43835,-0.48347 1.43836,-0.48359 1.43834,-0.48347 1.43836,-0.48345 1.43835,-0.48345 1.43835,-0.48347 1.43836,-0.48344 1.43835,-0.48347 1.43835,-0.4836 1.43835,-0.48347 1.43835,-0.48344 1.43835,-0.48348 1.43836,-0.48344 1.43835,-0.48348 1.43835,-0.48344 1.43835,-0.48345 1.43835,-0.48362 1.43836,-0.48345 1.43835,-0.48347 1.43835,-0.48345 1.43835,-0.48347 1.43835,-0.48345 1.43836,-0.48347 1.43835,-0.48345 1.43835,-0.48359 1.43835,-0.48347 1.43835,-0.48345 1.43836,-0.48347 1.43835,-0.48345 1.43834,-0.48347 1.43836,-0.48345 1.43836,-0.48347 1.43835,-0.48359 1.43835,-0.48345 1.43834,-0.48347 1.43836,-0.48345 1.43835,-0.48347 1.43836,-0.48345 1.43833,-0.48347 1.43836,-0.48344 1.43836,-0.48363 1.43835,-0.48344 1.43836,-0.48348 1.43834,-0.48344 1.43835,-0.48344 1.43836,-0.48348 1.43835,-0.48344 1.43836,-0.48348 1.43834,-0.48359 1.43835,-0.48347 1.43836,-0.48345 1.43835,-0.48347 1.43834,-0.48345 1.43836,-0.48345 1.43836,-0.48347 1.43835,-0.48359 1.43836,-0.48347 1.43833,-0.48345 1.43836,-0.48347 1.43835,-0.48345 1.43836,-0.48347 1.43836,-0.48345 1.43833,-0.48345 1.43836,-0.48361 1.43835,-0.48345 1.43836,-0.48347 1.43836,-0.48345 1.43835,-0.48347 1.43835,-0.48345 1.43833,-0.48347 1.43838,-0.48345 1.43833,-0.48362 1.43835,-0.48345 1.43836,-0.48344 1.43835,-0.48348 1.43836,-0.48344 1.43836,-0.48347 1.43835,-0.48345 1.43833,-0.48347 1.43836,-0.4836 1.43835,-0.48347 1.43835,-0.48344 1.43835,-0.48346 1.43836,-0.48346 1.43835,-0.48346 1.43836,-0.48346 1.43836,-0.48345 1.43832,-0.48361 1.43836,-0.48345 1.43838,-0.48347 1.43833,-0.48345 1.43835,-0.48347 1.43836,-0.48345 1.43835,-0.48346 1.43835,-0.48346 1.43833,-0.48361 1.43839,-0.48345 1.43832,-0.48345 1.43836,-0.48346 1.43838,-0.48346 1.43833,-0.48346 1.43835,-0.48346 1.43836,-0.4836 1.43835,-0.48347 1.43835,-0.48345 1.43833,-0.48347 1.43839,-0.48345 1.43835,-0.48345 1.43833,-0.48347 1.43836,-0.48345 1.43835,-0.48361 1.43835,-0.48346 1.43836,-0.48346 1.43835,-0.48346 1.43835,-0.48345 1.43834,-0.48345 1.43835,-0.48346 1.43838,-0.48346 1.43833,-0.48361 1.43836,-0.48345 1.43835,-0.48347 1.43835,-0.48345 1.43836,-0.48347 1.43833,-0.48345 1.43837,-0.48347 1.43834,-0.48344 1.43835,-0.48361 1.43838,-0.48346 1.43833,-0.48346 1.43836,-0.48346 1.43835,-0.48346 1.43835,-0.48345 1.43836,-0.48347 1.43833,-0.48345 1.43837,-0.48361 1.43836,-0.48345 1.43833,-0.48345 1.43835,-0.48347 1.43836,-0.48345 1.43836,-0.48347 1.43835,-0.48345 1.43836,-0.48346 1.43835,-0.48361 1.43833,-0.48346 1.43835,-0.48345 1.43838,-0.48346 1.43833,-0.48345 1.43835,-0.48347 1.43836,-0.48345 1.43836,-0.48361 1.43835,-0.48346 1.43833,-0.48346 1.43838,-0.48346 1.43835,-0.48346 1.43833,-0.48345 1.43838,-0.48345 1.43833,-0.48347 1.43835,-0.4836 1.43836,-0.48346 1.43836,-0.48346 1.43835,-0.48346 1.43833,-0.48346 1.43838,-0.48345 1.43835,-0.48345 1.43834,-0.48347 1.43835,-0.4836 1.43835,-0.48346 1.43835,-0.48346 1.43836,-0.48346 1.43836,-0.48346 1.43835,-0.48346 1.43833,-0.48346 1.43836,-0.48346 1.43837,-0.4836 1.43834,-0.48345 1.43835,-0.48346 1.43835,-0.48346 1.43836,-0.48346 1.43835,-0.48346 1.43833,-0.48345 1.43838,-0.48347 1.43836,-0.48361 1.43833,-0.48345 1.43837,-0.48345 1.43834,-0.48346 1.43835,-0.48346 1.43835,-0.48346 1.43836,-0.48346 1.43835,-0.48346 1.43833,-0.4836 1.43839,-0.48346 1.43835,-0.48346 1.43833,-0.48346 1.43835,-0.48345 1.43836,-0.48346 1.43835,-0.48346 1.43835,-0.48361 1.43836,-0.48345 1.43835,-0.48347 1.43836,-0.48345 1.43833,-0.48346 1.43838,-0.48346 1.43833,-0.48345 1.43835,-0.48346 1.43838,-0.4836 1.43833,-0.48346 1.43833,-0.48346 1.43838,-0.48346 1.43833,-0.48346 1.43838,-0.48346 1.43833,-0.48346 1.43838,-0.48346 1.43833,-0.48359 1.43838,-0.48347 1.43833,-0.48345 1.43833,-0.48347 1.43837,-0.48345 1.43839,-0.48346 1.43832,-0.48346 1.43833,-0.48346 1.43839,-0.48361 1.43832,-0.48345 1.43838,-0.48345 1.43834,-0.48346 1.43832,-0.48346 1.43838,-0.48346 1.43834,-0.48346 1.43837,-0.48346 1.43838,-0.4836 1.43828,-0.48347 1.43838,-0.48345 1.43838,-0.48345 1.43833,-0.48346 1.43838,-0.48346 1.43833,-0.48346 1.43833,-0.48346 1.43838,-0.48361 1.43833,-0.48346 1.43837,-0.48345 1.43834,-0.48347 1.43833,-0.48345 1.43837,-0.48345 1.43838,-0.48346 1.43834,-0.4836 1.43832,-0.48347 1.43838,-0.48345 1.43834,-0.48347 1.43837,-0.48345 1.43838,-0.48347 1.43829,-0.48345 1.43837,-0.48345 1.43833,-0.48361 1.43838,-0.48346 1.43838,-0.48345 1.43833,-0.48347 1.43833,-0.48345 1.43838,-0.48347 1.43833,-0.48345 1.43837,-0.48347 1.43834,-0.4836 1.43833,-0.48346 1.43837,-0.48345 1.43839,-0.48345 1.43833,-0.48347 1.43832,-0.48345 1.43833,-0.48346 1.43839,-0.48346 1.43837,-0.48361 1.43833,-0.48346 1.43838,-0.48345 1.43833,-0.48345 0.89893,-0.30216"
       style="fill:none;stroke:#0072bd;stroke-width:3.33334;stroke-linecap:butt;stroke-linejoin:round;stroke-miterlimit:10;stroke-dasharray:none;stroke-opacity:1" />
    <path
       id="path67"
       d="m 279.71485,190.73143 c 0,-2.16005 -1.75106,-3.91111 -3.91111,-3.91111 -2.16005,0 -3.91111,1.75106 -3.91111,3.91111 0,2.16005 1.75106,3.91111 3.91111,3.91111 2.16005,0 3.91111,-1.75106 3.91111,-3.91111 z"
       style="fill:#ff0000;fill-opacity:1;fill-rule:nonzero;stroke:none;stroke-width:0.8" />
    <path
       id="path68"
       d="m 275.80374,188.15365 c 1.42367,0 2.57778,1.15411 2.57778,2.57778 v 0 c 0,1.42367 -1.15411,2.57778 -2.57778,2.57778 -1.42367,0 -2.57778,-1.15411 -2.57778,-2.57778 0,-1.42367 1.15411,-2.57778 2.57778,-2.57778 z m 0,-2.66666 c -2.89643,0 -5.24444,2.34801 -5.24444,5.24444 0,2.89643 2.34801,5.24444 5.24444,5.24444 2.89643,0 5.24444,-2.34801 5.24444,-5.24444 v 0 c 0,-2.89643 -2.34801,-5.24444 -5.24444,-5.24444 z"
       style="fill:#ff0000;fill-opacity:1;fill-rule:nonzero;stroke:none;stroke-width:0.8" />
    <path
       id="path69"
       d="m 121.51195,243.90857 c 0,-2.16005 -1.75106,-3.91111 -3.91111,-3.91111 -2.16005,0 -3.91111,1.75106 -3.91111,3.91111 0,2.16005 1.75106,3.91111 3.91111,3.91111 2.16005,0 3.91111,-1.75106 3.91111,-3.91111 z"
       style="fill:#ff00ff;fill-opacity:1;fill-rule:nonzero;stroke:none;stroke-width:0.8" />
    <path
       id="path70"
       d="m 117.60084,241.33079 c 1.42367,0 2.57778,1.15411 2.57778,2.57778 v 0 c 0,1.42367 -1.15411,2.57778 -2.57778,2.57778 -1.42367,0 -2.57778,-1.15411 -2.57778,-2.57778 0,-1.42367 1.15411,-2.57778 2.57778,-2.57778 z m 0,-2.66666 c -2.89643,0 -5.24444,2.34801 -5.24444,5.24444 0,2.89643 2.34801,5.24444 5.24444,5.24444 2.89643,0 5.24444,-2.34801 5.24444,-5.24444 v 0 c 0,-2.89643 -2.34801,-5.24444 -5.24444,-5.24444 z"
       style="fill:#ff00ff;fill-opacity:1;fill-rule:nonzero;stroke:none;stroke-width:0.8" />
    <path
       id="path95"
       d="m 492.66667,1191 c 0,-1.4728 -1.19391,-2.6667 -2.66667,-2.6667 -1.47275,0 -2.66666,1.1939 -2.66666,2.6667 0,1.4728 1.19391,2.6667 2.66666,2.6667 1.47276,0 2.66667,-1.1939 2.66667,-2.6667 z"
       style="fill:#808080;fill-opacity:1;fill-rule:nonzero;stroke:none;stroke-width:0.8" />
    <path
       id="path96"
       d="m 490,1188.3333 c 1.47276,0 2.66667,1.1939 2.66667,2.6667 v 0 c 0,1.4728 -1.19391,2.6667 -2.66667,2.6667 -1.47275,0 -2.66666,-1.1939 -2.66666,-2.6667 0,-1.4728 1.19391,-2.6667 2.66666,-2.6667 z M 490,1187 c -2.20913,0 -4,1.7909 -4,4 0,2.2091 1.79087,4 4,4 2.20914,0 4,-1.7909 4,-4 v 0 c 0,-2.2091 -1.79086,-4 -4,-4 z"
       style="fill:#ffffdc;fill-opacity:1;fill-rule:nonzero;stroke:none;stroke-width:0.8" />
    <text
       id="text91-9"
       xml:space="preserve"
       transform="scale(0.99970668,1.0002934)"
       x="263.54221"
       y="171.46324"
       style="font-size:16.0047px;stroke-width:1.33372"><tspan
         id="tspan91-2"
         style="font-variant:normal;font-weight:normal;font-size:17.5636px;font-family:Verdana;writing-mode:lr-tb;fill:#ff0000;fill-opacity:1;fill-rule:nonzero;stroke:none;stroke-width:1.33372"
         x="263.54221"
         y="171.46324">P</tspan></text>
    <text
       id="text92-5"
       xml:space="preserve"
       transform="scale(0.99970668,1.0002934)"
       x="274.13354"
       y="174.97594"
       style="font-size:16.0047px;stroke-width:1.33372"><tspan
         id="tspan92-5"
         style="font-variant:normal;font-weight:normal;font-size:11.4163px;font-family:Verdana;writing-mode:lr-tb;fill:#ff0000;fill-opacity:1;fill-rule:nonzero;stroke:none;stroke-width:1.33372"
         x="274.13354"
         dx="0 -0.55939877"
         y="174.97594">Fast</tspan></text>
    <text
       id="text93-3"
       xml:space="preserve"
       transform="scale(0.99970668,1.0002934)"
       x="111.41131"
       y="227.06743"
       style="font-size:16.0047px;stroke-width:1.33372"><tspan
         id="tspan93-3"
         style="font-variant:normal;font-weight:normal;font-size:17.5636px;font-family:Verdana;writing-mode:lr-tb;fill:#ff00ff;fill-opacity:1;fill-rule:nonzero;stroke:none;stroke-width:1.33372"
         x="111.41131"
         y="227.06743">P</tspan></text>
    <text
       id="text94-3"
       xml:space="preserve"
       transform="scale(0.99970668,1.0002934)"
       x="122.00263"
       y="230.58012"
       style="font-size:16.0047px;stroke-width:1.33372"><tspan
         id="tspan94-7"
         style="font-variant:normal;font-weight:normal;font-size:11.4163px;font-family:Verdana;writing-mode:lr-tb;fill:#ff00ff;fill-opacity:1;fill-rule:nonzero;stroke:none;stroke-width:1.33372"
         x="122.00263"
         y="230.58012">Slow</tspan></text>
    <text
       id="text95-4"
       xml:space="preserve"
       transform="scale(0.99970668,1.0002934)"
       x="115.38662"
       y="298.11111"
       style="font-size:16.0047px;stroke-width:1.33372"><tspan
         id="tspan95-3"
         style="font-variant:normal;font-weight:normal;font-size:17.5636px;font-family:Verdana;writing-mode:lr-tb;fill:#000000;fill-opacity:1;fill-rule:nonzero;stroke:none;stroke-width:1.33372"
         x="115.38662"
         y="298.11111">p</tspan></text>
    <text
       id="text96-8"
       xml:space="preserve"
       transform="scale(0.99970668,1.0002934)"
       x="126.32952"
       y="301.62381"
       style="font-size:16.0047px;stroke-width:1.33372"><tspan
         id="tspan96-0"
         style="font-variant:normal;font-weight:normal;font-size:11.4163px;font-family:Verdana;writing-mode:lr-tb;fill:#000000;fill-opacity:1;fill-rule:nonzero;stroke:none;stroke-width:1.33372"
         x="126.32952"
         y="301.62381">cr</tspan><tspan
         id="tspan97-8"
         style="font-variant:normal;font-weight:normal;font-size:11.4163px;font-family:Verdana;writing-mode:lr-tb;fill:#000000;fill-opacity:1;fill-rule:nonzero;stroke:none;stroke-width:1.33372"
         x="137.14937"
         y="291.08566">B</tspan></text>
    <path
       id="path97-8"
       d="m 76.14963,265.96292 2.016,-2.33333 34.83332,30.13067 -2.02133,2.33866 z"
       style="fill:#000000;fill-opacity:1;fill-rule:nonzero;stroke:none;stroke-width:1.33333" />
    <path
       id="path98-0"
       d="m 76.20695,266.26026 2.604,-1.66134 7.32267,11.51067 -2.604,1.656 z"
       style="fill:#000000;fill-opacity:1;fill-rule:nonzero;stroke:none;stroke-width:1.33333" />
    <path
       id="path99-6"
       d="m 78.45762,263.67092 -1.26667,2.81867 12.43734,5.588 1.26666,-2.81733 z"
       style="fill:#000000;fill-opacity:1;fill-rule:nonzero;stroke:none;stroke-width:1.33333" />
  </g>
</svg>
