<svg width="1280" height="720" xmlns="http://www.w3.org/2000/svg" xmlns:xlink="http://www.w3.org/1999/xlink" overflow="hidden"><g><rect x="0" y="0" width="1280" height="720" fill="#FFFFFF"/><rect x="401" y="269" width="130" height="95" stroke="#000000" stroke-width="4" stroke-miterlimit="8" fill="#203864"/><text fill="#FFFFFF" font-family="Calibri,Calibri_MSFontService,sans-serif" font-weight="400" font-size="24" transform="translate(442.244 310)">Feed</text><text fill="#FFFFFF" font-family="Calibri,Calibri_MSFontService,sans-serif" font-weight="400" font-size="24" transform="translate(425.464 339)">Forward</text><rect x="926" y="415" width="93" height="94" stroke="#000000" stroke-width="4" stroke-miterlimit="8" fill="#203864"/><text fill="#FFFFFF" font-family="Calibri,Calibri_MSFontService,sans-serif" font-weight="400" font-size="24" transform="translate(951.816 470)">DCV</text><rect x="424" y="415" width="89" height="94" stroke="#000000" stroke-width="4" stroke-miterlimit="8" fill="#203864"/><text fill="#FFFFFF" font-family="Calibri,Calibri_MSFontService,sans-serif" font-weight="400" font-size="24" transform="translate(451.6 470)">PID</text><path d="M585 462C585 451.507 593.507 443 604 443 614.493 443 623 451.507 623 462 623 472.493 614.493 481 604 481 593.507 481 585 472.493 585 462Z" stroke="#000000" stroke-width="4" stroke-miterlimit="8" fill="#203864" fill-rule="evenodd"/><path d="M326 462C326 451.507 334.507 443 345 443 355.493 443 364 451.507 364 462 364 472.493 355.493 481 345 481 334.507 481 326 472.493 326 462Z" stroke="#000000" stroke-width="4" stroke-miterlimit="8" fill="#203864" fill-rule="evenodd"/><path d="M574 436 592.898 436" stroke="#000000" stroke-width="4" stroke-miterlimit="8" fill="none" fill-rule="evenodd"/><path d="M583 445.898 583 427" stroke="#000000" stroke-width="4" stroke-miterlimit="8" fill="none" fill-rule="evenodd"/><path d="M573 484 591.898 484" stroke="#000000" stroke-width="4" stroke-miterlimit="8" fill="none" fill-rule="evenodd"/><path d="M583 492.898 583 474" stroke="#000000" stroke-width="4" stroke-miterlimit="8" fill="none" fill-rule="evenodd"/><path d="M2.889e-06-2 62.6803-1.99991 62.6803 2.00009-2.889e-06 2ZM60.6803-5.99991 72.6803 0.000104987 60.6803 6.00009Z" transform="matrix(1 0 0 -1 513 462)"/><path d="M623 460 700.176 460 700.176 464 623 464ZM698.176 456 710.176 462 698.176 468Z"/><path d="M364 460 413.773 460 413.773 464 364 464ZM411.773 456 423.773 462 411.773 468Z"/><path d="M1019 460 1072.75 460 1072.75 464 1019 464ZM1070.75 456 1082.75 462 1070.75 468Z"/><path d="M531 315 606.796 315 606.796 433.268 602.796 433.268 602.796 317 604.796 319 531 319ZM610.796 431.268 604.796 443.268 598.796 431.268Z"/><path d="M192 460 316.326 460 316.326 464 192 464ZM314.326 456 326.326 462 314.326 468Z"/><path d="M183 315 391.077 315 391.077 319 183 319ZM389.077 311 401.077 317 389.077 323Z"/><path d="M0 2-24.0295 2-22.0295 0-22.0295 788.121-24.0295 786.121 18.4969 786.121 18.4969 790.121-26.0295 790.121-26.0295-2 0-2ZM16.4969 782.121 28.4969 788.121 16.4969 794.121Z" transform="matrix(-6.12323e-17 -1 -1 6.12323e-17 1133.12 509.462)"/><path d="M308 443 326.898 443" stroke="#000000" stroke-width="4" stroke-miterlimit="8" fill="none" fill-rule="evenodd"/><path d="M318 452.898 318 434" stroke="#000000" stroke-width="4" stroke-miterlimit="8" fill="none" fill-rule="evenodd"/><path d="M360 484 378.898 484" stroke="#000000" stroke-width="4" stroke-miterlimit="8" fill="none" fill-rule="evenodd"/><text font-family="Cambria Math,Cambria Math_MSFontService,sans-serif" font-weight="400" font-size="24" transform="translate(235.715 492)">𝑋</text><text font-family="Cambria Math,Cambria Math_MSFontService,sans-serif" font-weight="400" font-size="18" transform="translate(250.162 497)">𝑟𝑒𝑓</text><text font-family="Cambria Math,Cambria Math_MSFontService,sans-serif" font-weight="400" font-size="24" transform="translate(613.253 376)">𝑢</text><text font-family="Cambria Math,Cambria Math_MSFontService,sans-serif" font-weight="400" font-size="18" transform="translate(625.639 381)">𝑓𝑓</text><text font-family="Cambria Math,Cambria Math_MSFontService,sans-serif" font-weight="400" font-size="24" transform="translate(305.166 304)">𝑉</text><text font-family="Cambria Math,Cambria Math_MSFontService,sans-serif" font-weight="400" font-size="18" transform="translate(316.979 308)">𝑟𝑒𝑓</text><text font-family="Cambria Math,Cambria Math_MSFontService,sans-serif" font-weight="400" font-size="24" transform="translate(683.054 560)">𝑋</text><text font-family="Cambria Math,Cambria Math_MSFontService,sans-serif" font-weight="400" font-size="18" transform="translate(697.501 564)">𝑚𝑒𝑎𝑠</text><text font-family="Cambria Math,Cambria Math_MSFontService,sans-serif" font-weight="400" font-size="24" transform="translate(364.696 446)">𝑋</text><text font-family="Cambria Math,Cambria Math_MSFontService,sans-serif" font-weight="400" font-size="18" transform="translate(379.143 451)">𝑒𝑟𝑟</text><text fill="#FF0000" font-family="Cambria Math,Cambria Math_MSFontService,sans-serif" font-weight="400" font-size="24" transform="translate(697.592 230)">𝑝</text><text fill="#FF0000" font-family="Cambria Math,Cambria Math_MSFontService,sans-serif" font-weight="400" font-size="18" transform="translate(710.165 235)">𝑠𝑢𝑝𝑝𝑙𝑦</text><text font-family="Cambria Math,Cambria Math_MSFontService,sans-serif" font-weight="400" font-size="24" transform="translate(770.752 230)"></text><text font-family="Cambria Math,Cambria Math_MSFontService,sans-serif" font-weight="400" font-size="24" transform="translate(776.085 230)"></text><text font-family="Cambria Math,Cambria Math_MSFontService,sans-serif" font-weight="400" font-size="24" transform="translate(781.419 230)"></text><text fill="#FFC000" font-family="Cambria Math,Cambria Math_MSFontService,sans-serif" font-weight="400" font-size="24" transform="translate(786.752 230)">𝑝</text><text fill="#FFC000" font-family="Cambria Math,Cambria Math_MSFontService,sans-serif" font-weight="400" font-size="18" transform="translate(799.145 235)">𝐴</text><text font-family="Cambria Math,Cambria Math_MSFontService,sans-serif" font-weight="400" font-size="24" transform="translate(811.979 230)"></text><text font-family="Cambria Math,Cambria Math_MSFontService,sans-serif" font-weight="400" font-size="24" transform="translate(817.312 230)"></text><text font-family="Cambria Math,Cambria Math_MSFontService,sans-serif" font-weight="400" font-size="24" transform="translate(822.645 230)"></text><text fill="#00B050" font-family="Cambria Math,Cambria Math_MSFontService,sans-serif" font-weight="400" font-size="24" transform="translate(827.979 230)">𝑝</text><text fill="#00B050" font-family="Cambria Math,Cambria Math_MSFontService,sans-serif" font-weight="400" font-size="18" transform="translate(840.552 235)">𝐵</text><text font-family="Cambria Math,Cambria Math_MSFontService,sans-serif" font-weight="400" font-size="24" transform="translate(660.073 450)">𝑢</text><text font-family="Cambria Math,Cambria Math_MSFontService,sans-serif" font-weight="400" font-size="24" transform="translate(526.865 445)">𝑢</text><text font-family="Cambria Math,Cambria Math_MSFontService,sans-serif" font-weight="400" font-size="18" transform="translate(539.252 450)">𝑓</text><text font-family="Cambria Math,Cambria Math_MSFontService,sans-serif" font-weight="400" font-size="18" transform="translate(549.752 450)">𝑏</text><rect x="97" y="269" width="129" height="240" stroke="#000000" stroke-width="4" stroke-miterlimit="8" fill="#203864"/><text fill="#FFFFFF" font-family="Calibri,Calibri_MSFontService,sans-serif" font-weight="400" font-size="24" transform="translate(125.792 383)">Motion</text><text fill="#FFFFFF" font-family="Calibri,Calibri_MSFontService,sans-serif" font-weight="400" font-size="24" transform="translate(112.812 412)">Reference</text><rect x="710" y="415" width="126" height="94" stroke="#000000" stroke-width="4" stroke-miterlimit="8" fill="#203864"/><text fill="#FFFFFF" font-family="Calibri,Calibri_MSFontService,sans-serif" font-weight="400" font-size="24" transform="translate(722.974 455)">Deadband</text><text fill="#FFFFFF" font-family="Calibri,Calibri_MSFontService,sans-serif" font-weight="400" font-size="24" transform="translate(745.994 484)">comp</text><path d="M836 460 915.587 460 915.587 464 836 464ZM913.587 456 925.587 462 913.587 468Z"/><text font-family="Cambria Math,Cambria Math_MSFontService,sans-serif" font-weight="400" font-size="24" transform="translate(864.199 449)">𝑢</text><text font-family="Cambria Math,Cambria Math_MSFontService,sans-serif" font-weight="400" font-size="18" transform="translate(878.032 454)">𝑡𝑜𝑡</text><text font-family="Cambria Math,Cambria Math_MSFontService,sans-serif" font-weight="400" font-size="24" transform="translate(1042.58 450)">𝑄</text><path d="M1159.52 415.547 1157 149" stroke="#00B050" stroke-width="4" stroke-miterlimit="8" fill="none" fill-rule="evenodd"/><path d="M1132.09 416.024 1131 179" stroke="#FFC000" stroke-width="4" stroke-miterlimit="8" fill="none" fill-rule="evenodd"/><path d="M1104.66 416.612 1104 206" stroke="#FF0000" stroke-width="4" stroke-miterlimit="8" fill="none" fill-rule="evenodd"/><path d="M0 0 714.319 0.000104987" stroke="#00B050" stroke-width="4" stroke-miterlimit="8" fill="none" fill-rule="evenodd" transform="matrix(-1 0 0 1 1159.32 152)"/><path d="M0 0 661.781 0.000104987" stroke="#FFC000" stroke-width="4" stroke-miterlimit="8" fill="none" fill-rule="evenodd" transform="matrix(-1 0 0 1 1132.78 179)"/><path d="M0 0 608.245 0.000104987" stroke="#FF0000" stroke-width="4" stroke-miterlimit="8" fill="none" fill-rule="evenodd" transform="matrix(-1 0 0 1 1106.24 207)"/><path d="M2.00002 10 2.0001 64.7367-1.99989 64.7367-1.99998 10ZM-5.99998 12 0 0 6.00002 12Z" fill="#FF0000" transform="matrix(1 0 0 -1 499 269.737)"/><path d="M2.08282 9.98307 2.76319 92.0569-1.23668 92.0901-1.91704 10.0162ZM-5.90032 12.0493 0 0 6.09927 11.9499Z" fill="#FFC000" transform="matrix(1 0 0 -1 471 269.073)"/><path d="M2.00001 9.99999 2.0001 120.512-1.99989 120.512-1.99999 10ZM-5.99999 12 0 0 6.00001 12Z" fill="#00B050" transform="matrix(1 0 0 -1 445 269.512)"/><rect x="1083" y="415" width="100" height="94" stroke="#000000" stroke-width="4" stroke-miterlimit="8" fill="#203864"/><text fill="#FFFFFF" font-family="Calibri,Calibri_MSFontService,sans-serif" font-weight="400" font-size="24" transform="translate(1098.37 470)">System</text></g></svg>