<svg width="960" height="720" xmlns="http://www.w3.org/2000/svg" xmlns:xlink="http://www.w3.org/1999/xlink" overflow="hidden"><g><rect x="0" y="0" width="960" height="720" fill="#FFFFFF"/><path d="M164 248 834.088 248" stroke="#000000" stroke-width="4" stroke-miterlimit="8" fill-rule="evenodd"/><path d="M164 472 834.088 472" stroke="#000000" stroke-width="4" stroke-miterlimit="8" fill-rule="evenodd"/><path d="M164 248 164 472.436" stroke="#000000" stroke-width="4" stroke-miterlimit="8" fill-rule="evenodd"/><path d="M833 248 833 472.436" stroke="#000000" stroke-width="4" stroke-miterlimit="8" fill-rule="evenodd"/><path d="M654 248 761.945 428.902" stroke="#000000" stroke-width="4" stroke-miterlimit="8" fill-rule="evenodd"/><path d="M0 0 107.946 180.902" stroke="#000000" stroke-width="4" stroke-miterlimit="8" fill-rule="evenodd" transform="matrix(-1 0 0 1 761.945 291)"/><path d="M409 427 454.96 427" stroke="#000000" stroke-width="4" stroke-miterlimit="8" fill-rule="evenodd"/><path d="M0 0 0.000104987 45.0151" stroke="#000000" stroke-width="4" stroke-miterlimit="8" fill-rule="evenodd" transform="matrix(1 0 0 -1 432 472.015)"/><path d="M0 0 0.000104987 108.966" stroke="#000000" stroke-width="4" stroke-miterlimit="8" fill-rule="evenodd" transform="matrix(1 0 0 -1 432 356.966)"/><path d="M0 0 0.000104987 108.966" stroke="#000000" stroke-width="4" stroke-miterlimit="8" fill-rule="evenodd" transform="matrix(1 0 0 -1 565 356.966)"/><path d="M0 0 0.000104987 108.966" stroke="#000000" stroke-width="4" stroke-miterlimit="8" fill-rule="evenodd" transform="matrix(1 0 0 -1 565 421.966)"/><path d="M432 356 565.231 356" stroke="#000000" stroke-width="4" stroke-miterlimit="8" fill-rule="evenodd"/><path d="M609 248 609 472.436" stroke="#000000" stroke-width="4" stroke-miterlimit="8" fill-rule="evenodd"/><path d="M387 248 387 472.436" stroke="#000000" stroke-width="4" stroke-miterlimit="8" fill-rule="evenodd"/><path d="M342 248 342 427.494" stroke="#000000" stroke-width="4" stroke-miterlimit="8" fill-rule="evenodd"/><path d="M208 471.494 208 292" stroke="#000000" stroke-width="4" stroke-miterlimit="8" fill-rule="evenodd"/><path d="M201 309 209.117 262 217 309Z" stroke="#000000" stroke-width="4" stroke-miterlimit="8" fill-rule="evenodd"/><path d="M350 411 342.609 459 335 411Z" stroke="#000000" stroke-width="4" stroke-miterlimit="8" fill-rule="evenodd"/><path d="M573 411 565.117 459 557 411Z" stroke="#000000" stroke-width="4" stroke-miterlimit="8" fill-rule="evenodd"/><path d="M763.383 418.784 781.624 463.347 750.125 426.879Z" stroke="#000000" stroke-width="4" stroke-miterlimit="8" fill-rule="evenodd"/><path d="M0 47.5397 7.65348 0 15.5338 47.5397Z" stroke="#000000" stroke-width="4" stroke-miterlimit="8" fill-rule="evenodd" transform="matrix(-0.85349 -0.521109 -0.521109 0.85349 789.757 260.685)"/><path d="M549 356.5C549 347.94 556.163 341 565 341 573.837 341 581 347.94 581 356.5 581 365.06 573.837 372 565 372 556.163 372 549 365.06 549 356.5Z" stroke="#000000" stroke-width="4" stroke-miterlimit="8" fill-rule="evenodd"/><path d="M0.00266826-2 670.463-1.10552 670.457 2.89448-0.00266826 2ZM668.467-5.10818 680.459 0.907821 668.451 6.89181Z" transform="matrix(-1 0 0 1 838.459 522)"/><text font-family="Aptos,Aptos_MSFontService,sans-serif" font-weight="400" font-size="24" transform="translate(491.561 550)">0</text><text font-family="Aptos,Aptos_MSFontService,sans-serif" font-weight="400" font-size="24" transform="translate(816.929 550)">-</text><text font-family="Aptos,Aptos_MSFontService,sans-serif" font-weight="400" font-size="24" transform="translate(823.289 550)">1</text><text font-family="Aptos,Aptos_MSFontService,sans-serif" font-weight="400" font-size="24" transform="translate(135.982 530)">u</text><text font-family="Aptos,Aptos_MSFontService,sans-serif" font-weight="400" font-size="24" transform="translate(443.765 592)">Deadband</text><path d="M402 563 591.5 563 591.5 567 402 567ZM404 571 392 565 404 559ZM589.5 559 601.5 565 589.5 571Z"/><text font-family="Aptos,Aptos_MSFontService,sans-serif" font-weight="400" font-size="24" transform="translate(559.085 502)">T</text><text font-family="Aptos,Aptos_MSFontService,sans-serif" font-weight="400" font-size="24" transform="translate(427.134 502)">P</text><text font-family="Aptos,Aptos_MSFontService,sans-serif" font-weight="400" font-size="24" transform="translate(557.585 233)">B</text><text font-family="Aptos,Aptos_MSFontService,sans-serif" font-weight="400" font-size="24" transform="translate(426.967 233)">A</text><text font-family="Aptos,Aptos_MSFontService,sans-serif" font-weight="400" font-size="24" transform="translate(172.07 550)">1</text><path d="M387 361 387.043 578.495" stroke="#000000" stroke-width="4" stroke-miterlimit="8" stroke-dasharray="16 12" fill-rule="evenodd"/><path d="M0 0 0.0365354 217.494" stroke="#000000" stroke-width="4" stroke-miterlimit="8" stroke-dasharray="16 12" fill-rule="evenodd" transform="matrix(-1 0 0 1 609.037 361)"/></g></svg>