<svg width="756" height="416" xmlns="http://www.w3.org/2000/svg" xmlns:xlink="http://www.w3.org/1999/xlink" overflow="hidden"><defs><clipPath id="clip0"><rect x="0" y="0" width="756" height="416"/></clipPath></defs><g clip-path="url(#clip0)"><rect x="0" y="0" width="756" height="416.242" fill="#FFFFFF"/><path d="M51 57.0331 721.235 57.0332" stroke="#000000" stroke-width="4.00088" stroke-miterlimit="8" fill-rule="evenodd"/><path d="M51 281.163 721.235 281.163" stroke="#000000" stroke-width="4.00088" stroke-miterlimit="8" fill-rule="evenodd"/><path d="M51 57.0331 51.0001 281.649" stroke="#000000" stroke-width="4.00088" stroke-miterlimit="8" fill-rule="evenodd"/><path d="M721 57.0331 721 281.649" stroke="#000000" stroke-width="4.00088" stroke-miterlimit="8" fill-rule="evenodd"/><path d="M542 57.0331 649.969 238.08" stroke="#000000" stroke-width="4.00088" stroke-miterlimit="8" fill-rule="evenodd"/><path d="M0 0 107.969 180.942" stroke="#000000" stroke-width="4.00088" stroke-miterlimit="8" fill-rule="evenodd" transform="matrix(-1 0 0 1.00058 649.969 100.058)"/><path d="M297 236.137 342.97 236.137" stroke="#000000" stroke-width="4.00088" stroke-miterlimit="8" fill-rule="evenodd"/><path d="M0 0 0.00010501 45.025" stroke="#000000" stroke-width="4.00088" stroke-miterlimit="8" fill-rule="evenodd" transform="matrix(1 0 0 -1.00058 320 281.188)"/><path d="M0 0 0.00010501 108.99" stroke="#000000" stroke-width="4.00088" stroke-miterlimit="8" fill-rule="evenodd" transform="matrix(1 0 0 -1.00058 320 166.087)"/><path d="M0 0 0.00010501 108.99" stroke="#000000" stroke-width="4.00088" stroke-miterlimit="8" fill-rule="evenodd" transform="matrix(1 0 0 -1.00058 452 166.087)"/><path d="M0 0 0.00010501 108.99" stroke="#000000" stroke-width="4.00088" stroke-miterlimit="8" fill-rule="evenodd" transform="matrix(1 0 0 -1.00058 452 231.124)"/><path d="M319 165.096 452.26 165.096" stroke="#000000" stroke-width="4.00088" stroke-miterlimit="8" fill-rule="evenodd"/><path d="M497 57.0331 497 281.649" stroke="#000000" stroke-width="4.00088" stroke-miterlimit="8" fill-rule="evenodd"/><path d="M274 57.0331 274 281.649" stroke="#000000" stroke-width="4.00088" stroke-miterlimit="8" fill-rule="evenodd"/><path d="M230 57.0331 230 236.671" stroke="#000000" stroke-width="4.00088" stroke-miterlimit="8" fill-rule="evenodd"/><path d="M96 280.696 95.9998 101.059" stroke="#000000" stroke-width="4.00088" stroke-miterlimit="8" fill-rule="evenodd"/><path d="M89 119.069 96.6095 71.0413 104 119.069Z" stroke="#000000" stroke-width="4.00088" stroke-miterlimit="8" fill-rule="evenodd"/><path d="M238 220.128 230.117 268.156 222 220.128Z" stroke="#000000" stroke-width="4.00088" stroke-miterlimit="8" fill-rule="evenodd"/><path d="M461 221.128 453.117 268.156 445 221.128Z" stroke="#000000" stroke-width="4.00088" stroke-miterlimit="8" fill-rule="evenodd"/><path d="M651.049 228.052 669.294 272.65 637.788 236.153Z" stroke="#000000" stroke-width="4.00151" stroke-miterlimit="8" fill-rule="evenodd"/><path d="M0 47.5577 7.65638 0 15.5396 47.5577Z" stroke="#000000" stroke-width="4.00151" stroke-miterlimit="8" fill-rule="evenodd" transform="matrix(-0.853355 -0.52133 -0.521027 0.853851 677.428 69.8256)"/><path d="M437 165.596C437 157.031 443.94 150.087 452.5 150.087 461.06 150.087 468 157.031 468 165.596 468 174.162 461.06 181.105 452.5 181.105 443.94 181.105 437 174.162 437 165.596Z" stroke="#000000" stroke-width="4.00088" stroke-miterlimit="8" fill-rule="evenodd"/><path d="M0.00266885-2.00044 670.611-1.10576 670.605 2.89512-0.00266885 2.00044ZM668.614-5.10931 680.609 0.908022 668.598 6.89333Z" transform="matrix(-1 0 0 1.00058 726.609 332.193)"/><text font-family="Aptos,Aptos_MSFontService,sans-serif" font-weight="400" font-size="24" transform="matrix(1 0 0 1.00058 379.166 360)">0</text><text font-family="Aptos,Aptos_MSFontService,sans-serif" font-weight="400" font-size="24" transform="matrix(1 0 0 1.00058 704.606 360)">-</text><text font-family="Aptos,Aptos_MSFontService,sans-serif" font-weight="400" font-size="24" transform="matrix(1 0 0 1.00058 710.967 360)">1</text><text font-family="Aptos,Aptos_MSFontService,sans-serif" font-weight="400" font-size="24" transform="matrix(1 0 0 1.00058 23.5085 339)">u</text><text font-family="Aptos,Aptos_MSFontService,sans-serif" font-weight="400" font-size="24" transform="matrix(1 0 0 1.00058 331.359 401)">Deadband</text><path d="M290.002 372.216 479.544 372.216 479.544 376.219 290.002 376.219ZM292.003 380.222 280 374.217 292.003 368.213ZM477.544 368.213 489.546 374.218 477.544 380.222Z"/><text font-family="Aptos,Aptos_MSFontService,sans-serif" font-weight="400" font-size="24" transform="matrix(1 0 0 1.00058 446.706 312)">T</text><text font-family="Aptos,Aptos_MSFontService,sans-serif" font-weight="400" font-size="24" transform="matrix(1 0 0 1.00058 314.725 312)">P</text><text font-family="Aptos,Aptos_MSFontService,sans-serif" font-weight="400" font-size="24" transform="matrix(1 0 0 1.00058 445.205 42)">B</text><text font-family="Aptos,Aptos_MSFontService,sans-serif" font-weight="400" font-size="24" transform="matrix(1 0 0 1.00058 314.558 42)">A</text><text font-family="Aptos,Aptos_MSFontService,sans-serif" font-weight="400" font-size="24" transform="matrix(1 0 0 1.00058 59.6048 360)">1</text><path d="M274 170.099 274.043 387.768" stroke="#000000" stroke-width="4.00088" stroke-miterlimit="8" stroke-dasharray="16.0035 12.0026" fill-rule="evenodd"/><path d="M0 0 0.0365435 217.542" stroke="#000000" stroke-width="4.00088" stroke-miterlimit="8" stroke-dasharray="16.0035 12.0026" fill-rule="evenodd" transform="matrix(-1 0 0 1.00058 497.036 170.099)"/></g></svg>